<svg xmlns="http://www.w3.org/2000/svg" id="Calque_2" viewBox="0 0 427.5 750"><defs><style>.cls-1,.cls-2{stroke:#181818;}.cls-1,.cls-2,.cls-3,.cls-4{fill:none;}.cls-1,.cls-2,.cls-4{stroke-miterlimit:10;stroke-width:2px;}.cls-5{fill:#fff;}.cls-6{opacity:.5;}.cls-2{stroke-dasharray:0 0 4.98 4.98;}.cls-7{fill:#181818;}.cls-8{fill:#181236;}.cls-9{fill:#d79b54;}.cls-4{stroke:#d79b54;stroke-dasharray:0 5;}</style></defs><g id="Calque_1-2"><g><g class="cls-6"><g><line class="cls-1" x1="78.81" y1="18.89" x2="78.81" y2="21.39"></line><line class="cls-2" x1="78.81" y1="26.36" x2="78.81" y2="740.29"></line><line class="cls-1" x1="78.81" y1="742.78" x2="78.81" y2="745.28"></line></g></g><path class="cls-8" d="M276.04,149.17c-1.59-.3-3.1-.59-4.45-.8-2.31-.37-4.3-.58-5.93-.62,.5-1.66,.96-3.77,.51-5.49-.52-2-2.26-3.39-4.54-3.62-.84-.08-1.8-.01-2.71,.17,.01-.24,.02-.49,.02-.74,0-1.71-.24-4.8-1.82-6.28-.42-.39-.92-.66-1.45-.84,1.09-.7,2.42-1.65,4.09-2.84l.63-.45c3.45-2.45,8.18-5.8,10.91-9.01,2.38-2.8,3.51-5.79,3.57-9.4,.03-2.06-.27-4.02-.54-5.76-.11-.74-.22-1.43-.3-2.09-.26-2.22-.18-4.06,.26-5.62,.48-1.73,1.36-2.93,2.86-3.89,1.4-.9,3.48-1.67,5.69-2.49,.49-.18,1-.37,1.51-.56,.54-.21,1.09-.42,1.64-.63,1.2-.47,2.43-.94,3.56-1.33,2.33,.04,4.13-.12,4.88-.35,.57-.17,.64-.43,.6-.62-.14-.57-1.57-.57-2.84-.33-.79,.15-1.72,.42-2.71,.76-1-.02-2.09-.07-3.22-.17-1.72-.15-3.58-.4-5.22-.62-2.03-.27-3.79-.51-4.97-.53-.15,0-.29,0-.42,0-.12-.17-.28-.34-.47-.5-1.18-.97-3.9-1.95-7.06-1.78-3.7,.2-7.17,1.82-9.28,4.35-1.23,1.46-2.09,3.34-3.01,5.32-.86,1.86-1.74,3.78-3.05,5.71-2.9,4.3-7.74,8.44-11.13,11.17-2.41,1.95-4.61,3.58-6.38,4.89-.38-1.4-1.88-2.69-4.33-4.53-6.65-5-13.33-8.6-19.86-10.69-4.01-1.29-8.77-2.26-13.04-2.65-4.14-.38-7.19-.19-8.35,.53-.53,.33-.63,.74-.62,1.03,.06,1.61,3.67,4.13,12.06,8.44,8,4.1,18.03,8.66,23.35,10.59,5.39,1.96,6.26,1.3,8.18-.13l.13-.1c.47-.35,.99-.73,1.6-1.18,.14-.1,.28-.21,.43-.31-.06,.53-.29,1.09-.69,1.73-.52,.85-1.33,1.84-2.18,2.89-1.93,2.37-3.93,4.83-3.6,6.7,.37,2.14,3.74,3.23,7.58,3.52-1.51,2.31-2.08,3.96-1.7,4.9,.13,.31,.43,.72,1.15,.85,1.5,.28,4.37-.72,6.68-1.52,.41-.14,.81-.28,1.18-.4,1.52-.51,2.5-.74,3.02-.44,.26,.15,.44,.45,.54,.95,.22,1.02,.12,2.82,.03,4.72-.06,1.18-.12,2.4-.12,3.57,0,2.69,.34,4.7,1.07,6.18h-.12c-2.78-.12-7.06-.18-15.52,.44-1.08,.08-2.23,.17-3.44,.26-7.47,.59-17.71,1.39-29.64,.89-3.24-.13-6.64-.37-10.1-.65v.53c3.45,.28,6.84,.51,10.07,.65,11.97,.5,22.22-.3,29.71-.89,1.21-.09,2.36-.18,3.44-.26,8.43-.62,12.69-.56,15.46-.44,.15,0,.3,.01,.45,.02,.2,.32,.41,.61,.66,.87,1.54,1.68,4.21,2.37,5.44,2.12,.67-.13,.84-.53,.88-.75,.1-.55-.35-1.22-1.15-1.69-1-.6-2.58-.91-5.51-1.07-.78-1.41-1.15-3.43-1.15-6.21,0-1.16,.06-2.37,.12-3.54,.1-1.94,.19-3.77-.04-4.86-.14-.65-.4-1.08-.8-1.31-.7-.4-1.71-.18-3.45,.4-.37,.12-.77,.26-1.18,.4-2.25,.78-5.05,1.75-6.41,1.49-.39-.07-.64-.24-.75-.53-.19-.47-.18-1.68,1.82-4.66,1.06,.06,2.15,.06,3.21,0,5.38-.28,10.57-1.93,15.43-4.89,4.99-3.04,9.57-7.39,12.25-11.63,2.9-4.6,3.36-8.7,2.88-10.81-.68-2.95-3.34-2.92-5.85-2.51-3.13,.51-7.93,2.09-12.05,4.97-4.02,2.81-7.37,6.87-8.14,9.87-.39,1.51-.16,2.87,.64,3.82,.09,.11,.18,.21,.29,.3-3.14,3.02-6.61,7.04-8.61,9.87-.11,.16-.22,.31-.32,.46-3.81-.24-7.08-1.25-7.39-3.11-.28-1.64,1.72-4.1,3.49-6.28,.87-1.06,1.68-2.07,2.22-2.95,.56-.91,.81-1.68,.78-2.41,1.82-1.33,4.1-3.03,6.62-5.06,3.42-2.76,8.3-6.93,11.24-11.29,1.33-1.97,2.26-4,3.09-5.78,.9-1.95,1.75-3.79,2.93-5.2,2.02-2.41,5.35-3.97,8.9-4.16,3.22-.17,5.77,.9,6.69,1.66,.06,.05,.12,.1,.17,.15-.55,.09-.92,.28-1.11,.57-.17,.25-.19,.57-.04,.9,.13,.3,.34,.5,.6,.57,.19,.05,.49,.06,.85-.19,.38-.27,.61-.67,.63-1.07,0-.11,0-.21-.03-.31,.06,0,.12,0,.18,0,1.15,.01,2.89,.25,4.9,.52,1.65,.22,3.52,.48,5.25,.62,.65,.06,1.28,.1,1.89,.13-.76,.28-1.54,.58-2.31,.88-.55,.21-1.1,.42-1.64,.63-.51,.19-1.01,.38-1.5,.56-2.24,.83-4.35,1.61-5.79,2.54-1.62,1.04-2.57,2.33-3.09,4.19-.45,1.63-.54,3.54-.27,5.83,.08,.67,.19,1.37,.3,2.11,.27,1.71,.57,3.65,.54,5.67-.03,2.19-.43,5.51-3.44,9.06-2.68,3.16-7.38,6.49-10.81,8.92l-.63,.45c-1.85,1.31-3.33,2.36-4.49,3.09-1.14-.21-2.28-.06-2.89,.22-.64,.29-.75,.72-.65,1,.14,.37,.7,.62,1.63,.34,.54-.16,1.19-.49,2-.99,.62,.14,1.22,.41,1.69,.84,1.43,1.34,1.65,4.26,1.65,5.89,0,.3,0,.59-.02,.87-1.24,.31-2.32,.83-2.76,1.41-.33,.43-.33,.92-.02,1.36,.42,.58,1.28,.88,1.91,.65,.77-.27,1.23-1.27,1.37-2.99,.87-.19,1.83-.28,2.69-.19,2.08,.21,3.6,1.41,4.07,3.22,.43,1.65-.05,3.74-.55,5.35-2.08,0-3.48,.31-4.09,.92-.36,.36-.46,.85-.28,1.37,.28,.83,1.26,1.64,2.08,1.75,1.34,.17,2.02-1.51,2.59-3.24,.03-.08,.06-.17,.08-.26,1.45,.02,3.4,.19,6.01,.61,1.35,.22,2.85,.5,4.44,.8,5.34,1.01,11.92,2.25,19.55,2.38v-.53c-7.58-.13-14.13-1.37-19.45-2.37Zm16.25-63.06c.55-.1,1-.14,1.35-.14,.28,0,.5,.02,.66,.05h-.01c-.52,.16-1.6,.28-2.99,.32,.35-.1,.69-.17,1-.23Zm-58.22,28.96c-.61,.45-1.14,.83-1.6,1.18l-.13,.1c-1.87,1.39-2.57,1.92-7.68,.05-5.3-1.93-15.31-6.47-23.29-10.56-2.89-1.48-11.69-6-11.77-7.98,0-.14,.03-.34,.36-.55,.68-.42,2.22-.64,4.3-.64,1.1,0,2.36,.06,3.72,.19,4.24,.39,8.95,1.35,12.93,2.63,6.47,2.08,13.1,5.65,19.7,10.61,2.64,1.98,3.96,3.19,4.18,4.45-.25,.18-.49,.36-.72,.53Zm19.54,35.34c.64,.39,.94,.88,.9,1.14-.03,.19-.27,.28-.46,.32-1.08,.22-3.55-.44-4.95-1.96-.14-.15-.26-.31-.38-.47,2.6,.16,4.01,.44,4.89,.97Zm-16.6-21.03c2-2.82,5.47-6.85,8.6-9.85,.61,.39,1.35,.57,2.13,.51,2.31-.19,4.96-2.52,5.47-3.95,.2-.56,.1-1.03-.26-1.29-.79-.58-2.56,.08-4.73,1.74-.81,.63-1.71,1.41-2.65,2.29-.09-.08-.18-.17-.26-.27-.69-.81-.87-2-.53-3.34,.74-2.89,4-6.82,7.93-9.57,4.04-2.83,8.76-4.38,11.83-4.88,3.26-.54,4.78,.07,5.25,2.11,.46,2.01,0,5.95-2.81,10.41-2.64,4.17-7.15,8.46-12.08,11.46-4.79,2.91-9.89,4.53-15.18,4.81-.95,.05-1.9,.06-2.83,.02,.04-.06,.09-.12,.13-.18Zm9-10.23c.89-.84,1.75-1.59,2.53-2.19,2.49-1.91,3.76-1.97,4.09-1.73,.21,.16,.14,.49,.07,.68-.45,1.27-2.92,3.43-5.01,3.6-.61,.05-1.19-.08-1.68-.36Zm28.97-32.63c-.1,.07-.26,.15-.4,.11-.13-.04-.21-.17-.25-.27-.07-.16-.07-.3,0-.4,.07-.1,.29-.3,1.01-.37,.03,.09,.05,.18,.04,.27-.01,.36-.31,.59-.4,.66Zm-22.06,45.29c-.67,.2-.96,.04-.98-.02-.01-.03,.05-.18,.37-.32,.35-.16,.92-.27,1.57-.27,.12,0,.23,0,.35,.01-.52,.29-.95,.5-1.31,.6Zm4.43,10.04c-.4,.14-1.03-.08-1.31-.46-.18-.24-.17-.48,0-.72,.33-.43,1.22-.87,2.3-1.17-.14,1.34-.48,2.18-1,2.36Zm7.56,6.51c-.6,1.81-1.18,2.99-2.02,2.88-.63-.08-1.42-.75-1.64-1.39-.11-.33-.06-.6,.16-.82,.23-.23,1.02-.73,3.54-.76l-.03,.09Z"></path><path class="cls-7" d="M257.91,296.53c-.58,.18-.64,.71-.21,1.81,.04,.11,.08,.2,.08,.22s-.12-.04-.26-.11c-.14-.07-.33-.15-.42-.17-.18-.05-.61-.06-.79-.02-.57,.13-1.09,.6-1.41,1.26-.09,.2-.43,1.3-.6,1.98-.14,.55-.34,1.59-.46,2.4-.2,1.38-.18,1.72,.18,2.79,.09,.26,.15,.47,.15,.47,0,0-.21-.14-.46-.33-.82-.61-1.76-1.22-2.55-1.66-.99-.54-3.4-1.61-4.34-1.92-.24-.08-.46-.08-.56,0-.15,.11-.18,.19-.18,.39,0,.24,.17,.75,.67,2.05,.45,1.16,.49,1.25,1.3,3.06,.38,.83,.82,1.83,.98,2.22,.34,.77,.56,1.28,1.02,2.27,.17,.36,.42,.89,.55,1.18,.5,1.08,1.62,3.29,2.09,4.13,.11,.19,.2,.36,.2,.38s-.07,0-.18-.04c-.42-.15-1.64-.54-2.28-.72-1.82-.52-3.38-.88-5.8-1.31-.5-.09-1.24-.22-1.64-.29-.83-.15-1.23-.2-1.43-.18-.29,.03-.6,.25-.68,.46-.13,.41,.32,1.08,1.47,2.14,.24,.22,.68,.64,.96,.92,.64,.63,.95,.89,1.66,1.43,.31,.23,.96,.74,1.45,1.13,1.11,.88,1.53,1.2,2.07,1.55,.4,.27,1.01,.63,1.36,.82,.09,.05,.17,.1,.17,.1s-.79,.01-1.76,0c-2.34-.01-2.52,0-5.15,.27-.61,.06-1.43,.15-1.81,.18-1.32,.13-2.32,.23-2.66,.26-.74,.07-1.04,.19-1.16,.47-.17,.37,.18,.65,1.54,1.28,.97,.45,1.34,.6,2.55,1.04,.49,.18,2,.67,2.52,.81,.14,.04,.26,.08,.27,.09,.01,.01-.16,.08-.38,.16-1.16,.39-2.15,.85-3.99,1.84-1.8,.97-2.34,1.29-3.78,2.2-.26,.16-.6,.38-.77,.47-.5,.3-.84,.54-.92,.65-.17,.24-.09,.59,.18,.79,.31,.23,.8,.44,1.71,.71,.67,.2,.96,.28,1.5,.39,.22,.05,.74,.17,1.16,.27,.76,.18,1.73,.38,2.55,.52,.24,.04,.43,.08,.43,.09s-.12,.09-.26,.17c-.55,.32-.89,.57-1.71,1.26-.26,.22-.69,.57-.96,.79-1.16,.93-1.68,1.43-2.97,2.85-1.7,1.86-1.85,2.07-2.96,3.83-.69,1.1-.9,1.49-.98,1.82-.13,.5,.2,.91,.86,1.08,.59,.15,1.09,.21,2.23,.22,1.7,.02,2.7-.05,4.82-.35,.35-.05,.66-.09,.69-.09s-.14,.18-.39,.42c-.65,.64-.88,.93-1.69,2.23-.72,1.16-.88,1.44-1.45,2.64-.61,1.28-.87,1.88-1.35,3.17-.53,1.42-1.1,3.35-1.29,4.41-.18,1-.23,1.6-.18,2.06,.06,.51,.22,.76,.6,.92,.15,.06,.2,.07,.51,.07,.3,0,.39-.01,.69-.09,1.06-.27,2.24-.66,3.1-1.05,.12-.06,.23-.1,.24-.09,0,0-.09,.16-.2,.34-.48,.74-.62,1.01-1.19,2.32-.59,1.36-.78,1.86-.98,2.66-.19,.73-.26,1.28-.26,2.05,0,.63,.05,.98,.18,1.37,.28,.84,.83,1.45,1.42,1.57,.21,.04,.66,.02,.92-.06,.77-.21,1.7-.7,2.65-1.41,1.38-1.02,2.48-2.12,3.68-3.68,.61-.8,1.82-2.49,2.27-3.18,.46-.7,.98-1.37,1.14-1.46,.05-.02,.15-.06,.23-.08,.16-.03,.35-.11,1.03-.43,.24-.11,.61-.27,.83-.36,.22-.09,.54-.23,.72-.31,.17-.08,.5-.23,.73-.32,.74-.31,1.39-.65,2.17-1.14,.5-.31,.7-.47,1-.78,.27-.28,.4-.48,.4-.65,0-.13-.03-.19-.14-.25-.07-.04-.15-.04-.59-.03-.55,.02-1.02,.08-1.45,.19-.62,.16-1.88,.74-2.32,1.05-.42,.3-1.07,.88-2.13,1.89-.26,.24-.49,.45-.51,.45-.07,0-.18-.17-.23-.35-.07-.23-.09-.62-.05-1.23,.05-.87,.14-1.46,.35-2.29,.31-1.27,.8-2.72,1.34-3.94,.43-.98,1.29-2.63,1.82-3.46l.2-.32,.26-.03c.78-.09,1.42-.4,2.08-1.01,.24-.22,.7-.76,.91-1.08,.41-.62,.75-1.47,.79-1.98,.01-.2,.01-.22-.06-.3-.1-.12-.24-.12-.45,.01-.22,.13-.35,.24-.74,.62-.64,.63-1.42,1.52-2.07,2.37-.19,.26-.37,.48-.39,.49-.02,.01-.13,.02-.25,.01-.19,0-.22-.02-.36-.11-.29-.2-.45-.49-.54-.99-.06-.33-.07-1.79-.01-2.29,.19-1.83,.73-3.75,1.78-6.27,.2-.48,.21-.51,.33-.59,.52-.36,1.26-1.06,1.8-1.72,1.09-1.32,1.72-2.36,2.34-3.92,.14-.35,.27-.69,.28-.77,.03-.13,.03-.15-.02-.21-.08-.1-.19-.1-.35,0-.24,.15-1.2,1.18-1.99,2.13-.99,1.19-1.67,2.23-2.44,3.72-.3,.57-.31,.59-.4,.61-.19,.04-.38-.13-.51-.46-.15-.37-.17-.56-.15-1.84,.02-1.24,.04-1.57,.18-2.25,.3-1.48,.84-2.66,1.95-4.23,.86-1.22,1.54-1.94,2.85-2.98,.57-.46,1.61-1.2,1.67-1.2,.01,0,.07,.02,.13,.05,.2,.1,.48,.07,2.5-.24,.43-.07,.99-.19,1.24-.28,.65-.22,.96-.54,.96-.97,0-.41-.27-.64-.83-.72-.64-.09-1.76,.18-2.72,.67-.09,.04-.19,.09-.22,.1-.06,.02-.06,.02-.04-.02,.11-.21,1.15-1.32,1.68-1.81,1.37-1.25,2.46-1.91,3.9-2.39,.69-.23,1.18-.31,1.85-.31,.8,0,1.13,.11,1.55,.53,.15,.15,.22,.24,.32,.44,.2,.41,.24,.59,.24,1.2,0,.64-.03,.84-.29,1.88-.24,.94-.3,1.13-.63,1.97-.14,.36-.35,.89-.45,1.16-.1,.27-.33,.86-.51,1.3-1.08,2.7-1.7,4.63-2.12,6.6-.23,1.1-.42,2.61-.51,4.07-.11,1.91-.11,1.73,.02,3.51,.11,1.58,.16,1.95,.39,2.97,.14,.62,.44,1.82,.58,2.3,.3,1.02,.75,2.04,1.35,3.09,.69,1.2,1.1,1.73,2.24,2.91,.82,.84,.97,.98,1.35,1.22,.13,.08,.35,.23,.49,.34,.15,.11,.42,.29,.6,.4,.19,.11,.34,.21,.34,.23,0,.06-.37,.37-.71,.58-.55,.35-1.13,.67-2.24,1.22-1.11,.55-1.34,.7-1.46,.91-.16,.27-.06,.45,.31,.59,.11,.04,.26,.09,.32,.11,.2,.05,1.06,.13,1.37,.14,.16,0,.4,.01,.53,.02l.24,.02-.15,.1c-.25,.17-1.7,1.26-2.2,1.66-.62,.5-1.1,.92-1.33,1.17-.32,.35-.77,.94-.87,1.13-.15,.3-.12,.51,.1,.64,.52,.3,1.6,.15,4.02-.56,.26-.08,.55-.15,.63-.17,.08-.02,.27-.07,.42-.11,.29-.08,.62-.1,.66-.05,.02,.03-.02,.1-.38,.53-.39,.47-1.21,1.51-1.42,1.8-.34,.45-.65,1.01-.77,1.37-.11,.32-.06,.66,.12,.8,.04,.03,.06,.06,.06,.08-.01,.05-1.33,1.41-1.99,2.08-2.77,2.76-5.37,4.8-7.9,6.19-.5,.27-1.75,.89-2.32,1.14-1.27,.56-2.68,1.05-4.3,1.49-1.81,.5-4.41,1-6.36,1.23-.31,.04-.79,.1-1.05,.13-1.01,.14-2.59,.28-3.75,.33-.34,.01-.67,.03-.73,.04-.31,.04-2.08,0-3.76-.07-.74-.03-1.03-.02-1.62,.08-.46,.08-1.02,.23-1.47,.41-.11,.04-.21,.07-.22,.06,0,0,.11-.25,.25-.55,.68-1.36,1.02-2.11,1.7-3.76,.67-1.61,.87-2.3,.9-3,.02-.39-.01-.59-.14-.86-.35-.73-1.24-.95-2.33-.57-.34,.12-.55,.22-.89,.45-.69,.46-1.53,1.24-2.17,2.02-.33,.41-.54,.69-1.35,1.9-.41,.61-.83,1.22-.92,1.35-.79,1.11-2.07,2.54-2.89,3.23-.56,.47-1.51,1.13-2.09,1.47-.92,.52-2.76,1.3-4.77,2.01-1.39,.49-1.85,.68-3.71,1.5-1.62,.72-2.35,1.08-3.41,1.69-1.98,1.14-3.68,2.42-5.19,3.94-1.26,1.26-2.09,2.3-2.89,3.63-.77,1.28-1.16,2.21-1.51,3.59-.34,1.32-.49,2.51-.64,4.9-.09,1.39-.27,3.6-.38,4.54-.23,2.05-.85,4.99-1.54,7.29-.83,2.76-2.1,5.44-3.5,7.37-.25,.34-.74,.96-.97,1.21l-.15,.17h.13c.15,.02,.15,.02,.48-.38,.61-.72,1.15-1.5,1.74-2.48,.67-1.12,1.11-2,1.69-3.42,.71-1.72,.96-2.51,1.5-4.67,.69-2.77,1.01-5.06,1.29-9.48,.05-.8,.1-1.61,.12-1.8,.17-2.18,.54-3.92,1.11-5.25,.56-1.32,1.62-2.92,2.77-4.2,1.21-1.35,2.78-2.66,4.58-3.81,1.74-1.12,2.97-1.77,4.42-2.35,1.81-.72,2.88-1.11,4.15-1.49,2.16-.65,3.98-1.3,4.92-1.78,.81-.4,1.91-1.14,2.62-1.75,.52-.45,1.43-1.41,2.07-2.18,.47-.56,.72-.92,1.71-2.4,1.2-1.79,1.61-2.29,2.51-3.09,.92-.82,1.49-1.12,2.12-1.13,.39,0,.63,.13,.73,.4,.11,.33-.05,1.34-.34,2.16-.18,.5-.92,2.34-1.14,2.82-.12,.27-.36,.82-.54,1.22-.41,.93-.84,1.87-.88,1.91-.02,.02-.32,.18-.68,.36-1.04,.53-1.71,.93-2.72,1.6-1.37,.93-2.33,1.65-3.95,3.01l-.83,.69-.11-.02c-1.26-.2-2.42-.37-3.16-.45-.91-.1-2.17,0-3.53,.27-1.03,.21-1.7,.5-2.73,1.19-.8,.53-1.17,.87-1.52,1.34-.99,1.33-.38,2.69,1.35,3.02,1.07,.21,1.86,.12,3.17-.35,1-.36,1.84-.76,2.78-1.32,1-.6,1.5-.96,2.72-1.91,.3-.24,.81-.63,1.13-.87l.58-.44,.24,.02c.13,.01,.55,.02,.92,.02,.71,0,1.09-.04,1.76-.18,1.15-.23,1.94-.73,2.69-1.7,.63-.81,.91-1.27,1.97-3.27,.08-.15,.17-.3,.2-.32,.07-.06,.8-.39,1.25-.55,.43-.16,.92-.3,1.23-.35,.3-.05,.88-.04,1.47,.02,.28,.03,.72,.07,.96,.09,.58,.04,2.03,.04,2.43,0,.18-.02,.54-.04,.81-.06,1.67-.1,2.78-.2,4.54-.44,3.31-.44,6.43-1.12,8.85-1.93,1.37-.46,2.77-1.08,4.02-1.8,1.21-.69,2.61-1.62,3.34-2.21,1.47-1.18,1.96-1.6,2.79-2.39,.32-.31,.85-.8,1.17-1.1,.57-.54,2-2.01,3.09-3.18q.24-.26,.37-.26c.31,0,1.26-.41,1.8-.77,.35-.24,1.02-.77,1.42-1.12,.31-.27,1.01-1.02,1.3-1.39,.2-.25,.34-.53,.36-.73,.01-.14,.01-.15-.07-.23-.07-.07-.1-.08-.19-.07-.13,.02-.53,.21-.79,.38-.7,.46-1.32,1-2.48,2.18-.69,.69-1.02,1.01-1.06,1.01-.08,0-.07-.03,.05-.28,.13-.27,.44-.74,.81-1.24,.45-.6,.91-1.32,1.1-1.7,.27-.55,.26-.72-.07-.89-.14-.07-.16-.08-.37-.06-.17,.01-.29,.04-.49,.11-.34,.13-.49,.18-1.45,.47-1.31,.4-2.08,.58-2.7,.62-.43,.03-.77-.06-.85-.23-.07-.14,.02-.24,.49-.6,.23-.17,.56-.43,.75-.58,.18-.15,.48-.38,.67-.52,.18-.14,.52-.39,.75-.57,.23-.18,.67-.51,.98-.73,.92-.66,1.49-1.17,1.61-1.42,.06-.13,.06-.29,0-.37-.03-.04-.1-.09-.17-.12-.1-.04-.24-.05-1.46-.07-.86-.01-1.39-.03-1.46-.05-.13-.03-.27-.1-.27-.13,0-.06,.14-.2,.3-.32,.23-.17,.43-.27,.82-.42,.29-.11,.71-.3,1.68-.75,.71-.33,1.4-.75,1.55-.94,.03-.03,.08-.13,.12-.2l.07-.14,.28,.12c.54,.23,1.12,.33,1.56,.27,.6-.07,1.02-.24,1.89-.77,.7-.42,.91-.52,1.45-.71,.64-.22,1.15-.35,1.77-.43,.8-.1,1.38-.08,1.72,.08,.38,.18,.82,.57,1.09,.98,.11,.17,.18,.24,.28,.31,.24,.15,.69,.28,1.33,.36,.95,.13,1.49,.31,2.03,.66,.55,.36,.87,.68,1.25,1.24,.21,.31,.53,.9,.51,.92-.01,0-.12-.02-.24-.07-.32-.12-.63-.21-.98-.27-.39-.07-1.33-.08-1.89-.02-.35,.04-1.28,.06-1.31,.02,0,0,0-.1,.03-.21,.06-.27,.06-.8,0-1.04-.06-.23-.2-.51-.35-.71-.37-.5-.93-.36-1.26,.31-.2,.41-.2,.75-.02,1.14,.14,.29,.46,.57,.8,.7,.08,.03,.15,.07,.15,.08,0,.01-.1,.12-.22,.23-.36,.36-.71,.56-1.46,.85-.56,.22-.55,.22-1.25,.4-.28,.07-.64,.18-.8,.23-.3,.1-.91,.41-1.13,.56-.47,.33-.96,.98-1.13,1.49-.09,.27-.1,.35-.03,.43,.04,.05,.06,.06,.11,.02,.06-.04,.1-.11,.14-.3,.05-.21,.25-.6,.43-.82,.31-.38,.85-.77,1.2-.86,.1-.02,.36-.1,.6-.18,.23-.07,.58-.17,.77-.22,.98-.26,1.18-.31,1.55-.45,.22-.08,.48-.19,.58-.24,.39-.22,.74-.52,1.01-.89,.06-.08,.12-.15,.13-.17,.01,0,.12,0,.24,.01,.25,.03,.69,.01,1.42-.05,.59-.05,1.19-.04,1.52,.03,.85,.18,1.4,.5,1.84,1.06,.21,.27,.36,.41,.46,.44,.21,.06,.41-.06,.47-.28,.04-.14-.01-.31-.27-.92-.68-1.61-1.36-2.42-2.5-2.99-.64-.32-.88-.38-2.31-.52-1.06-.11-1.04-.1-1.33-.49-.11-.15-.25-.34-.29-.42-.1-.17-.43-.48-.59-.57-.19-.11-.58-.26-.8-.3-.76-.16-1.89,0-3.32,.47-.4,.13-.83,.28-.94,.33-.11,.05-.42,.16-.68,.24-.26,.08-.59,.2-.74,.25-.67,.25-1.22,.31-1.72,.18-.32-.09-.5-.17-1.24-.63-.86-.53-1.57-1.01-1.76-1.18-.18-.17-.51-.59-.71-.91-.35-.57-.7-1.6-.91-2.63-.21-1.02-.3-2.52-.27-4.43,.02-1.72,.03-1.76,.35-3.92,.22-1.47,.3-1.88,.51-2.79,.08-.34,.22-.96,.32-1.37,.09-.41,.41-1.68,.7-2.83,.59-2.32,.71-2.84,.89-3.74,.11-.6,.33-1.86,.5-2.91,.42-2.68,.61-7.29,.41-9.96-.19-2.58-.42-4.24-.85-6.15-.68-2.97-1.78-5.71-3.52-8.72-1.71-2.97-3.59-5.16-5.95-6.94-1.65-1.24-3.07-1.92-4.02-1.91-.15,0-.3,.01-.34,.02h0Zm.55,.73c.84,.25,1.81,.79,3.05,1.68,1.94,1.41,3.64,3.21,5.11,5.42,1.2,1.8,2.37,4.01,3.16,6,1.28,3.18,2.09,6.87,2.38,10.85,.05,.67,.04,3.19-.01,4.67-.1,2.53-.15,3.06-.52,5.31-.26,1.58-.41,2.27-.91,4.29-.84,3.41-.97,4.02-1.51,6.73-.42,2.12-.55,2.85-.72,4.21-.19,1.49-.25,2.48-.23,3.72,.01,.97,.05,1.37,.17,2.05,.06,.32,.26,1.2,.32,1.41,.03,.09-.17-.16-.41-.51-.75-1.11-1.38-2.54-1.73-3.95-.35-1.39-.63-2.83-.69-3.55-.04-.5-.13-2.36-.13-2.74,0-.34,.08-1.8,.13-2.46,.03-.39,.19-1.76,.26-2.21,.25-1.76,.97-4.22,2.18-7.51,.27-.72,.71-1.99,1.12-3.19,.34-.98,.58-2.1,.65-2.92,.03-.4,0-1.02-.08-1.4-.09-.44-.43-1.05-.76-1.35-.44-.4-1.14-.58-2.01-.51-.67,.05-1.07,.16-1.89,.48-.64,.26-1.12,.51-1.68,.88-1.03,.68-1.67,1.19-2.68,2.13-.58,.54-.9,.88-1.31,1.39-.41,.5-.46,.55-.72,.71-1.37,.83-3.01,2.18-3.85,3.19-.88,1.05-1.91,2.72-2.42,3.93-.39,.93-.68,2.05-.78,3.05-.04,.44-.06,2.24-.03,2.51,.08,.64,.3,1.11,.63,1.35,.08,.06,.2,.12,.28,.14,.07,.02,.13,.04,.13,.04,0,0-.09,.22-.2,.47-1.03,2.32-1.58,4.21-1.79,6.18-.06,.54-.06,1.91-.01,2.25,.13,.87,.48,1.43,1.07,1.74,.1,.05,.21,.1,.25,.11,.04,0,.07,.03,.07,.05s-.1,.19-.22,.39c-1.12,1.8-2.2,4.38-2.87,6.87-.3,1.09-.4,1.67-.5,2.83-.09,1.04-.06,1.38,.11,1.68l.08,.15-.2,.22c-.42,.47-1.12,1.35-2.03,2.53-1.89,2.48-2.77,3.51-3.67,4.3-.69,.6-1.68,1.34-2.23,1.68-.5,.3-1.14,.6-1.53,.7-.26,.07-.54,.06-.69-.01-.27-.14-.48-.41-.7-.87-.26-.54-.34-1.06-.29-1.9,.06-1.14,.25-1.91,.81-3.33,.49-1.23,.92-2.07,1.57-3.07,.23-.36,.49-.71,.55-.76,.02-.02,.19-.11,.36-.2,.73-.37,2.35-1.35,3.01-1.81,.56-.39,1.59-1.24,2.05-1.67,.42-.4,.71-.84,.72-1.09,0-.1-.01-.13-.09-.2-.17-.15-.39-.09-1.27,.36-.26,.14-.61,.33-.78,.43-.36,.22-1.38,.93-1.83,1.28-.37,.29-1.04,.93-1.78,1.72l-.53,.57-.3,.14c-1,.47-3.09,1.2-3.97,1.38-.3,.06-.63,.06-.74,0-.13-.07-.15-.16-.16-.69-.01-.48,.02-.94,.09-1.4,.14-.9,.56-2.53,.93-3.63,.21-.63,.72-2.07,.88-2.45,.32-.81,1.13-2.57,1.42-3.06,.18-.31,1.21-1.93,1.4-2.2,.29-.4,.47-.62,.92-1.07,.44-.44,.91-.82,1.07-.87,.05-.01,.32-.07,.61-.12,.91-.17,2.07-.44,2.56-.6,.26-.09,.47-.2,.59-.34,.28-.31,0-.58-.53-.53-.79,.08-1.66,.31-2.37,.63-.5,.22-.63,.26-1.08,.35-2.64,.48-5.95,.7-7.57,.52-.67-.08-1.17-.23-1.21-.36-.05-.17,.28-.81,1.11-2.13,.86-1.38,.83-1.33,2.52-3.24,1.37-1.54,1.65-1.81,2.97-2.89,.37-.3,.87-.72,1.13-.94,.77-.66,1.17-.94,1.97-1.39l.39-.21h2.32l.59-.09c1.27-.19,1.86-.31,2.12-.45,.17-.09,.25-.22,.25-.37,0-.23-.27-.41-.79-.53-.44-.1-1.27-.1-1.89,0-.63,.1-1.44,.35-2.03,.6-.17,.07-.35,.15-.39,.16-.23,.07-2.39-.3-4.08-.71-.34-.08-.89-.21-1.22-.28-.64-.14-1.39-.35-1.84-.52-.3-.11-.75-.31-.77-.35-.02-.03,.93-.68,1.92-1.3,.94-.59,1.26-.79,2.29-1.36,.45-.25,1.07-.6,1.38-.78,1.75-.99,4.01-1.97,4.55-1.97,.07,0,.44,.05,.81,.12,1.24,.22,2.35,.33,3.33,.34,.36,0,.44,0,.61-.06,.44-.14,.56-.46,.27-.67-.13-.09-.51-.22-.86-.29-.44-.09-.92-.12-1.74-.12s-1.08,.02-1.94,.15c-.19,.03-.41,.05-.47,.05-.25,0-1.19-.27-2.62-.74-1.77-.59-3.23-1.21-4.32-1.82-.25-.14-.26-.18-.04-.18,.07,0,.22-.01,.33-.03,.32-.04,2.73-.28,3.73-.37,.48-.05,1.36-.14,1.95-.2,1.06-.12,1.49-.15,2.9-.2,1.86-.07,2.5-.08,3.16-.07h.7l.43,.19c.23,.1,.56,.23,.73,.28,.38,.13,1.14,.32,1.32,.32,.11,0,.14,0,.2-.08,.15-.16,.08-.32-.19-.5-.37-.24-.95-.44-1.57-.55-.86-.15-.81-.14-1.68-.6-.8-.43-1.69-1-2.43-1.54-.2-.15-.85-.66-1.44-1.13-.59-.47-1.23-.98-1.44-1.14-.47-.37-.88-.73-1.37-1.2-.21-.2-.62-.58-.9-.85-.51-.47-.86-.85-1.16-1.25-.15-.21-.26-.39-.26-.44,0-.06,.12-.05,.43,.02,.18,.04,.6,.13,.94,.19,1,.18,4.29,.84,5.03,1.01,1.36,.32,2.16,.55,3.89,1.1,1.26,.41,1.79,.62,1.91,.75,.02,.03,.15,.23,.29,.45,.58,.94,1.6,2.37,2.13,3,.38,.45,.64,.63,.91,.63,.19,0,.31-.06,.41-.2,.07-.1,.08-.14,.09-.34,.03-.61-.4-1.48-1.24-2.47-.55-.65-1.36-1.29-2.31-1.8l-.29-.16-.16-.26c-.47-.78-1.24-2.25-1.91-3.62-.83-1.69-2.23-4.86-3.07-6.91-.11-.27-.33-.8-.5-1.17-.36-.84-.45-1.06-.78-1.95-.34-.92-.47-1.31-.45-1.33,0,0,.12,.03,.24,.09,.3,.14,1.11,.5,1.82,.8,.96,.41,2.19,1.03,2.99,1.52,1.02,.62,2.86,1.96,2.97,2.17,.03,.06,.15,.33,.27,.61,1.06,2.47,2.14,4.67,3.06,6.23,.49,.84,.7,1.14,2.03,2.91,.27,.36,.54,.64,.7,.72,.2,.1,.42,.06,.51-.09,.1-.18,.08-.35-.11-1.1-.42-1.71-.97-2.97-2.15-5-.59-1.01-.89-1.46-1.55-2.32-.76-.99-1.32-1.61-2-2.22-.56-.5-.52-.46-.75-.92-.23-.47-.34-.78-.5-1.37-.1-.37-.1-.4-.1-.79,0-.63,.14-1.31,.53-2.79,.27-1.02,.7-2.35,.85-2.64,.13-.25,.46-.61,.66-.72,.13-.07,.16-.08,.4-.08s.26,0,.48,.11c.12,.06,.33,.2,.45,.3,.31,.25,.87,.79,1.01,.97,.11,.15,1,2.05,1.49,3.2,.21,.5,.72,1.79,.99,2.5,.44,1.18,1.1,3.35,1.47,4.88,.2,.84,1.08,4.67,1.17,5.11,.16,.79,.28,1.17,.43,1.35,.09,.11,.27,.18,.4,.16,.22-.04,.46-.4,.64-.97,.17-.49,.18-.61,.18-1.71,0-1.59-.09-2.31-.51-3.98-.21-.85-.4-1.47-.68-2.27-.5-1.41-.91-2.35-1.64-3.82-.72-1.43-1.1-2.08-1.72-2.96-.6-.84-1.48-1.91-2.01-2.44-.2-.2-.37-.39-.39-.43-.06-.11-.3-.77-.37-1.02-.09-.31-.14-.71-.1-.8,.03-.06,.04-.07,.14-.05,.06,.01,.23,.06,.38,.1h0Zm1.4,4.71c.69,.92,1.14,1.65,1.92,3.15,1.42,2.72,2.53,5.87,2.85,8.13,.12,.82,.14,1.08,.14,1.87,0,.85-.02,1.01-.18,1.49-.1,.31-.15,.4-.18,.37-.05-.05-.24-.52-.39-.98-.1-.31-.24-.81-.39-1.47-.13-.55-.33-1.41-.45-1.92-.12-.51-.31-1.3-.41-1.76-.33-1.45-.47-1.98-.86-3.2-.14-.43-.34-1.07-.46-1.42-.23-.73-.44-1.27-.76-1.98-.12-.27-.36-.83-.55-1.25-.18-.42-.38-.88-.45-1.02-.22-.46-.23-.51-.18-.46,.02,.02,.19,.22,.36,.46h0Zm-3.46,8.1c.49,.55,1.27,1.54,1.68,2.13,.42,.6,1.13,1.81,1.56,2.64,.25,.48,.59,1.22,.8,1.73,.26,.63,.59,1.74,.57,1.87-.02,.1-1.2-1.38-1.68-2.12-.43-.65-1.24-2.03-1.74-2.98-.38-.73-1.87-3.87-1.87-3.96,0-.04,.36,.31,.69,.68h0Zm-1.76,10.6c.59,.36,1.39,1.06,1.77,1.56,.2,.26,.4,.59,.5,.84,.07,.16,.09,.26,.1,.42,0,.12,0,.23-.01,.25-.07,.1-.39-.1-.71-.46-.46-.51-.79-.97-1.46-2.04-.39-.63-.43-.69-.4-.69,.01,0,.11,.06,.22,.12h0Zm8.63,5.54c.07,.07,.04,.13-.14,.28-.3,.22-.81,.39-1.58,.5-.19,.03-.53,.1-.75,.15-.54,.13-1.23,.26-1.26,.25-.06-.02,.88-.52,1.43-.75,.83-.36,1.35-.49,1.91-.48,.31,0,.35,.01,.4,.06h0Zm-13.63,3.22c.28,.05,.55,.13,.6,.18,.08,.08-.14,.11-.82,.11-.73,0-1.44-.06-2.61-.23-.18-.03-.14-.06,.09-.08,.11,0,.23-.02,.26-.03,.03,0,.54,0,1.13,0,.87,0,1.13,.02,1.36,.05h0Zm8.27,5.42c-.1,.23-.76,1.48-.97,1.85-.32,.57-.82,1.29-1.29,1.89-.36,.46-1.47,1.52-1.5,1.43-.01-.04,.44-.93,.69-1.36,.25-.44,.69-1.1,1.01-1.53,.32-.44,.65-.83,1.43-1.71,.34-.38,.64-.73,.66-.77,.09-.11,.08-.02-.02,.21h0Zm-10.43,1.73c.08,.02,.14,.04,.13,.04-.02,.02-.86,.16-1.4,.23-.87,.12-1.87,.19-1.79,.13,.09-.09,1.25-.37,1.74-.43,.28-.03,1.14-.02,1.33,.02h0Zm8.82,11.23c0,.13-.49,1.02-.76,1.39-.21,.28-1.01,1.07-1.3,1.28-.35,.25-1.03,.56-.93,.43,.67-.89,1.13-1.43,1.85-2.16,.49-.5,1.03-.97,1.13-.97,.01,0,.02,.02,.02,.05h0Zm26.59,10.97c.12,.09,.21,.24,.3,.49,.08,.22,.08,.23,.06,.62-.01,.37-.02,.41-.1,.58-.05,.1-.1,.18-.11,.18-.06,0-.46-.18-.58-.26-.33-.23-.46-.68-.32-1.14,.05-.16,.08-.21,.24-.36,.23-.23,.32-.24,.5-.11h0Zm-36.73-.02s-.19,.21-.47,.43c-.13,.11-.42,.35-.63,.54-.64,.56-1.06,.89-1.45,1.15-.58,.38-1.98,1.2-2,1.17-.02-.02,.53-.6,.86-.91,.49-.47,1.4-1.17,2-1.54,.41-.25,1.22-.7,1.43-.78,.2-.08,.26-.1,.26-.06h0Zm9.81,1.58c-.09,.15-.26,.31-.74,.68-.34,.26-1.74,1.04-2.4,1.33-.22,.1-.64,.29-.93,.42-.67,.31-1.78,.79-1.99,.86-.1,.03-.05-.1,.09-.24,.27-.28,1.26-1.22,1.51-1.43,.37-.31,1.07-.76,1.5-.98,.26-.13,.52-.23,.85-.33,.63-.19,.75-.22,1.24-.26,.23-.02,.47-.04,.53-.05,.2-.03,.35-.03,.33,0h0Zm18.73,5.53c-.02,.2-.85,1.06-1.53,1.58-.98,.76-1.47,1.08-2.02,1.36-.14,.07-.26,.12-.26,.11-.02-.02,1.16-1.2,1.58-1.57,.58-.5,1.25-1.05,1.54-1.24,.25-.16,.61-.33,.67-.31,.02,0,.02,.04,.02,.07h0Zm-41.94,18.98c-.3,.59-.68,1.22-1.15,1.92-.91,1.35-1.55,1.83-2.84,2.15-.66,.17-1.29,.24-1.96,.22h-.42l.66-.54c1.93-1.56,3.55-2.77,4.63-3.44,.57-.35,1.24-.73,1.25-.69,0,.01-.07,.18-.17,.38h0Zm-10.97,4.03c.52,.03,1,.08,1.99,.24,1.18,.18,1.11,.17,1.11,.2,0,.01-.2,.18-.44,.38-.25,.2-.71,.58-1.03,.84-.75,.63-1.04,.84-1.94,1.47-.94,.66-1.37,.93-1.94,1.22-1.22,.62-2.23,.9-3.28,.9-.83,0-1.46-.2-1.85-.59-.65-.64-.51-1.52,.38-2.4,.48-.48,1.24-1.01,1.86-1.32,1.22-.6,2.38-.88,3.95-.96,.38-.02,.52-.02,1.19,.01h0Z"></path><rect class="cls-5" width="158.35" height="45.04"></rect><rect class="cls-5" y="61.74" width="158.35" height="45.04"></rect><rect class="cls-5" y="130.02" width="158.35" height="45.04"></rect><rect class="cls-5" y="198.31" width="158.35" height="45.04"></rect><rect class="cls-5" y="359.56" width="158.35" height="45.04"></rect><rect class="cls-5" y="542.62" width="158.35" height="45.04"></rect><rect class="cls-5" y="612.35" width="158.35" height="45.04"></rect><rect class="cls-5" y="691.53" width="158.35" height="45.04"></rect><line class="cls-4" x1="82.81" y1="279.66" x2="150.36" y2="279.66"></line><circle class="cls-9" cx="78.45" cy="279.66" r="3.63"></circle><line class="cls-4" x1="82.81" y1="507.02" x2="150.36" y2="507.02"></line><circle class="cls-9" cx="78.45" cy="507.02" r="3.63"></circle><polygon class="cls-8" points="78.98 750 75.63 744.19 72.27 738.38 78.98 738.38 85.69 738.38 82.34 744.19 78.98 750"></polygon><g><path class="cls-8" d="M58.49,13.32h1.92v15.06h-1.92V13.32Z"></path><path class="cls-8" d="M68.92,17.73c.31,.21,.65,.56,1.04,1.08v-5.55h1.66v15.12h-1.55v-1.53c-.4,.68-.88,1.17-1.43,1.47s-1.18,.45-1.88,.45c-1.14,0-2.13-.51-2.96-1.54-.84-1.03-1.25-2.4-1.25-4.11,0-1.6,.38-2.99,1.14-4.16,.76-1.17,1.85-1.76,3.27-1.76,.79,0,1.44,.18,1.97,.53Zm-3.86,8.23c.47,.79,1.21,1.19,2.24,1.19,.8,0,1.45-.37,1.97-1.1,.51-.74,.77-1.79,.77-3.16s-.26-2.41-.79-3.08c-.53-.67-1.18-1-1.96-1-.87,0-1.57,.36-2.11,1.07s-.81,1.76-.81,3.14c0,1.18,.23,2.16,.7,2.95Z"></path><path class="cls-8" d="M80.55,17.7c.68,.37,1.2,.84,1.56,1.42,.34,.55,.57,1.2,.69,1.94,.1,.51,.15,1.31,.15,2.42h-7.51c.03,1.12,.28,2.01,.74,2.68,.46,.67,1.17,1.01,2.13,1.01,.9,0,1.62-.32,2.15-.95,.31-.37,.52-.8,.65-1.28h1.69c-.04,.4-.19,.85-.44,1.35-.25,.5-.53,.9-.85,1.21-.52,.55-1.17,.92-1.94,1.11-.42,.11-.88,.16-1.41,.16-1.28,0-2.36-.5-3.24-1.49-.89-.99-1.33-2.39-1.33-4.18s.45-3.2,1.34-4.3c.89-1.1,2.06-1.65,3.5-1.65,.73,0,1.43,.18,2.11,.55Zm.63,4.31c-.07-.8-.23-1.44-.49-1.92-.47-.89-1.26-1.33-2.36-1.33-.79,0-1.45,.31-1.99,.92-.54,.61-.82,1.39-.85,2.33h5.69Z"></path><path class="cls-8" d="M90.55,21.72c.39-.05,.66-.23,.79-.53,.08-.16,.12-.4,.12-.71,0-.63-.21-1.08-.63-1.37-.42-.28-1.02-.42-1.79-.42-.9,0-1.54,.26-1.91,.78-.21,.29-.35,.71-.41,1.28h-1.61c.03-1.35,.44-2.29,1.23-2.83,.79-.53,1.7-.79,2.74-.79,1.21,0,2.18,.25,2.94,.74,.75,.49,1.12,1.26,1.12,2.3v6.33c0,.19,.04,.34,.11,.46s.23,.17,.46,.17c.08,0,.16,0,.26-.02,.1,0,.2-.03,.31-.04v1.36c-.27,.08-.47,.13-.61,.15-.14,.02-.33,.03-.57,.03-.59,0-1.02-.23-1.29-.68-.14-.24-.24-.58-.3-1.02-.35,.49-.86,.92-1.51,1.28-.66,.36-1.38,.54-2.17,.54-.95,0-1.73-.31-2.33-.93-.6-.62-.9-1.39-.9-2.32,0-1.02,.3-1.81,.89-2.37,.59-.56,1.37-.91,2.33-1.04l2.75-.37Zm-3.63,4.99c.36,.31,.79,.46,1.29,.46,.61,0,1.19-.15,1.76-.45,.96-.5,1.43-1.32,1.43-2.45v-1.49c-.21,.14-.48,.26-.81,.36-.33,.1-.66,.16-.97,.21l-1.04,.14c-.62,.09-1.09,.23-1.41,.42-.53,.32-.79,.83-.79,1.54,0,.53,.18,.95,.55,1.26Z"></path></g><g><path class="cls-8" d="M27.82,72.83h6.04c1.64,0,2.82,.53,3.51,1.58,.41,.62,.61,1.34,.61,2.15,0,.95-.25,1.73-.76,2.34-.26,.32-.64,.62-1.13,.88,.72,.29,1.26,.63,1.62,1,.63,.66,.95,1.56,.95,2.72,0,.97-.28,1.85-.85,2.64-.85,1.18-2.2,1.76-4.05,1.76h-5.94v-15.06Zm5.33,6.37c.8,0,1.43-.12,1.88-.36,.7-.38,1.05-1.05,1.05-2.03s-.37-1.65-1.12-1.99c-.42-.19-1.05-.29-1.88-.29h-3.4v4.67h3.46Zm.64,6.95c1.17,0,2-.36,2.5-1.09,.31-.46,.47-1.01,.47-1.66,0-1.09-.46-1.84-1.37-2.24-.49-.21-1.13-.32-1.92-.32h-3.78v5.3h4.1Z"></path><path class="cls-8" d="M47.08,77.21c.68,.37,1.2,.84,1.56,1.42,.34,.55,.57,1.2,.69,1.94,.1,.51,.15,1.31,.15,2.42h-7.51c.03,1.11,.28,2.01,.74,2.68,.46,.67,1.17,1.01,2.13,1.01,.9,0,1.62-.32,2.15-.95,.31-.37,.52-.8,.65-1.28h1.69c-.04,.4-.19,.85-.45,1.35-.25,.5-.53,.9-.85,1.21-.52,.55-1.17,.92-1.94,1.11-.41,.11-.88,.16-1.41,.16-1.28,0-2.36-.5-3.24-1.49-.89-.99-1.33-2.39-1.33-4.18s.45-3.2,1.34-4.3c.89-1.1,2.06-1.65,3.5-1.65,.73,0,1.43,.18,2.12,.55Zm.63,4.31c-.07-.8-.23-1.44-.49-1.92-.47-.89-1.26-1.33-2.36-1.33-.79,0-1.45,.31-1.99,.92-.54,.61-.82,1.39-.85,2.33h5.69Z"></path><path class="cls-8" d="M51.6,76.91h1.64v1.56c.48-.64,1-1.1,1.54-1.38,.54-.28,1.14-.42,1.81-.42,1.45,0,2.44,.54,2.95,1.63,.28,.59,.42,1.45,.42,2.55v7.04h-1.75v-6.92c0-.67-.09-1.21-.28-1.62-.31-.68-.86-1.03-1.66-1.03-.41,0-.74,.04-1,.13-.47,.15-.89,.45-1.24,.9-.29,.36-.47,.74-.56,1.12-.09,.39-.13,.94-.13,1.66v5.75h-1.72v-10.98Z"></path><path class="cls-8" d="M69.26,77.5c.72,.6,1.16,1.64,1.31,3.11h-1.67c-.1-.68-.33-1.24-.7-1.69-.36-.45-.95-.67-1.75-.67-1.1,0-1.88,.57-2.35,1.72-.31,.75-.46,1.67-.46,2.76s.22,2.03,.65,2.78,1.12,1.13,2.05,1.13c.71,0,1.28-.23,1.7-.7,.42-.47,.71-1.11,.87-1.92h1.67c-.19,1.46-.67,2.52-1.43,3.19-.77,.67-1.74,1.01-2.94,1.01-1.34,0-2.41-.52-3.21-1.57-.8-1.05-1.2-2.36-1.2-3.93,0-1.93,.44-3.43,1.31-4.5,.87-1.07,1.99-1.61,3.34-1.61,1.15,0,2.09,.3,2.82,.9Z"></path><path class="cls-8" d="M72.29,72.78h1.72v5.62c.41-.55,.77-.94,1.1-1.17,.55-.39,1.25-.58,2.08-.58,1.49,0,2.49,.56,3.02,1.67,.29,.61,.43,1.45,.43,2.53v7.04h-1.77v-6.92c0-.81-.1-1.4-.29-1.77-.31-.6-.9-.9-1.76-.9-.71,0-1.36,.26-1.94,.79-.58,.53-.87,1.52-.87,2.98v5.82h-1.72v-15.11Z"></path><path class="cls-8" d="M83.19,76.91h1.7v1.56c.41-.54,.78-.93,1.11-1.18,.57-.42,1.21-.63,1.93-.63,.82,0,1.47,.22,1.97,.65,.28,.25,.54,.61,.76,1.09,.38-.59,.83-1.02,1.35-1.31,.52-.28,1.1-.43,1.74-.43,1.38,0,2.32,.53,2.81,1.6,.27,.57,.4,1.35,.4,2.32v7.31h-1.79v-7.63c0-.73-.17-1.23-.51-1.51-.34-.27-.76-.41-1.25-.41-.68,0-1.26,.24-1.75,.73s-.73,1.29-.73,2.43v6.39h-1.75v-7.17c0-.75-.08-1.29-.25-1.63-.26-.51-.75-.77-1.46-.77-.65,0-1.24,.27-1.77,.81-.53,.54-.8,1.52-.8,2.93v5.82h-1.72v-10.98Z"></path><path class="cls-8" d="M105,81.24c.4-.05,.66-.23,.79-.53,.08-.16,.12-.4,.12-.71,0-.63-.21-1.08-.63-1.37-.42-.28-1.02-.43-1.79-.43-.9,0-1.54,.26-1.91,.78-.21,.29-.35,.71-.41,1.28h-1.61c.03-1.35,.44-2.29,1.23-2.83,.79-.53,1.7-.79,2.74-.79,1.21,0,2.18,.25,2.94,.74,.75,.49,1.12,1.26,1.12,2.3v6.33c0,.19,.04,.34,.11,.46,.07,.12,.23,.17,.46,.17,.08,0,.16,0,.26-.02,.1,0,.2-.03,.31-.05v1.36c-.27,.08-.47,.13-.61,.15-.14,.02-.33,.03-.57,.03-.59,0-1.02-.23-1.29-.68-.14-.24-.24-.58-.3-1.01-.35,.49-.85,.92-1.51,1.28s-1.38,.54-2.17,.54c-.95,0-1.73-.31-2.33-.93-.6-.62-.9-1.39-.9-2.32,0-1.02,.3-1.81,.89-2.37,.59-.56,1.37-.91,2.33-1.04l2.75-.37Zm-3.63,4.99c.36,.31,.79,.46,1.29,.46,.61,0,1.19-.15,1.76-.45,.96-.5,1.43-1.32,1.43-2.45v-1.49c-.21,.14-.48,.26-.81,.36s-.66,.16-.98,.21l-1.04,.14c-.62,.09-1.09,.23-1.41,.42-.53,.32-.79,.83-.79,1.54,0,.53,.18,.95,.54,1.26Z"></path><path class="cls-8" d="M110.45,76.91h1.64v1.9c.13-.37,.46-.82,.98-1.35,.52-.53,1.13-.79,1.81-.79,.03,0,.09,0,.16,.01,.08,0,.21,.02,.39,.04v1.95c-.1-.02-.2-.03-.28-.04-.09,0-.18-.01-.28-.01-.87,0-1.53,.3-2,.9-.47,.6-.7,1.29-.7,2.07v6.32h-1.72v-10.98Z"></path><path class="cls-8" d="M116.89,72.83h1.65v8.75l4.42-4.67h2.2l-3.92,4.11,4.14,6.87h-2.2l-3.19-5.54-1.45,1.42v4.12h-1.65v-15.06Z"></path></g><g><path class="cls-8" d="M11.89,141.82h2.73l4.04,12.74,4.01-12.74h2.7v15.06h-1.81v-8.89c0-.31,0-.82,.02-1.53,.01-.71,.02-1.47,.02-2.29l-4.01,12.71h-1.88l-4.04-12.71v.46c0,.37,0,.93,.02,1.69,.02,.76,.02,1.31,.02,1.67v8.89h-1.82v-15.06Z"></path><path class="cls-8" d="M33.52,150.23c.39-.05,.66-.23,.79-.53,.08-.16,.12-.4,.12-.71,0-.63-.21-1.08-.63-1.37-.42-.28-1.02-.43-1.79-.43-.9,0-1.54,.26-1.91,.78-.21,.29-.35,.71-.41,1.28h-1.61c.03-1.35,.44-2.29,1.23-2.83,.79-.53,1.7-.79,2.74-.79,1.21,0,2.18,.25,2.94,.74,.75,.49,1.12,1.26,1.12,2.3v6.33c0,.19,.04,.34,.11,.46s.23,.17,.46,.17c.08,0,.16,0,.26-.02,.1,0,.2-.03,.31-.05v1.36c-.27,.08-.47,.13-.61,.15-.14,.02-.33,.03-.57,.03-.59,0-1.02-.23-1.29-.68-.14-.24-.24-.58-.3-1.01-.35,.49-.86,.92-1.51,1.28-.66,.36-1.38,.54-2.17,.54-.95,0-1.73-.31-2.33-.93-.6-.62-.9-1.39-.9-2.32,0-1.02,.3-1.81,.89-2.37,.59-.56,1.37-.91,2.33-1.04l2.75-.37Zm-3.63,4.99c.36,.31,.79,.46,1.29,.46,.61,0,1.19-.15,1.76-.45,.96-.5,1.43-1.32,1.43-2.45v-1.49c-.21,.14-.48,.26-.81,.36-.33,.1-.66,.16-.97,.21l-1.04,.14c-.62,.09-1.09,.23-1.41,.42-.53,.32-.79,.83-.79,1.54,0,.53,.18,.95,.55,1.26Z"></path><path class="cls-8" d="M38.97,145.9h1.63v1.9c.13-.37,.46-.82,.99-1.35,.52-.53,1.12-.79,1.81-.79,.03,0,.09,0,.16,.01s.21,.02,.39,.04v1.95c-.1-.02-.2-.03-.28-.04s-.18-.01-.28-.01c-.87,0-1.54,.3-2,.9-.47,.6-.7,1.29-.7,2.07v6.32h-1.72v-10.98Z"></path><path class="cls-8" d="M45.41,141.82h1.66v8.75l4.42-4.67h2.2l-3.92,4.11,4.14,6.87h-2.2l-3.2-5.54-1.44,1.42v4.12h-1.66v-15.06Z"></path><path class="cls-8" d="M61.63,146.2c.68,.37,1.2,.84,1.56,1.42,.34,.55,.57,1.2,.69,1.94,.1,.51,.15,1.31,.15,2.42h-7.51c.03,1.11,.28,2.01,.74,2.68,.46,.67,1.17,1.01,2.13,1.01,.9,0,1.62-.32,2.15-.95,.31-.37,.52-.8,.65-1.28h1.69c-.04,.4-.19,.85-.44,1.35-.25,.5-.53,.9-.85,1.21-.52,.55-1.17,.92-1.94,1.11-.42,.11-.88,.16-1.41,.16-1.28,0-2.36-.5-3.24-1.49-.89-.99-1.33-2.39-1.33-4.18s.45-3.2,1.34-4.3,2.06-1.65,3.5-1.65c.73,0,1.43,.18,2.11,.55Zm.63,4.31c-.07-.8-.23-1.44-.49-1.92-.47-.89-1.26-1.33-2.36-1.33-.79,0-1.45,.31-1.99,.92-.54,.61-.82,1.39-.85,2.33h5.69Z"></path><path class="cls-8" d="M66.49,142.83h1.74v3.07h1.64v1.51h-1.64v7.17c0,.38,.12,.64,.36,.77,.13,.08,.36,.11,.67,.11,.08,0,.17,0,.27,0,.1,0,.21-.01,.33-.03v1.46c-.2,.06-.4,.11-.62,.13s-.44,.04-.69,.04c-.8,0-1.35-.22-1.63-.66-.29-.44-.43-1.01-.43-1.72v-7.27h-1.39v-1.51h1.39v-3.07Z"></path><path class="cls-8" d="M80.27,141.82h2.15l5.1,15.06h-2.08l-1.42-4.51h-5.56l-1.52,4.51h-1.95l5.29-15.06Zm3.13,8.89l-2.13-6.66-2.27,6.66h4.4Z"></path><path class="cls-8" d="M89.03,145.9h1.64v1.56c.48-.64,1-1.1,1.54-1.38s1.14-.42,1.81-.42c1.46,0,2.44,.54,2.95,1.63,.28,.59,.42,1.45,.42,2.55v7.04h-1.75v-6.92c0-.67-.09-1.21-.28-1.62-.31-.68-.86-1.03-1.66-1.03-.41,0-.74,.04-1.01,.13-.47,.15-.89,.45-1.24,.9-.29,.36-.47,.74-.56,1.12-.09,.39-.13,.94-.13,1.66v5.75h-1.72v-10.98Z"></path><path class="cls-8" d="M105.41,150.23c.4-.05,.66-.23,.79-.53,.08-.16,.12-.4,.12-.71,0-.63-.21-1.08-.63-1.37-.42-.28-1.02-.43-1.79-.43-.9,0-1.54,.26-1.91,.78-.21,.29-.35,.71-.41,1.28h-1.61c.03-1.35,.44-2.29,1.23-2.83,.79-.53,1.7-.79,2.74-.79,1.21,0,2.18,.25,2.94,.74,.75,.49,1.12,1.26,1.12,2.3v6.33c0,.19,.04,.34,.11,.46,.07,.12,.23,.17,.46,.17,.08,0,.16,0,.26-.02,.1,0,.2-.03,.31-.05v1.36c-.27,.08-.47,.13-.61,.15-.14,.02-.33,.03-.57,.03-.59,0-1.02-.23-1.29-.68-.14-.24-.24-.58-.3-1.01-.35,.49-.85,.92-1.51,1.28s-1.38,.54-2.17,.54c-.95,0-1.73-.31-2.33-.93-.6-.62-.9-1.39-.9-2.32,0-1.02,.3-1.81,.89-2.37,.59-.56,1.37-.91,2.33-1.04l2.75-.37Zm-3.63,4.99c.36,.31,.79,.46,1.29,.46,.61,0,1.19-.15,1.76-.45,.96-.5,1.43-1.32,1.43-2.45v-1.49c-.21,.14-.48,.26-.81,.36s-.66,.16-.98,.21l-1.04,.14c-.62,.09-1.09,.23-1.41,.42-.53,.32-.79,.83-.79,1.54,0,.53,.18,.95,.54,1.26Z"></path><path class="cls-8" d="M110.87,141.82h1.72v15.06h-1.72v-15.06Z"></path><path class="cls-8" d="M121.57,145.9h1.9c-.24,.7-.78,2.31-1.62,4.82-.62,1.89-1.15,3.42-1.57,4.61-1,2.8-1.7,4.51-2.1,5.13-.41,.62-1.11,.92-2.1,.92-.24,0-.43,0-.56-.03s-.29-.06-.48-.11v-1.68c.3,.09,.52,.14,.65,.16s.25,.03,.35,.03c.32,0,.55-.06,.7-.17,.15-.11,.28-.25,.38-.42,.03-.05,.15-.33,.34-.84s.34-.88,.43-1.13l-3.79-11.3h1.95l2.75,8.94,2.76-8.94Z"></path><path class="cls-8" d="M125.99,153.44c.05,.62,.19,1.09,.43,1.42,.43,.59,1.19,.89,2.26,.89,.64,0,1.2-.15,1.68-.45,.48-.3,.73-.76,.73-1.38,0-.47-.19-.83-.58-1.08-.25-.15-.74-.33-1.47-.52l-1.37-.37c-.87-.23-1.52-.49-1.93-.78-.74-.5-1.11-1.19-1.11-2.07,0-1.04,.35-1.88,1.05-2.52,.7-.64,1.64-.96,2.82-.96,1.54,0,2.66,.49,3.34,1.46,.43,.62,.63,1.28,.62,1.99h-1.63c-.03-.42-.17-.8-.41-1.14-.39-.49-1.08-.73-2.06-.73-.65,0-1.14,.13-1.48,.4s-.5,.62-.5,1.06c0,.48,.22,.86,.66,1.15,.26,.17,.63,.32,1.13,.45l1.14,.3c1.24,.32,2.07,.63,2.49,.93,.67,.47,1,1.21,1,2.23s-.35,1.82-1.04,2.53-1.75,1.07-3.16,1.07c-1.53,0-2.6-.37-3.24-1.11-.63-.74-.97-1.66-1.02-2.75h1.66Z"></path><path class="cls-8" d="M134.76,141.82h1.75v2.09h-1.75v-2.09Zm0,4.13h1.75v10.93h-1.75v-10.93Z"></path><path class="cls-8" d="M140.14,153.44c.05,.62,.19,1.09,.43,1.42,.43,.59,1.19,.89,2.26,.89,.64,0,1.2-.15,1.68-.45,.48-.3,.73-.76,.73-1.38,0-.47-.19-.83-.58-1.08-.25-.15-.74-.33-1.47-.52l-1.37-.37c-.87-.23-1.52-.49-1.93-.78-.74-.5-1.11-1.19-1.11-2.07,0-1.04,.35-1.88,1.05-2.52,.7-.64,1.64-.96,2.82-.96,1.54,0,2.66,.49,3.34,1.46,.43,.62,.63,1.28,.62,1.99h-1.63c-.03-.42-.17-.8-.41-1.14-.39-.49-1.08-.73-2.06-.73-.65,0-1.14,.13-1.48,.4s-.5,.62-.5,1.06c0,.48,.22,.86,.66,1.15,.26,.17,.63,.32,1.13,.45l1.14,.3c1.24,.32,2.07,.63,2.49,.93,.67,.47,1,1.21,1,2.23s-.35,1.82-1.04,2.53-1.75,1.07-3.16,1.07c-1.53,0-2.6-.37-3.24-1.11-.63-.74-.97-1.66-1.02-2.75h1.66Z"></path></g><g><path class="cls-8" d="M16.78,209.77h6.04c1.65,0,2.82,.53,3.51,1.58,.41,.62,.61,1.34,.61,2.15,0,.95-.25,1.73-.76,2.34-.26,.32-.64,.62-1.13,.88,.72,.29,1.26,.62,1.62,.99,.63,.66,.95,1.56,.95,2.72,0,.97-.28,1.85-.85,2.64-.85,1.18-2.2,1.76-4.05,1.76h-5.94v-15.06Zm5.33,6.37c.8,0,1.43-.12,1.88-.36,.7-.38,1.05-1.05,1.05-2.03s-.37-1.65-1.12-1.99c-.42-.19-1.04-.29-1.88-.29h-3.4v4.67h3.46Zm.64,6.95c1.17,0,2-.36,2.5-1.09,.31-.46,.47-1.01,.47-1.66,0-1.09-.46-1.84-1.37-2.23-.49-.21-1.13-.32-1.92-.32h-3.78v5.3h4.1Z"></path><path class="cls-8" d="M31.39,213.85v7.29c0,.56,.08,1.02,.25,1.37,.31,.66,.88,.98,1.71,.98,1.2,0,2.01-.57,2.45-1.72,.24-.62,.35-1.46,.35-2.53v-5.39h1.72v10.98h-1.63l.02-1.62c-.22,.42-.5,.77-.83,1.06-.66,.57-1.45,.86-2.39,.86-1.46,0-2.46-.52-2.98-1.57-.29-.56-.43-1.31-.43-2.25v-7.46h1.76Z"></path><path class="cls-8" d="M41.59,221.39c.05,.62,.19,1.09,.43,1.41,.43,.6,1.19,.89,2.26,.89,.64,0,1.2-.15,1.68-.45,.49-.3,.73-.76,.73-1.38,0-.47-.19-.83-.58-1.08-.25-.15-.74-.32-1.47-.52l-1.37-.37c-.87-.23-1.52-.49-1.93-.78-.74-.5-1.11-1.19-1.11-2.07,0-1.04,.35-1.88,1.05-2.52,.7-.64,1.64-.96,2.82-.96,1.54,0,2.66,.49,3.34,1.46,.43,.62,.63,1.28,.62,1.99h-1.63c-.03-.42-.17-.8-.41-1.14-.4-.48-1.08-.73-2.06-.73-.65,0-1.14,.13-1.48,.4-.33,.27-.5,.62-.5,1.06,0,.48,.22,.86,.66,1.15,.25,.17,.63,.32,1.13,.45l1.14,.3c1.24,.32,2.07,.63,2.49,.93,.67,.47,1,1.21,1,2.22s-.35,1.82-1.04,2.53c-.69,.71-1.75,1.07-3.16,1.07-1.52,0-2.6-.37-3.24-1.11-.63-.74-.97-1.66-1.02-2.75h1.66Z"></path><path class="cls-8" d="M50.36,209.77h1.75v2.09h-1.75v-2.09Zm0,4.13h1.75v10.93h-1.75v-10.93Z"></path><path class="cls-8" d="M54.71,213.85h1.64v1.56c.49-.64,1-1.1,1.54-1.38,.54-.28,1.14-.42,1.81-.42,1.45,0,2.44,.54,2.95,1.63,.28,.59,.42,1.45,.42,2.55v7.04h-1.75v-6.92c0-.67-.09-1.21-.28-1.62-.31-.68-.86-1.03-1.67-1.03-.41,0-.74,.04-1,.13-.47,.15-.89,.45-1.24,.9-.29,.36-.47,.74-.56,1.12-.09,.39-.13,.94-.13,1.66v5.75h-1.72v-10.98Z"></path><path class="cls-8" d="M71.99,214.15c.68,.37,1.2,.84,1.56,1.42,.34,.55,.57,1.2,.69,1.94,.1,.51,.15,1.31,.15,2.42h-7.51c.03,1.12,.28,2.01,.74,2.68,.46,.67,1.17,1.01,2.13,1.01,.9,0,1.62-.32,2.15-.95,.31-.37,.52-.8,.65-1.28h1.69c-.04,.4-.19,.85-.45,1.35-.25,.5-.53,.9-.85,1.21-.52,.55-1.17,.92-1.94,1.11-.42,.11-.88,.16-1.41,.16-1.28,0-2.36-.5-3.24-1.49-.89-.99-1.33-2.39-1.33-4.18s.45-3.2,1.34-4.3c.89-1.1,2.06-1.65,3.5-1.65,.73,0,1.43,.18,2.11,.55Zm.63,4.31c-.07-.8-.23-1.44-.49-1.92-.47-.89-1.26-1.33-2.36-1.33-.79,0-1.46,.31-1.99,.92-.54,.61-.82,1.39-.85,2.33h5.69Z"></path><path class="cls-8" d="M77.53,221.39c.05,.62,.19,1.09,.43,1.41,.43,.6,1.19,.89,2.26,.89,.64,0,1.2-.15,1.68-.45,.49-.3,.73-.76,.73-1.38,0-.47-.19-.83-.58-1.08-.25-.15-.74-.32-1.47-.52l-1.37-.37c-.87-.23-1.52-.49-1.93-.78-.74-.5-1.11-1.19-1.11-2.07,0-1.04,.35-1.88,1.05-2.52,.7-.64,1.64-.96,2.82-.96,1.54,0,2.66,.49,3.34,1.46,.43,.62,.63,1.28,.62,1.99h-1.63c-.03-.42-.17-.8-.41-1.14-.4-.48-1.08-.73-2.06-.73-.65,0-1.14,.13-1.48,.4-.33,.27-.5,.62-.5,1.06,0,.48,.22,.86,.66,1.15,.25,.17,.63,.32,1.13,.45l1.14,.3c1.24,.32,2.07,.63,2.49,.93,.67,.47,1,1.21,1,2.22s-.35,1.82-1.04,2.53c-.69,.71-1.75,1.07-3.16,1.07-1.52,0-2.6-.37-3.24-1.11-.63-.74-.97-1.66-1.02-2.75h1.66Z"></path><path class="cls-8" d="M87.32,221.39c.05,.62,.19,1.09,.43,1.41,.43,.6,1.19,.89,2.26,.89,.64,0,1.2-.15,1.68-.45,.48-.3,.73-.76,.73-1.38,0-.47-.19-.83-.58-1.08-.25-.15-.74-.32-1.47-.52l-1.37-.37c-.87-.23-1.52-.49-1.93-.78-.74-.5-1.11-1.19-1.11-2.07,0-1.04,.35-1.88,1.05-2.52,.7-.64,1.64-.96,2.82-.96,1.54,0,2.66,.49,3.34,1.46,.43,.62,.63,1.28,.62,1.99h-1.63c-.03-.42-.17-.8-.41-1.14-.39-.48-1.08-.73-2.06-.73-.65,0-1.14,.13-1.48,.4-.33,.27-.5,.62-.5,1.06,0,.48,.22,.86,.66,1.15,.26,.17,.63,.32,1.13,.45l1.14,.3c1.24,.32,2.07,.63,2.49,.93,.67,.47,1,1.21,1,2.22s-.35,1.82-1.04,2.53-1.75,1.07-3.16,1.07c-1.53,0-2.6-.37-3.24-1.11-.63-.74-.97-1.66-1.02-2.75h1.66Z"></path><path class="cls-8" d="M101.95,209.77h6.32c1.25,0,2.26,.38,3.02,1.13,.77,.75,1.15,1.82,1.15,3.18,0,1.18-.34,2.2-1.02,3.07-.68,.87-1.73,1.31-3.15,1.31h-4.42v6.37h-1.9v-15.06Zm7.42,2.07c-.42-.21-1-.32-1.73-.32h-3.79v5.22h3.79c.85,0,1.55-.19,2.08-.58,.53-.39,.8-1.08,.8-2.06,0-1.11-.38-1.86-1.15-2.26Z"></path><path class="cls-8" d="M114.65,209.77h1.72v15.06h-1.72v-15.06Z"></path><path class="cls-8" d="M124.45,218.18c.39-.05,.66-.23,.79-.53,.08-.16,.12-.4,.12-.71,0-.63-.21-1.08-.63-1.37-.42-.28-1.02-.42-1.79-.42-.9,0-1.54,.26-1.91,.78-.21,.29-.35,.71-.41,1.28h-1.61c.03-1.35,.44-2.29,1.23-2.83,.79-.53,1.7-.79,2.74-.79,1.21,0,2.18,.25,2.94,.74,.75,.49,1.12,1.26,1.12,2.3v6.33c0,.19,.04,.34,.11,.46s.23,.17,.46,.17c.08,0,.16,0,.26-.02,.1,0,.2-.03,.31-.04v1.36c-.27,.08-.47,.13-.61,.15-.14,.02-.33,.03-.57,.03-.59,0-1.02-.23-1.29-.68-.14-.24-.24-.58-.3-1.02-.35,.49-.86,.92-1.51,1.28-.66,.36-1.38,.54-2.17,.54-.95,0-1.73-.31-2.33-.93-.6-.62-.9-1.39-.9-2.32,0-1.02,.3-1.81,.89-2.37,.59-.56,1.37-.91,2.33-1.04l2.75-.37Zm-3.63,4.99c.36,.31,.79,.46,1.29,.46,.61,0,1.19-.15,1.76-.45,.96-.5,1.43-1.32,1.43-2.45v-1.49c-.21,.14-.48,.26-.81,.36-.33,.1-.66,.16-.97,.21l-1.04,.14c-.62,.09-1.09,.23-1.41,.42-.53,.32-.79,.83-.79,1.54,0,.53,.18,.95,.55,1.26Z"></path><path class="cls-8" d="M129.86,213.85h1.64v1.56c.49-.64,1-1.1,1.54-1.38,.54-.28,1.14-.42,1.81-.42,1.45,0,2.44,.54,2.95,1.63,.28,.59,.42,1.45,.42,2.55v7.04h-1.75v-6.92c0-.67-.09-1.21-.28-1.62-.31-.68-.86-1.03-1.67-1.03-.41,0-.74,.04-1,.13-.47,.15-.89,.45-1.24,.9-.29,.36-.47,.74-.56,1.12-.09,.39-.13,.94-.13,1.66v5.75h-1.72v-10.98Z"></path></g><g><path class="cls-8" d="M1.21,371.62H7.54c1.25,0,2.26,.38,3.02,1.13,.77,.75,1.15,1.82,1.15,3.18,0,1.18-.34,2.2-1.02,3.07-.68,.87-1.73,1.31-3.15,1.31H3.12v6.37H1.21v-15.06Zm7.42,2.07c-.42-.21-1-.32-1.73-.32H3.12v5.22h3.79c.85,0,1.55-.19,2.08-.58,.53-.39,.8-1.08,.8-2.06,0-1.11-.38-1.86-1.15-2.26Z"></path><path class="cls-8" d="M25.68,373.77c.93,1.33,1.4,3.04,1.4,5.12,0,2.25-.53,4.12-1.6,5.61-1.25,1.75-3.03,2.62-5.35,2.62-2.16,0-3.86-.77-5.1-2.3-1.1-1.48-1.65-3.34-1.65-5.6,0-2.04,.47-3.78,1.42-5.23,1.21-1.86,3-2.79,5.38-2.79s4.32,.85,5.51,2.56Zm-1.68,9.59c.75-1.29,1.12-2.77,1.12-4.45,0-1.77-.43-3.2-1.3-4.28s-2.05-1.62-3.54-1.62-2.64,.54-3.56,1.6c-.92,1.07-1.38,2.65-1.38,4.73,0,1.67,.39,3.07,1.18,4.22,.79,1.14,2.06,1.72,3.83,1.72s2.89-.64,3.64-1.93Z"></path><path class="cls-8" d="M39.4,372.72c.98,1,1.53,2.15,1.64,3.42h-1.86c-.21-.97-.63-1.74-1.26-2.31s-1.51-.85-2.65-.85c-1.38,0-2.5,.52-3.35,1.56-.85,1.04-1.28,2.64-1.28,4.79,0,1.76,.38,3.19,1.15,4.29,.77,1.1,1.91,1.65,3.44,1.65,1.4,0,2.47-.58,3.2-1.73,.39-.61,.68-1.41,.87-2.4h1.86c-.17,1.59-.71,2.92-1.65,3.99-1.12,1.29-2.62,1.94-4.52,1.94-1.63,0-3-.53-4.11-1.59-1.46-1.4-2.19-3.56-2.19-6.49,0-2.22,.55-4.04,1.65-5.47,1.19-1.54,2.82-2.32,4.91-2.32,1.78,0,3.16,.5,4.14,1.51Z"></path><path class="cls-8" d="M51.9,371.62h1.46l-4.46,15.06h-1.45l4.46-15.06Z"></path><path class="cls-8" d="M60,371.62h6.32c1.25,0,2.26,.38,3.02,1.13,.77,.75,1.15,1.82,1.15,3.18,0,1.18-.34,2.2-1.02,3.07-.68,.87-1.73,1.31-3.15,1.31h-4.42v6.37h-1.9v-15.06Zm7.42,2.07c-.42-.21-1-.32-1.73-.32h-3.79v5.22h3.79c.86,0,1.55-.19,2.08-.58s.8-1.08,.8-2.06c0-1.11-.38-1.86-1.15-2.26Z"></path><path class="cls-8" d="M72.7,375.7h1.64v1.9c.13-.37,.46-.82,.99-1.35,.52-.53,1.13-.79,1.81-.79,.03,0,.09,0,.16,.01,.08,0,.21,.02,.39,.04v1.95c-.1-.02-.2-.03-.28-.04s-.18-.01-.28-.01c-.87,0-1.53,.3-2,.9-.47,.6-.7,1.29-.7,2.07v6.32h-1.72v-10.98Z"></path><path class="cls-8" d="M86.66,376.8c.91,.94,1.37,2.33,1.37,4.16s-.4,3.23-1.21,4.39c-.8,1.16-2.05,1.73-3.74,1.73-1.41,0-2.53-.51-3.36-1.53-.83-1.02-1.24-2.39-1.24-4.12,0-1.85,.44-3.32,1.31-4.41,.87-1.09,2.05-1.64,3.52-1.64,1.32,0,2.44,.47,3.35,1.42Zm-1.07,7.31c.42-.93,.64-1.96,.64-3.09,0-1.03-.15-1.86-.46-2.5-.48-1.01-1.32-1.52-2.51-1.52-1.05,0-1.82,.43-2.3,1.29s-.72,1.9-.72,3.12,.24,2.14,.72,2.92,1.24,1.17,2.28,1.17c1.14,0,1.92-.46,2.35-1.39Z"></path><path class="cls-8" d="M90.42,372.64h1.74v3.07h1.64v1.51h-1.64v7.17c0,.38,.12,.64,.36,.77,.13,.08,.36,.11,.67,.11,.08,0,.17,0,.27,0,.1,0,.21-.01,.34-.03v1.46c-.2,.06-.4,.11-.62,.13-.21,.03-.45,.04-.69,.04-.8,0-1.35-.22-1.64-.66-.29-.44-.43-1.01-.43-1.72v-7.27h-1.39v-1.51h1.39v-3.07Z"></path><path class="cls-8" d="M103,376.8c.91,.94,1.37,2.33,1.37,4.16s-.4,3.23-1.21,4.39c-.8,1.16-2.05,1.73-3.74,1.73-1.41,0-2.53-.51-3.36-1.53-.83-1.02-1.24-2.39-1.24-4.12,0-1.85,.44-3.32,1.31-4.41,.87-1.09,2.05-1.64,3.52-1.64,1.32,0,2.44,.47,3.35,1.42Zm-1.07,7.31c.42-.93,.64-1.96,.64-3.09,0-1.03-.15-1.86-.46-2.5-.48-1.01-1.32-1.52-2.51-1.52-1.05,0-1.82,.43-2.3,1.29s-.72,1.9-.72,3.12,.24,2.14,.72,2.92,1.24,1.17,2.28,1.17c1.14,0,1.92-.46,2.35-1.39Z"></path><path class="cls-8" d="M115.05,371.62h1.45l-4.46,15.06h-1.45l4.46-15.06Z"></path><path class="cls-8" d="M122.93,371.62h2.73l4.04,12.74,4.01-12.74h2.7v15.06h-1.81v-8.89c0-.31,0-.82,.02-1.53s.02-1.47,.02-2.29l-4.01,12.71h-1.88l-4.04-12.71v.46c0,.37,0,.93,.02,1.69,.02,.76,.02,1.31,.02,1.67v8.89h-1.82v-15.06Z"></path><path class="cls-8" d="M140.41,371.62l4.04,12.83,3.99-12.83h2.13l-5.13,15.06h-2.02l-5.12-15.06h2.11Z"></path><path class="cls-8" d="M152.55,371.62h6.32c1.25,0,2.26,.38,3.02,1.13,.77,.75,1.15,1.82,1.15,3.18,0,1.18-.34,2.2-1.02,3.07-.68,.87-1.73,1.31-3.15,1.31h-4.42v6.37h-1.9v-15.06Zm7.42,2.07c-.42-.21-1-.32-1.73-.32h-3.79v5.22h3.79c.85,0,1.55-.19,2.08-.58,.53-.39,.8-1.08,.8-2.06,0-1.11-.38-1.86-1.15-2.26Z"></path></g><path class="cls-8" d="M83.09,567.99c-.29,.05-.57,.09-.84,.11-.27,.02-.58,.03-.91,.03-.52,0-.89-.17-1.13-.51s-.36-.85-.36-1.52v-.17c0-.06,0-.12,0-.18h-.1c-.31,.44-.62,.81-.91,1.11-.29,.3-.59,.55-.88,.74-.29,.19-.6,.32-.91,.41-.31,.08-.64,.13-1,.13-.97,0-1.67-.28-2.11-.85-.44-.56-.66-1.4-.66-2.5,0-.66,.06-1.3,.17-1.92,.11-.62,.28-1.2,.5-1.73,.22-.54,.49-1.03,.81-1.47,.32-.44,.69-.82,1.1-1.14s.87-.56,1.38-.73c.5-.17,1.05-.26,1.64-.26,.84,0,1.5,.24,2,.72,.5,.48,.81,1.14,.94,1.96h.11c.21-.39,.4-.8,.59-1.23,.19-.43,.35-.83,.49-1.19h2.49c-.25,.42-.5,.83-.74,1.21-.24,.39-.49,.79-.75,1.2-.26,.41-.54,.85-.85,1.32-.31,.46-.65,.99-1.03,1.57,.02,.46,.04,.88,.07,1.26,.03,.37,.07,.69,.13,.95,.06,.26,.15,.46,.27,.59,.12,.14,.28,.21,.48,.21h.38l-.39,1.9Zm-3.09-4.77c.03-.36,.04-.69,.06-.98s.02-.56,.02-.81c0-.38-.03-.69-.08-.95-.05-.26-.13-.46-.24-.61-.11-.15-.24-.26-.41-.32-.16-.07-.35-.1-.57-.1-.41,0-.79,.15-1.12,.46s-.62,.71-.86,1.21-.42,1.07-.55,1.7c-.13,.63-.2,1.28-.2,1.93,0,.51,.08,.88,.23,1.09s.38,.32,.67,.32,.58-.05,.83-.14,.5-.26,.74-.48,.48-.53,.72-.9c.24-.38,.49-.84,.76-1.4Z"></path><path class="cls-8" d="M80.31,630.82c1.02,.31,1.77,.77,2.26,1.37,.48,.6,.73,1.38,.73,2.34,0,1.34-.37,2.38-1.12,3.11s-1.81,1.1-3.19,1.1c-.42,0-.82-.03-1.2-.08-.38-.05-.74-.17-1.09-.34v4.67h-2.76v-12.71c0-1.57,.21-2.8,.63-3.7,.42-.9,1-1.58,1.74-2.03,.74-.45,1.71-.67,2.9-.67,.73,0,1.39,.12,1.96,.37s1.02,.61,1.33,1.1c.32,.49,.47,1.07,.47,1.75,0,.92-.21,1.67-.64,2.25s-1.1,1.04-2.01,1.39v.08Zm-2.5-.5c.77-.05,1.35-.32,1.74-.82s.58-1.23,.58-2.18c0-.74-.14-1.32-.42-1.74-.28-.42-.66-.63-1.14-.63-.41,0-.75,.16-1.04,.48-.28,.32-.5,.78-.64,1.38-.14,.61-.21,1.48-.21,2.62v5.88c0,1.58,.58,2.37,1.74,2.37,.6,0,1.08-.26,1.43-.79,.35-.53,.53-1.23,.53-2.11,0-.96-.22-1.74-.67-2.34s-1.08-.94-1.91-1.04v-1.08Z"></path><g><path class="cls-8" d="M64.06,703.05c.71-.83,1.71-1.26,2.99-1.27v-1.36h.91v1.34c1.27,.1,2.24,.5,2.92,1.21,.68,.71,1.04,1.64,1.07,2.8h-1.67c-.04-.52-.17-.97-.39-1.34-.4-.69-1.04-1.05-1.92-1.09v4.98c1.48,.44,2.48,.86,3.01,1.25,.86,.64,1.29,1.59,1.29,2.85,0,1.82-.55,3.11-1.65,3.88-.61,.42-1.5,.7-2.65,.84v1.99h-.91v-1.99c-1.86-.13-3.12-.83-3.78-2.11-.36-.69-.54-1.62-.54-2.8h1.69c.05,.94,.19,1.62,.41,2.05,.4,.77,1.13,1.21,2.2,1.3v-5.59c-1.38-.28-2.39-.75-3.05-1.41-.66-.66-.98-1.57-.98-2.73,0-1.04,.36-1.98,1.07-2.81Zm1.28,4.28c.42,.38,.98,.65,1.69,.8v-4.82c-.84,.03-1.43,.31-1.79,.82-.35,.51-.53,1.05-.53,1.61,0,.68,.21,1.21,.63,1.59Zm4.88,7.02c.22-.41,.33-.88,.33-1.42,0-.85-.29-1.5-.88-1.95-.34-.26-.91-.51-1.7-.74v5.39c1.09-.05,1.84-.48,2.26-1.28Z"></path><path class="cls-8" d="M74.96,703.05c.71-.83,1.71-1.26,2.99-1.27v-1.36h.91v1.34c1.27,.1,2.24,.5,2.92,1.21,.68,.71,1.04,1.64,1.07,2.8h-1.67c-.04-.52-.18-.97-.39-1.34-.4-.69-1.04-1.05-1.92-1.09v4.98c1.48,.44,2.48,.86,3.01,1.25,.86,.64,1.29,1.59,1.29,2.85,0,1.82-.55,3.11-1.66,3.88-.61,.42-1.5,.7-2.65,.84v1.99h-.91v-1.99c-1.86-.13-3.12-.83-3.78-2.11-.36-.69-.55-1.62-.55-2.8h1.69c.05,.94,.19,1.62,.41,2.05,.4,.77,1.13,1.21,2.2,1.3v-5.59c-1.38-.28-2.39-.75-3.05-1.41-.66-.66-.99-1.57-.99-2.73,0-1.04,.36-1.98,1.07-2.81Zm1.28,4.28c.42,.38,.98,.65,1.69,.8v-4.82c-.83,.03-1.43,.31-1.78,.82s-.53,1.05-.53,1.61c0,.68,.21,1.21,.63,1.59Zm4.88,7.02c.22-.41,.32-.88,.32-1.42,0-.85-.29-1.5-.88-1.95-.34-.26-.91-.51-1.7-.74v5.39c1.09-.05,1.84-.48,2.26-1.28Z"></path><path class="cls-8" d="M85.86,703.05c.71-.83,1.71-1.26,2.99-1.27v-1.36h.91v1.34c1.27,.1,2.24,.5,2.92,1.21,.68,.71,1.04,1.64,1.07,2.8h-1.67c-.04-.52-.18-.97-.39-1.34-.4-.69-1.04-1.05-1.92-1.09v4.98c1.48,.44,2.48,.86,3.01,1.25,.86,.64,1.29,1.59,1.29,2.85,0,1.82-.55,3.11-1.66,3.88-.61,.42-1.5,.7-2.65,.84v1.99h-.91v-1.99c-1.86-.13-3.12-.83-3.78-2.11-.36-.69-.55-1.62-.55-2.8h1.69c.05,.94,.19,1.62,.41,2.05,.4,.77,1.13,1.21,2.2,1.3v-5.59c-1.38-.28-2.39-.75-3.05-1.41-.66-.66-.99-1.57-.99-2.73,0-1.04,.36-1.98,1.07-2.81Zm1.28,4.28c.42,.38,.98,.65,1.69,.8v-4.82c-.83,.03-1.43,.31-1.78,.82s-.53,1.05-.53,1.61c0,.68,.21,1.21,.63,1.59Zm4.88,7.02c.22-.41,.32-.88,.32-1.42,0-.85-.29-1.5-.88-1.95-.34-.26-.91-.51-1.7-.74v5.39c1.09-.05,1.84-.48,2.26-1.28Z"></path></g><g><path class="cls-8" d="M164.53,438.58h3.9l5.77,18.19,5.73-18.19h3.85v21.52h-2.58v-12.7c0-.44,0-1.17,.03-2.18,.02-1.02,.03-2.1,.03-3.27l-5.73,18.15h-2.69l-5.77-18.15v.66c0,.53,.01,1.33,.03,2.41,.02,1.08,.04,1.87,.04,2.38v12.7h-2.6v-21.52Z"></path><path class="cls-8" d="M195.43,450.59c.56-.08,.94-.33,1.13-.76,.11-.23,.16-.57,.16-1.01,0-.9-.3-1.55-.9-1.96s-1.45-.61-2.56-.61c-1.28,0-2.2,.37-2.73,1.11-.3,.41-.5,1.02-.59,1.83h-2.3c.05-1.93,.63-3.28,1.76-4.04,1.12-.76,2.43-1.14,3.92-1.14,1.72,0,3.12,.35,4.2,1.05,1.07,.7,1.6,1.8,1.6,3.28v9.04c0,.27,.05,.49,.16,.66,.1,.17,.33,.25,.66,.25,.11,0,.23,0,.37-.02s.28-.04,.44-.07v1.95c-.38,.12-.67,.19-.88,.22-.2,.03-.47,.04-.82,.04-.85,0-1.46-.32-1.84-.97-.2-.34-.34-.83-.42-1.45-.5,.7-1.22,1.31-2.16,1.83-.94,.52-1.97,.78-3.1,.78-1.36,0-2.47-.44-3.33-1.33s-1.29-1.99-1.29-3.32c0-1.46,.42-2.58,1.27-3.38s1.96-1.29,3.33-1.48l3.92-.53Zm-5.18,7.13c.52,.44,1.13,.66,1.85,.66,.87,0,1.7-.21,2.51-.64,1.37-.71,2.05-1.88,2.05-3.5v-2.12c-.3,.21-.69,.38-1.16,.51s-.94,.23-1.39,.29l-1.49,.21c-.89,.13-1.56,.33-2.01,.6-.76,.46-1.13,1.19-1.13,2.2,0,.76,.26,1.36,.78,1.8Z"></path><path class="cls-8" d="M203.21,444.41h2.34v2.71c.19-.53,.66-1.17,1.41-1.93s1.61-1.14,2.58-1.14c.04,0,.12,0,.23,.01s.3,.03,.56,.06v2.78c-.15-.03-.28-.05-.4-.06s-.26-.01-.4-.01c-1.24,0-2.19,.43-2.86,1.28-.67,.85-1,1.84-1,2.95v9.02h-2.46v-15.69Z"></path><path class="cls-8" d="M212.41,438.58h2.36v12.5l6.31-6.67h3.14l-5.6,5.87,5.92,9.81h-3.14l-4.56-7.91-2.06,2.02v5.89h-2.36v-21.52Z"></path><path class="cls-8" d="M235.58,444.84c.97,.52,1.72,1.2,2.23,2.03,.49,.79,.82,1.71,.98,2.77,.15,.72,.22,1.88,.22,3.46h-10.73c.05,1.59,.4,2.87,1.05,3.83s1.67,1.44,3.05,1.44c1.28,0,2.31-.45,3.08-1.36,.44-.53,.75-1.14,.93-1.83h2.42c-.06,.58-.28,1.22-.63,1.93-.36,.71-.76,1.29-1.21,1.74-.75,.78-1.67,1.31-2.77,1.58-.59,.16-1.26,.23-2.01,.23-1.82,0-3.37-.71-4.63-2.13s-1.9-3.41-1.9-5.97,.64-4.57,1.91-6.14c1.28-1.57,2.94-2.36,5-2.36,1.04,0,2.04,.26,3.02,.78Zm.9,6.16c-.1-1.14-.33-2.06-.7-2.74-.67-1.27-1.8-1.9-3.38-1.9-1.13,0-2.08,.44-2.84,1.31s-1.17,1.98-1.22,3.33h8.13Z"></path><path class="cls-8" d="M242.52,440.03h2.49v4.38h2.34v2.15h-2.34v10.24c0,.55,.17,.91,.52,1.1,.19,.11,.51,.16,.96,.16,.12,0,.25,0,.38,0,.14,0,.3-.02,.48-.04v2.08c-.28,.09-.58,.15-.88,.19s-.64,.06-.99,.06c-1.15,0-1.93-.31-2.34-.94s-.62-1.45-.62-2.45v-10.39h-1.98v-2.15h1.98v-4.38Z"></path><path class="cls-8" d="M257.91,438.58h2.72v18.96h10.17v2.56h-12.89v-21.52Z"></path><path class="cls-8" d="M280.99,450.59c.57-.08,.94-.33,1.13-.76,.11-.23,.16-.57,.16-1.01,0-.9-.3-1.55-.89-1.96-.6-.41-1.45-.61-2.56-.61-1.29,0-2.2,.37-2.73,1.11-.3,.41-.5,1.02-.59,1.83h-2.3c.05-1.93,.63-3.28,1.76-4.04s2.43-1.14,3.92-1.14c1.72,0,3.12,.35,4.2,1.05,1.07,.7,1.6,1.8,1.6,3.28v9.04c0,.27,.05,.49,.16,.66,.11,.17,.33,.25,.66,.25,.11,0,.23,0,.37-.02s.28-.04,.44-.07v1.95c-.38,.12-.67,.19-.88,.22s-.47,.04-.82,.04c-.85,0-1.46-.32-1.85-.97-.2-.34-.34-.83-.42-1.45-.5,.7-1.22,1.31-2.16,1.83-.94,.52-1.97,.78-3.1,.78-1.36,0-2.47-.44-3.33-1.33s-1.29-1.99-1.29-3.32c0-1.46,.42-2.58,1.27-3.38s1.96-1.29,3.33-1.48l3.92-.53Zm-5.18,7.13c.52,.44,1.13,.66,1.84,.66,.87,0,1.7-.21,2.52-.64,1.37-.71,2.05-1.88,2.05-3.5v-2.12c-.3,.21-.69,.38-1.16,.51s-.94,.23-1.39,.29l-1.49,.21c-.89,.13-1.56,.33-2.01,.6-.76,.46-1.13,1.19-1.13,2.2,0,.76,.26,1.36,.78,1.8Z"></path><path class="cls-8" d="M291.17,444.41v10.42c0,.8,.12,1.46,.35,1.96,.44,.94,1.25,1.41,2.45,1.41,1.71,0,2.88-.82,3.5-2.46,.34-.88,.51-2.08,.51-3.62v-7.71h2.46v15.69h-2.32l.03-2.31c-.32,.6-.71,1.1-1.19,1.51-.94,.82-2.08,1.23-3.42,1.23-2.09,0-3.51-.75-4.26-2.24-.41-.8-.62-1.87-.62-3.21v-10.66h2.51Z"></path><path class="cls-8" d="M304.28,444.41h2.34v2.23c.69-.92,1.43-1.58,2.2-1.98,.77-.4,1.63-.6,2.58-.6,2.08,0,3.48,.78,4.21,2.33,.4,.85,.6,2.07,.6,3.65v10.06h-2.5v-9.89c0-.96-.13-1.73-.4-2.31-.44-.98-1.23-1.46-2.38-1.46-.58,0-1.06,.06-1.43,.19-.67,.21-1.27,.64-1.78,1.29-.41,.52-.68,1.05-.8,1.6s-.18,1.34-.18,2.37v8.22h-2.46v-15.69Z"></path><path class="cls-8" d="M329.51,445.24c1.03,.86,1.66,2.34,1.87,4.44h-2.39c-.15-.97-.48-1.77-1-2.41-.52-.64-1.35-.96-2.5-.96-1.57,0-2.69,.82-3.36,2.46-.44,1.06-.66,2.38-.66,3.94s.31,2.9,.93,3.97c.62,1.07,1.59,1.61,2.92,1.61,1.02,0,1.83-.33,2.43-1,.6-.67,1.01-1.58,1.24-2.75h2.39c-.27,2.08-.96,3.6-2.05,4.56s-2.49,1.44-4.2,1.44c-1.91,0-3.44-.75-4.58-2.25s-1.71-3.37-1.71-5.62c0-2.75,.62-4.9,1.87-6.43s2.84-2.3,4.77-2.3c1.65,0,2.99,.43,4.03,1.29Z"></path><path class="cls-8" d="M333.84,438.51h2.46v8.03c.58-.79,1.11-1.35,1.57-1.67,.79-.56,1.78-.83,2.96-.83,2.12,0,3.56,.8,4.32,2.39,.41,.87,.62,2.08,.62,3.62v10.06h-2.53v-9.89c0-1.15-.14-2-.41-2.53-.45-.86-1.29-1.29-2.52-1.29-1.02,0-1.95,.38-2.77,1.13-.83,.75-1.24,2.17-1.24,4.26v8.32h-2.46v-21.59Z"></path></g><g><path class="cls-8" d="M178.66,167.02h14.64v2.64h-11.99v6.53h11.08v2.49h-11.08v7.29h12.19v2.56h-14.84v-21.52Z"></path><path class="cls-8" d="M204.58,179.03c.57-.08,.94-.33,1.13-.76,.11-.23,.16-.57,.16-1.01,0-.9-.3-1.55-.89-1.96-.6-.41-1.45-.61-2.56-.61-1.29,0-2.2,.37-2.73,1.11-.3,.41-.5,1.02-.59,1.83h-2.3c.05-1.93,.63-3.28,1.76-4.04s2.43-1.14,3.92-1.14c1.72,0,3.12,.35,4.2,1.05,1.07,.7,1.6,1.8,1.6,3.28v9.04c0,.27,.05,.49,.16,.66,.11,.17,.33,.25,.66,.25,.11,0,.23,0,.37-.02s.28-.04,.44-.07v1.95c-.38,.12-.67,.19-.88,.22s-.47,.04-.82,.04c-.85,0-1.46-.32-1.85-.97-.2-.34-.34-.83-.42-1.45-.5,.7-1.22,1.31-2.16,1.83-.94,.52-1.97,.78-3.1,.78-1.36,0-2.47-.44-3.33-1.33s-1.29-1.99-1.29-3.32c0-1.46,.42-2.58,1.27-3.38s1.96-1.29,3.33-1.48l3.92-.53Zm-5.18,7.13c.52,.44,1.13,.66,1.84,.66,.87,0,1.7-.21,2.52-.64,1.37-.71,2.05-1.88,2.05-3.5v-2.12c-.3,.21-.69,.38-1.16,.51s-.94,.23-1.39,.29l-1.49,.21c-.89,.13-1.56,.33-2.01,.6-.76,.46-1.13,1.19-1.13,2.2,0,.76,.26,1.36,.78,1.8Z"></path><path class="cls-8" d="M212.37,172.85h2.34v2.71c.19-.53,.66-1.17,1.41-1.93s1.61-1.14,2.58-1.14c.05,0,.12,0,.23,.01s.3,.03,.56,.06v2.78c-.15-.03-.28-.05-.4-.06s-.26-.01-.4-.01c-1.24,0-2.19,.43-2.86,1.28s-1,1.84-1,2.95v9.02h-2.46v-15.69Z"></path><path class="cls-8" d="M221.69,167.02h2.46v21.52h-2.46v-21.52Z"></path><path class="cls-8" d="M236.99,172.85h2.72c-.35,1.01-1.12,3.3-2.31,6.88-.89,2.7-1.64,4.89-2.24,6.59-1.42,4-2.42,6.45-3.01,7.32-.58,.88-1.59,1.32-3.01,1.32-.35,0-.61-.01-.8-.04-.19-.03-.42-.08-.69-.16v-2.4c.43,.13,.74,.21,.93,.23s.36,.04,.51,.04c.46,0,.79-.08,1-.24,.21-.16,.39-.36,.54-.59,.04-.08,.21-.48,.49-1.2,.28-.72,.49-1.26,.62-1.61l-5.41-16.14h2.79l3.92,12.77,3.95-12.77Z"></path><path class="cls-8" d="M251.72,181.59c.06,1.22,.33,2.21,.81,2.97,.9,1.43,2.49,2.14,4.77,2.14,1.02,0,1.95-.16,2.79-.47,1.62-.61,2.43-1.69,2.43-3.25,0-1.17-.34-2.01-1.02-2.5-.69-.49-1.78-.91-3.25-1.27l-2.72-.66c-1.78-.43-3.03-.9-3.77-1.42-1.28-.9-1.91-2.24-1.91-4.03,0-1.93,.62-3.52,1.87-4.76,1.25-1.24,3.02-1.86,5.3-1.86,2.1,0,3.89,.54,5.36,1.63,1.47,1.09,2.21,2.83,2.21,5.22h-2.56c-.14-1.15-.43-2.04-.87-2.65-.83-1.12-2.24-1.68-4.22-1.68-1.6,0-2.76,.36-3.46,1.08-.7,.72-1.05,1.56-1.05,2.52,0,1.05,.41,1.83,1.23,2.31,.54,.31,1.75,.7,3.65,1.17l2.82,.69c1.36,.33,2.41,.79,3.14,1.36,1.28,1.01,1.91,2.47,1.91,4.38,0,2.38-.81,4.09-2.43,5.11s-3.5,1.54-5.64,1.54c-2.5,0-4.45-.68-5.86-2.05-1.41-1.36-2.11-3.2-2.08-5.52h2.56Z"></path><path class="cls-8" d="M268.77,168.47h2.49v4.38h2.34v2.15h-2.34v10.24c0,.55,.17,.91,.52,1.1,.19,.11,.51,.16,.96,.16,.12,0,.25,0,.38,0,.14,0,.3-.02,.48-.04v2.08c-.28,.09-.58,.15-.88,.19s-.64,.06-.99,.06c-1.15,0-1.93-.31-2.34-.94s-.62-1.45-.62-2.45v-10.39h-1.98v-2.15h1.98v-4.38Z"></path><path class="cls-8" d="M283.9,179.03c.57-.08,.94-.33,1.13-.76,.11-.23,.16-.57,.16-1.01,0-.9-.3-1.55-.89-1.96-.6-.41-1.45-.61-2.56-.61-1.29,0-2.2,.37-2.73,1.11-.3,.41-.5,1.02-.59,1.83h-2.3c.04-1.93,.63-3.28,1.76-4.04s2.43-1.14,3.92-1.14c1.72,0,3.12,.35,4.2,1.05,1.07,.7,1.6,1.8,1.6,3.28v9.04c0,.27,.05,.49,.16,.66,.1,.17,.33,.25,.66,.25,.11,0,.23,0,.37-.02s.28-.04,.44-.07v1.95c-.38,.12-.67,.19-.88,.22-.2,.03-.47,.04-.82,.04-.85,0-1.46-.32-1.84-.97-.2-.34-.34-.83-.42-1.45-.5,.7-1.22,1.31-2.16,1.83s-1.97,.78-3.1,.78c-1.36,0-2.47-.44-3.33-1.33-.86-.88-1.29-1.99-1.29-3.32,0-1.46,.42-2.58,1.27-3.38,.85-.8,1.96-1.29,3.33-1.48l3.92-.53Zm-5.18,7.13c.52,.44,1.13,.66,1.85,.66,.87,0,1.7-.21,2.51-.64,1.37-.71,2.05-1.88,2.05-3.5v-2.12c-.3,.21-.69,.38-1.16,.51-.47,.14-.94,.23-1.39,.29l-1.49,.21c-.89,.13-1.56,.33-2.01,.6-.76,.46-1.13,1.19-1.13,2.2,0,.76,.26,1.36,.78,1.8Z"></path><path class="cls-8" d="M299.8,173.48c.46,.34,.94,.84,1.42,1.49v-1.98h2.27v14.27c0,1.99-.27,3.56-.82,4.72-1.02,2.13-2.95,3.19-5.78,3.19-1.58,0-2.9-.38-3.98-1.13-1.07-.76-1.68-1.94-1.8-3.55h2.5c.12,.7,.36,1.25,.71,1.63,.56,.59,1.43,.88,2.62,.88,1.89,0,3.12-.71,3.7-2.14,.35-.84,.51-2.34,.48-4.5-.49,.8-1.08,1.4-1.78,1.79s-1.61,.59-2.75,.59c-1.58,0-2.97-.6-4.16-1.81s-1.78-3.2-1.78-5.98c0-2.63,.6-4.68,1.8-6.15,1.2-1.47,2.64-2.21,4.34-2.21,1.15,0,2.15,.3,3.01,.91Zm.3,2.83c-.75-.94-1.7-1.41-2.86-1.41-1.73,0-2.92,.87-3.55,2.61-.34,.93-.51,2.14-.51,3.65,0,1.77,.34,3.11,1,4.04,.67,.92,1.57,1.38,2.7,1.38,1.77,0,3.01-.85,3.73-2.56,.4-.97,.6-2.09,.6-3.38,0-1.94-.38-3.38-1.12-4.32Z"></path><path class="cls-8" d="M316.31,173.28c.97,.52,1.72,1.2,2.23,2.03,.49,.79,.82,1.71,.98,2.77,.15,.72,.22,1.88,.22,3.46h-10.73c.04,1.59,.4,2.87,1.05,3.83s1.67,1.44,3.05,1.44c1.29,0,2.31-.45,3.08-1.36,.44-.53,.75-1.14,.93-1.83h2.42c-.06,.58-.28,1.22-.64,1.93s-.76,1.29-1.21,1.74c-.75,.78-1.67,1.31-2.77,1.58-.59,.16-1.26,.23-2.01,.23-1.82,0-3.37-.71-4.63-2.13-1.27-1.42-1.9-3.41-1.9-5.97s.64-4.57,1.91-6.14,2.94-2.36,5-2.36c1.04,0,2.04,.26,3.02,.78Zm.9,6.16c-.1-1.14-.33-2.06-.7-2.74-.67-1.27-1.8-1.9-3.38-1.9-1.13,0-2.08,.44-2.84,1.31-.77,.87-1.17,1.98-1.22,3.33h8.13Z"></path></g><g><path class="cls-8" d="M174.12,668.31c.06,1.22,.33,2.21,.81,2.97,.9,1.43,2.49,2.14,4.77,2.14,1.02,0,1.95-.16,2.79-.47,1.62-.61,2.43-1.69,2.43-3.25,0-1.17-.34-2.01-1.02-2.5-.69-.49-1.78-.91-3.25-1.27l-2.72-.66c-1.78-.43-3.03-.9-3.77-1.42-1.28-.9-1.91-2.24-1.91-4.03,0-1.93,.62-3.52,1.87-4.76,1.25-1.24,3.02-1.86,5.3-1.86,2.1,0,3.89,.54,5.36,1.63,1.47,1.09,2.21,2.83,2.21,5.22h-2.56c-.14-1.15-.43-2.04-.87-2.65-.83-1.12-2.24-1.68-4.22-1.68-1.6,0-2.76,.36-3.46,1.08-.7,.72-1.05,1.56-1.05,2.52,0,1.05,.41,1.83,1.23,2.31,.54,.31,1.75,.7,3.65,1.17l2.82,.69c1.36,.33,2.41,.79,3.14,1.36,1.28,1.01,1.91,2.47,1.91,4.38,0,2.38-.81,4.09-2.43,5.11s-3.5,1.54-5.64,1.54c-2.5,0-4.45-.68-5.86-2.05-1.41-1.36-2.11-3.2-2.08-5.52h2.56Z"></path><path class="cls-8" d="M200.36,660.4c1.03,.86,1.66,2.34,1.87,4.44h-2.39c-.15-.97-.48-1.77-1-2.41-.52-.64-1.35-.96-2.5-.96-1.57,0-2.69,.82-3.36,2.46-.44,1.06-.66,2.38-.66,3.94s.31,2.9,.93,3.97c.62,1.07,1.59,1.61,2.92,1.61,1.02,0,1.83-.33,2.43-1,.6-.67,1.01-1.58,1.24-2.75h2.39c-.27,2.08-.96,3.6-2.05,4.56s-2.49,1.44-4.2,1.44c-1.91,0-3.44-.75-4.58-2.25s-1.71-3.37-1.71-5.62c0-2.75,.62-4.9,1.87-6.43s2.84-2.3,4.77-2.3c1.65,0,2.99,.43,4.03,1.29Z"></path><path class="cls-8" d="M212.53,665.74c.56-.08,.94-.33,1.13-.76,.11-.23,.16-.57,.16-1.01,0-.9-.3-1.55-.9-1.96-.6-.41-1.45-.61-2.56-.61-1.28,0-2.2,.37-2.73,1.11-.3,.41-.5,1.02-.59,1.83h-2.3c.05-1.93,.63-3.28,1.76-4.04,1.12-.76,2.43-1.13,3.92-1.13,1.72,0,3.12,.35,4.2,1.05,1.07,.7,1.6,1.8,1.6,3.28v9.04c0,.27,.05,.49,.16,.66s.33,.25,.66,.25c.11,0,.23,0,.37-.02s.28-.04,.44-.07v1.95c-.38,.12-.67,.19-.88,.22-.2,.03-.47,.04-.82,.04-.85,0-1.46-.32-1.84-.97-.2-.34-.34-.83-.42-1.45-.5,.7-1.22,1.31-2.16,1.83-.94,.52-1.97,.78-3.1,.78-1.36,0-2.47-.44-3.33-1.33-.86-.88-1.29-1.99-1.29-3.32,0-1.46,.42-2.58,1.27-3.38,.85-.8,1.96-1.29,3.33-1.48l3.92-.53Zm-5.18,7.13c.52,.44,1.13,.66,1.84,.66,.87,0,1.7-.21,2.51-.64,1.37-.71,2.05-1.88,2.05-3.5v-2.12c-.3,.21-.69,.38-1.16,.51-.47,.14-.94,.23-1.39,.29l-1.49,.21c-.89,.13-1.56,.33-2.01,.6-.76,.46-1.13,1.19-1.13,2.2,0,.76,.26,1.36,.78,1.8Z"></path><path class="cls-8" d="M220.31,653.73h2.46v21.52h-2.46v-21.52Z"></path><path class="cls-8" d="M226.46,653.73h2.5v2.99h-2.5v-2.99Zm0,5.9h2.5v15.62h-2.5v-15.62Z"></path><path class="cls-8" d="M232.68,659.56h2.34v2.23c.69-.92,1.43-1.58,2.2-1.98,.77-.4,1.63-.6,2.58-.6,2.08,0,3.48,.78,4.21,2.33,.4,.85,.6,2.07,.6,3.65v10.06h-2.5v-9.89c0-.96-.13-1.73-.4-2.31-.44-.98-1.23-1.46-2.38-1.46-.58,0-1.06,.06-1.43,.19-.67,.21-1.27,.64-1.78,1.29-.41,.52-.68,1.05-.8,1.6s-.18,1.34-.18,2.37v8.22h-2.46v-15.69Z"></path><path class="cls-8" d="M256.42,660.19c.46,.34,.94,.84,1.42,1.49v-1.98h2.27v14.27c0,1.99-.27,3.56-.82,4.72-1.02,2.13-2.95,3.19-5.78,3.19-1.58,0-2.9-.38-3.98-1.14-1.07-.76-1.68-1.94-1.8-3.55h2.5c.12,.7,.36,1.25,.71,1.63,.55,.59,1.43,.88,2.62,.88,1.89,0,3.12-.71,3.7-2.14,.35-.84,.51-2.34,.48-4.5-.49,.8-1.08,1.4-1.78,1.79-.69,.39-1.61,.59-2.75,.59-1.58,0-2.97-.6-4.16-1.81-1.19-1.21-1.78-3.2-1.78-5.98,0-2.63,.6-4.68,1.8-6.15,1.2-1.47,2.64-2.21,4.34-2.21,1.15,0,2.15,.3,3.01,.91Zm.3,2.83c-.75-.94-1.7-1.41-2.86-1.41-1.73,0-2.92,.87-3.55,2.61-.34,.93-.51,2.14-.51,3.65,0,1.77,.33,3.11,1,4.04,.67,.92,1.57,1.38,2.7,1.38,1.77,0,3.01-.85,3.73-2.56,.4-.97,.6-2.09,.6-3.38,0-1.94-.37-3.38-1.12-4.32Z"></path><path class="cls-8" d="M272.08,655.18h2.49v4.38h2.34v2.15h-2.34v10.24c0,.55,.17,.91,.52,1.1,.19,.11,.51,.16,.96,.16,.12,0,.25,0,.38,0,.14,0,.29-.02,.48-.04v2.08c-.28,.09-.58,.15-.88,.19-.3,.04-.63,.06-.99,.06-1.15,0-1.93-.32-2.34-.95-.41-.63-.62-1.45-.62-2.45v-10.39h-1.98v-2.15h1.98v-4.38Z"></path><path class="cls-8" d="M279.44,659.56h2.34v2.71c.19-.53,.66-1.17,1.41-1.93,.75-.76,1.61-1.13,2.58-1.13,.04,0,.12,0,.23,.01s.29,.03,.56,.06v2.78c-.15-.03-.28-.05-.4-.06s-.26-.01-.4-.01c-1.24,0-2.19,.43-2.86,1.28s-1,1.84-1,2.95v9.02h-2.46v-15.69Z"></path><path class="cls-8" d="M296.53,665.74c.57-.08,.94-.33,1.13-.76,.11-.23,.16-.57,.16-1.01,0-.9-.3-1.55-.89-1.96-.6-.41-1.45-.61-2.56-.61-1.29,0-2.2,.37-2.73,1.11-.3,.41-.5,1.02-.59,1.83h-2.3c.05-1.93,.63-3.28,1.76-4.04s2.43-1.13,3.92-1.13c1.72,0,3.12,.35,4.2,1.05,1.07,.7,1.6,1.8,1.6,3.28v9.04c0,.27,.05,.49,.16,.66,.11,.17,.33,.25,.66,.25,.11,0,.23,0,.37-.02s.28-.04,.44-.07v1.95c-.38,.12-.67,.19-.88,.22s-.47,.04-.82,.04c-.85,0-1.46-.32-1.85-.97-.2-.34-.34-.83-.42-1.45-.5,.7-1.22,1.31-2.16,1.83-.94,.52-1.97,.78-3.1,.78-1.36,0-2.47-.44-3.33-1.33s-1.29-1.99-1.29-3.32c0-1.46,.42-2.58,1.27-3.38s1.96-1.29,3.33-1.48l3.92-.53Zm-5.18,7.13c.52,.44,1.13,.66,1.84,.66,.87,0,1.7-.21,2.52-.64,1.37-.71,2.05-1.88,2.05-3.5v-2.12c-.3,.21-.69,.38-1.16,.51s-.94,.23-1.39,.29l-1.49,.21c-.89,.13-1.56,.33-2.01,.6-.76,.46-1.13,1.19-1.13,2.2,0,.76,.26,1.36,.78,1.8Z"></path><path class="cls-8" d="M313.92,660.4c1.03,.86,1.66,2.34,1.87,4.44h-2.39c-.15-.97-.48-1.77-1-2.41s-1.35-.96-2.5-.96c-1.57,0-2.69,.82-3.36,2.46-.44,1.06-.66,2.38-.66,3.94s.31,2.9,.93,3.97c.62,1.07,1.59,1.61,2.93,1.61,1.02,0,1.83-.33,2.43-1,.6-.67,1.01-1.58,1.24-2.75h2.39c-.27,2.08-.96,3.6-2.05,4.56s-2.49,1.44-4.2,1.44c-1.91,0-3.44-.75-4.58-2.25-1.14-1.5-1.71-3.37-1.71-5.62,0-2.75,.62-4.9,1.87-6.43,1.25-1.53,2.84-2.3,4.77-2.3,1.65,0,2.99,.43,4.02,1.29Z"></path><path class="cls-8" d="M318.19,653.73h2.37v12.5l6.31-6.67h3.14l-5.6,5.87,5.92,9.81h-3.14l-4.56-7.91-2.06,2.02v5.89h-2.37v-21.52Z"></path></g><g><path class="cls-9" d="M164.09,268.69h1.65v12.91h-1.65v-12.91Z"></path><path class="cls-9" d="M168.34,268.69h2.34l3.46,10.92,3.44-10.92h2.31v12.91h-1.55v-7.62c0-.26,0-.7,.02-1.31,.01-.61,.02-1.26,.02-1.96l-3.44,10.89h-1.62l-3.46-10.89v.39c0,.32,0,.8,.02,1.45s.02,1.12,.02,1.43v7.62h-1.56v-12.91Z"></path><path class="cls-9" d="M185.88,268.69h1.85l4.37,12.91h-1.79l-1.22-3.87h-4.76l-1.3,3.87h-1.67l4.53-12.91Zm2.68,7.62l-1.83-5.7-1.94,5.7h3.77Z"></path><path class="cls-9" d="M201.72,269.06c1.2,.67,1.93,1.85,2.2,3.54h-1.62c-.2-.94-.6-1.63-1.22-2.06-.62-.43-1.4-.65-2.34-.65-1.12,0-2.05,.45-2.82,1.35s-1.14,2.23-1.14,4.01c0,1.54,.31,2.78,.94,3.75s1.65,1.45,3.08,1.45c1.09,0,1.99-.34,2.7-1.01,.71-.68,1.08-1.77,1.09-3.28h-3.77v-1.45h5.29v6.91h-1.05l-.39-1.66c-.55,.65-1.04,1.1-1.47,1.35-.72,.43-1.63,.65-2.73,.65-1.43,0-2.65-.5-3.68-1.49-1.12-1.24-1.68-2.95-1.68-5.12s.55-3.88,1.64-5.16c1.04-1.22,2.38-1.83,4.03-1.83,1.13,0,2.11,.23,2.94,.7Z"></path><path class="cls-9" d="M207.01,268.69h1.65v12.91h-1.65v-12.91Z"></path><path class="cls-9" d="M211.3,268.69h1.93l6.08,10.46v-10.46h1.55v12.91h-1.83l-6.17-10.45v10.45h-1.56v-12.91Z"></path><path class="cls-9" d="M223.59,268.69h8.78v1.58h-7.19v3.92h6.65v1.49h-6.65v4.38h7.31v1.54h-8.91v-12.91Z"></path><path class="cls-9" d="M240.36,277.44c.04,.73,.2,1.33,.48,1.79,.54,.86,1.5,1.28,2.86,1.28,.61,0,1.17-.09,1.67-.28,.97-.36,1.46-1.01,1.46-1.95,0-.7-.21-1.21-.62-1.5-.42-.29-1.07-.55-1.95-.76l-1.63-.4c-1.07-.26-1.82-.54-2.26-.85-.77-.54-1.15-1.35-1.15-2.42,0-1.16,.38-2.11,1.12-2.86s1.81-1.12,3.18-1.12c1.26,0,2.33,.33,3.22,.98s1.32,1.7,1.32,3.13h-1.53c-.08-.69-.26-1.22-.52-1.59-.5-.67-1.34-1.01-2.53-1.01-.96,0-1.65,.22-2.07,.65s-.63,.94-.63,1.51c0,.63,.25,1.1,.74,1.39,.32,.19,1.05,.42,2.19,.7l1.69,.41c.81,.2,1.44,.47,1.89,.82,.77,.6,1.15,1.48,1.15,2.63,0,1.43-.49,2.45-1.46,3.07-.97,.62-2.1,.92-3.38,.92-1.5,0-2.67-.41-3.52-1.23-.85-.81-1.26-1.92-1.25-3.31h1.53Z"></path><path class="cls-9" d="M250.65,268.69h8.78v1.58h-7.19v3.92h6.65v1.49h-6.65v4.38h7.31v1.54h-8.9v-12.91Z"></path><path class="cls-9" d="M261.7,268.69h1.63v11.37h6.1v1.54h-7.73v-12.91Z"></path><path class="cls-9" d="M271.19,268.69h8.78v1.58h-7.19v3.92h6.65v1.49h-6.65v4.38h7.31v1.54h-8.91v-12.91Z"></path><path class="cls-9" d="M290.87,269.63c.84,.86,1.31,1.84,1.4,2.94h-1.59c-.18-.83-.54-1.49-1.08-1.98-.54-.49-1.29-.73-2.27-.73-1.19,0-2.14,.45-2.88,1.34-.73,.89-1.09,2.26-1.09,4.11,0,1.51,.33,2.74,.99,3.68,.66,.94,1.64,1.41,2.95,1.41,1.2,0,2.12-.5,2.75-1.49,.33-.52,.58-1.21,.75-2.06h1.59c-.14,1.36-.61,2.5-1.41,3.42-.96,1.11-2.25,1.66-3.87,1.66-1.4,0-2.57-.45-3.53-1.36-1.25-1.2-1.88-3.06-1.88-5.56,0-1.9,.47-3.46,1.41-4.68,1.02-1.32,2.42-1.99,4.21-1.99,1.52,0,2.71,.43,3.55,1.29Z"></path><path class="cls-9" d="M303.13,268.69v1.54h-4.06v11.37h-1.66v-11.37h-4.06v-1.54h9.77Z"></path><path class="cls-9" d="M304.99,268.69h1.65v12.91h-1.65v-12.91Z"></path><path class="cls-9" d="M319.21,270.54c.8,1.14,1.2,2.6,1.2,4.38,0,1.93-.46,3.53-1.37,4.81-1.07,1.5-2.6,2.25-4.58,2.25-1.85,0-3.31-.66-4.37-1.97-.95-1.27-1.42-2.87-1.42-4.8,0-1.75,.4-3.24,1.21-4.48,1.04-1.59,2.58-2.39,4.61-2.39s3.7,.73,4.72,2.2Zm-1.44,8.22c.64-1.1,.96-2.37,.96-3.81,0-1.52-.37-2.74-1.11-3.67s-1.75-1.39-3.04-1.39-2.26,.46-3.05,1.38-1.18,2.27-1.18,4.06c0,1.43,.34,2.64,1.01,3.62,.68,.98,1.77,1.47,3.29,1.47,1.44,0,2.48-.55,3.12-1.66Z"></path><path class="cls-9" d="M322.35,268.69h1.93l6.08,10.46v-10.46h1.55v12.91h-1.83l-6.18-10.45v10.45h-1.56v-12.91Z"></path><path class="cls-9" d="M347.77,269.63c.84,.86,1.31,1.84,1.4,2.94h-1.59c-.18-.83-.54-1.49-1.08-1.98-.54-.49-1.29-.73-2.27-.73-1.19,0-2.14,.45-2.87,1.34s-1.09,2.26-1.09,4.11c0,1.51,.33,2.74,.99,3.68s1.64,1.41,2.95,1.41c1.2,0,2.12-.5,2.75-1.49,.33-.52,.58-1.21,.75-2.06h1.59c-.14,1.36-.61,2.5-1.41,3.42-.96,1.11-2.25,1.66-3.87,1.66-1.4,0-2.58-.45-3.53-1.36-1.25-1.2-1.88-3.06-1.88-5.56,0-1.9,.47-3.46,1.41-4.68,1.02-1.32,2.42-1.99,4.21-1.99,1.52,0,2.71,.43,3.55,1.29Z"></path><path class="cls-9" d="M361.2,270.54c.8,1.14,1.2,2.6,1.2,4.38,0,1.93-.46,3.53-1.37,4.81-1.07,1.5-2.6,2.25-4.58,2.25-1.85,0-3.31-.66-4.37-1.97-.95-1.27-1.42-2.87-1.42-4.8,0-1.75,.4-3.24,1.21-4.48,1.04-1.59,2.58-2.39,4.61-2.39s3.7,.73,4.72,2.2Zm-1.44,8.22c.64-1.1,.96-2.37,.96-3.81,0-1.52-.37-2.74-1.11-3.67-.74-.93-1.75-1.39-3.04-1.39s-2.26,.46-3.05,1.38-1.18,2.27-1.18,4.06c0,1.43,.34,2.64,1.01,3.62s1.77,1.47,3.28,1.47,2.48-.55,3.12-1.66Z"></path><path class="cls-9" d="M364.3,268.69h2.34l3.46,10.92,3.44-10.92h2.31v12.91h-1.55v-7.62c0-.26,0-.7,.02-1.31,.01-.61,.02-1.26,.02-1.96l-3.44,10.89h-1.62l-3.46-10.89v.39c0,.32,0,.8,.02,1.45,.01,.65,.02,1.12,.02,1.43v7.62h-1.56v-12.91Z"></path><path class="cls-9" d="M378.28,268.69h2.34l3.46,10.92,3.44-10.92h2.31v12.91h-1.55v-7.62c0-.26,0-.7,.02-1.31s.02-1.26,.02-1.96l-3.44,10.89h-1.62l-3.46-10.89v.39c0,.32,0,.8,.02,1.45,.01,.65,.02,1.12,.02,1.43v7.62h-1.56v-12.91Z"></path><path class="cls-9" d="M392.68,268.69h1.65v12.91h-1.65v-12.91Z"></path><path class="cls-9" d="M405.75,268.69v1.54h-4.06v11.37h-1.66v-11.37h-4.06v-1.54h9.78Z"></path><path class="cls-9" d="M407.39,268.69h8.78v1.58h-7.19v3.92h6.65v1.49h-6.65v4.38h7.31v1.54h-8.91v-12.91Z"></path><path class="cls-9" d="M418.59,268.69h8.78v1.58h-7.19v3.92h6.65v1.49h-6.65v4.38h7.31v1.54h-8.91v-12.91Z"></path></g><g><path class="cls-9" d="M172.99,497.92v1.54h-4.06v11.37h-1.66v-11.37h-4.06v-1.54h9.77Z"></path><path class="cls-9" d="M174.85,497.92h1.65v12.91h-1.65v-12.91Z"></path><path class="cls-9" d="M179.11,497.92h2.34l3.46,10.92,3.44-10.92h2.31v12.91h-1.55v-7.62c0-.26,0-.7,.02-1.31,.01-.61,.02-1.26,.02-1.96l-3.44,10.89h-1.62l-3.46-10.89v.4c0,.32,0,.8,.02,1.45,.01,.65,.02,1.12,.02,1.43v7.62h-1.56v-12.91Z"></path><path class="cls-9" d="M193.29,497.92h8.78v1.58h-7.19v3.92h6.65v1.49h-6.65v4.38h7.31v1.54h-8.91v-12.91Z"></path><path class="cls-9" d="M217.47,497.92v1.54h-4.06v11.37h-1.66v-11.37h-4.06v-1.54h9.77Z"></path><path class="cls-9" d="M228.59,499.77c.8,1.14,1.2,2.61,1.2,4.39,0,1.93-.46,3.53-1.37,4.81-1.07,1.5-2.6,2.25-4.58,2.25-1.85,0-3.31-.66-4.37-1.97-.95-1.27-1.42-2.87-1.42-4.8,0-1.75,.4-3.24,1.21-4.48,1.04-1.59,2.58-2.39,4.61-2.39s3.7,.73,4.72,2.2Zm-1.44,8.22c.64-1.1,.96-2.38,.96-3.81,0-1.52-.37-2.74-1.11-3.66s-1.75-1.39-3.04-1.39-2.26,.46-3.05,1.38-1.18,2.27-1.18,4.06c0,1.43,.34,2.63,1.01,3.62,.68,.98,1.77,1.47,3.29,1.47,1.44,0,2.48-.55,3.12-1.66Z"></path><path class="cls-9" d="M236.36,497.92h2.34l3.46,10.92,3.44-10.92h2.31v12.91h-1.55v-7.62c0-.26,0-.7,.02-1.31,.01-.61,.02-1.26,.02-1.96l-3.44,10.89h-1.62l-3.46-10.89v.4c0,.32,0,.8,.02,1.45s.02,1.12,.02,1.43v7.62h-1.56v-12.91Z"></path><path class="cls-9" d="M253.89,497.92h1.84l4.37,12.91h-1.79l-1.22-3.87h-4.76l-1.3,3.87h-1.67l4.54-12.91Zm2.68,7.62l-1.83-5.71-1.94,5.71h3.77Z"></path><path class="cls-9" d="M261.79,497.92h5.58c.92,0,1.68,.14,2.27,.43,1.13,.55,1.7,1.57,1.7,3.05,0,.77-.15,1.41-.45,1.9-.3,.49-.71,.89-1.25,1.19,.47,.21,.82,.47,1.06,.81,.24,.33,.37,.88,.4,1.62l.06,1.73c.02,.49,.05,.86,.12,1.1,.1,.41,.27,.67,.53,.79v.29h-2c-.05-.11-.1-.26-.13-.43s-.06-.52-.08-1.02l-.1-2.15c-.04-.84-.33-1.41-.88-1.7-.31-.16-.8-.24-1.47-.24h-3.71v5.54h-1.63v-12.91Zm5.4,5.92c.76,0,1.37-.16,1.82-.49,.45-.33,.67-.92,.67-1.78,0-.92-.31-1.55-.93-1.88-.33-.18-.78-.26-1.34-.26h-3.99v4.41h3.77Z"></path><path class="cls-9" d="M273.71,497.92h1.59v6.29l5.87-6.29h2.25l-5.01,5.2,5.15,7.71h-2.12l-4.21-6.48-1.93,1.98v4.5h-1.59v-12.91Z"></path><path class="cls-9" d="M285.07,497.92h8.78v1.58h-7.19v3.92h6.65v1.49h-6.65v4.38h7.31v1.54h-8.9v-12.91Z"></path><path class="cls-9" d="M304.88,497.92v1.54h-4.06v11.37h-1.66v-11.37h-4.06v-1.54h9.77Z"></path></g><g><path class="cls-3" d="M218.15,629.08c-.31-.44-.63-.68-.89-.68-.07,0-.14,.02-.21,.06-.26,.16-.36,.66-.09,1.14,.25,.46,.66,.92,1.19,1.36,.26-.06,.45-.15,.54-.3,.18-.28,0-.82-.54-1.58Z"></path><path class="cls-3" d="M196.42,598.52c.98,.13,1.29,.07,1.39,.03-.15-.22-1.07-.76-2.55-1.27-.62-.21-1.21-.38-1.75-.5,.86,1.02,1.84,1.61,2.91,1.74Z"></path><path class="cls-3" d="M197.97,605.63c-.66-.18-1.38-.23-1.97-.14-.23,.04-.43,.09-.61,.16,.76,.48,1.6,.74,2.5,.68,.85-.06,1.01-.21,1.04-.24-.03-.07-.28-.29-.96-.47Z"></path><path class="cls-3" d="M213.93,626.93c-1.53,.37-2.38,1.02-2.35,1.77,.03,.78,1.12,1.75,3.15,2.07,.95,.15,2.1,.3,2.93,.26-.44-.4-.78-.82-1.02-1.24-.39-.7-.19-1.39,.22-1.65,.37-.23,.99-.16,1.61,.72,.65,.93,.82,1.56,.55,2-.1,.16-.26,.29-.49,.38,.57,.42,1.25,.81,2,1.14,1.45,.64,2.74,.46,3.59-.07-1.24-1.41-1.45-2.63-1.23-3.3,.13-.37,.39-.61,.73-.65,.53-.06,1.12,.36,1.61,1.16,.5,.82,.4,1.79-.26,2.55-.09,.1-.19,.2-.29,.29,.08,.08,.16,.16,.24,.24,2.69,2.57,5.95,1.66,7.29,.82,.04-.03,.08-.05,.12-.08-.54-.37-1.05-.84-1.47-1.44-.5-.71-.37-1.15-.26-1.35,.18-.3,.55-.45,.99-.4,.65,.07,1.55,.61,1.96,1.87,.12,.38-.08,.85-.55,1.28,1.7,.94,3.86,1.09,5.64,.84,1.38-.2,2.07-.57,2.16-.71-.43-.49-1.29-1.15-2.13-1.8-1.64-1.27-2.57-2.01-2.4-2.52,.1-.29,.48-.33,.76-.33h.06c1.51,0,2.64,.39,3.83,.81,1.22,.43,2.48,.87,4.33,.98,2.59,.15,4.64-.25,5.63-.51,1.65-.43,2.25-.89,2.31-1.03-.12-.16-.43-.12-1.27,0-.91,.14-2.43,.36-4.88,.4-.03,0-.07,0-.1,0-2.56,0-4.98-1.32-7.77-2.85-2.92-1.59-6.23-3.4-10.52-4.16-1.52-.27-2.94-.77-4.28-1.38-3.77,3.11-7.38,5.14-10.44,5.88Z"></path><path class="cls-3" d="M233.18,632.14c-.35-1.09-1.1-1.55-1.64-1.61-.04,0-.08,0-.12,0-.23,0-.41,.08-.5,.22-.12,.21-.04,.55,.24,.94,.41,.58,.92,1.05,1.49,1.41,.41-.35,.62-.71,.53-.96Z"></path><path class="cls-3" d="M224.9,629.73c-.45-.73-.9-.99-1.2-.99-.02,0-.04,0-.05,0-.19,.02-.34,.16-.42,.39-.21,.62,.09,1.73,1.18,2.96,.1-.08,.19-.17,.27-.26,.56-.64,.64-1.42,.22-2.1Z"></path><path class="cls-3" d="M225.21,612.55c-.25-.26-.49-.28-.79-.15,.36,.14,.67,.2,.83,.19,0-.01-.02-.02-.03-.04Z"></path><path class="cls-3" d="M257.33,596.18c.81-.33,1.09-.5,1.2-.59-.15-.05-.53-.11-1.48-.11-.52,0-1.22,.02-2.14,.06-5.26,.25-6.58,1.29-6.77,2.13-.1,.47,.13,1.04,.67,1.67,1.98-.79,3.89-1.47,5.48-2.04,1.22-.44,2.27-.81,3.03-1.12Z"></path><path class="cls-3" d="M288.53,586.1c-.25-.26-.49-.28-.79-.15,.36,.14,.67,.2,.83,.19,0-.01-.02-.02-.03-.04Z"></path><path class="cls-3" d="M199.95,621.59s-.02,.13,.14,.25c.15,.11,.21,.1,.21,.1,0,0,.09-.07,.08-.58,0-.09,0-.19-.01-.29-.31,.26-.39,.43-.41,.52Z"></path><path class="cls-3" d="M202.62,616.9c-.05-.21-.31-.39-.66-.45-.08-.01-.17-.02-.26-.02-.36,0-.78,.12-1.03,.49-.21,.31-.24,.93-.19,1.63,.51-.06,1.07-.33,1.67-.82,.37-.3,.54-.6,.48-.83Z"></path><path class="cls-3" d="M201.01,613.08c.1-.04,.4-.17,.36-.3-.15-.44-2.13-1.08-3.46-.67-.17,.05-.31,.12-.44,.2,.13,.09,.25,.17,.38,.25,1.12,.68,2.27,.87,3.16,.52Z"></path><path class="cls-3" d="M222.85,613.04c.17-.12,.34-.25,.51-.38,.09-.07,.18-.14,.27-.2-.4-.22-.76-.48-1.03-.77-.99-1.05-3.32-1.07-5.5,.71-.65,.53-1.57,.57-2.61,.12-1.29-.56-2.64-1.8-3.7-3.43-.84-1.29-1.89-3.41-2.1-6.2-.26-3.37-4.18-7.08-7.97-10.67-3.49-3.3-7.09-6.71-8.12-10.03-.62-2.01-1.01-2.46-1.12-2.56-.1,.26-.07,1.44,.61,3.43,.47,1.37,1.59,4.07,3.85,6.87,2.08,2.58,1.97,2.84,1.9,3-.04,.09-.12,.15-.22,.16-.15,.02-.43-.06-1.31-.73-.54-.42-1.23-1-2-1.69-1.3-1.17-2.84-2.67-3.27-3.29-.17-.25-.26-.26-.26-.26-.04,.02-.16,.22-.18,.85-.02,.57,.04,1.32,.17,2.13,.31,1.92,.97,3.85,1.79,5.29,.19,.33,.38,.63,.58,.91,.65,.12,1.25,.29,1.62,.4,1.48,.46,2.86,1.1,3.27,1.53,.2,.21,.18,.37,.13,.47-.1,.2-.39,.36-1.8,.18-1.28-.16-2.44-.93-3.43-2.23-.63-.1-1.16-.13-1.55-.06-.62,.11-.67,.42-.65,.65,.16,2.07,1.76,6.28,4.29,8.16h0c1.26-.69,3.43-.2,4.04,.31,.25,.21,.23,.4,.2,.49-.09,.28-.53,.44-1.37,.5-.99,.07-1.96-.22-2.89-.85-.42,.32-.6,.81-.52,1.47,.25,2.14,1.44,3.77,2.65,4.74,.17-.13,.39-.24,.64-.32,.64-.2,1.52-.19,2.37,0,.32,.08,1.37,.36,1.55,.9,.06,.18,.07,.52-.58,.77-1,.38-2.27,.18-3.49-.55-.16-.1-.32-.2-.47-.31-.25,.32-.29,.76-.14,1.33,.74,2.7,1.66,4.24,2.74,4.58,.1,.03,.2,.05,.31,.07-.05-.77,0-1.45,.26-1.84,.42-.6,1.16-.71,1.67-.62,.5,.09,.86,.37,.96,.73,.07,.27,.02,.7-.61,1.22-.66,.54-1.29,.84-1.87,.9,.03,.35,.07,.7,.11,1.03,.02,.15,.03,.29,.05,.43,.17-.11,.37-.23,.58-.35,.85-.47,2.03-1.01,3.52-1.6,2.67-1.06,5.82-2.09,7.71-2.65,2.28-.67,4.76,.81,7.63,2.52,.21,.13,.43,.25,.64,.38,.27-.75,.47-1.55,.67-2.3,.4-1.54,.75-2.87,1.44-3.34Z"></path><path class="cls-3" d="M296.5,605.69c-.35-1.09-1.1-1.55-1.64-1.61-.04,0-.08,0-.12,0-.23,0-.41,.08-.5,.22-.12,.21-.04,.55,.24,.94,.41,.58,.92,1.05,1.49,1.41,.41-.35,.62-.71,.53-.96Z"></path><path class="cls-3" d="M281.47,602.63c-.31-.44-.63-.68-.89-.68-.07,0-.14,.02-.21,.06-.26,.16-.36,.66-.09,1.14,.25,.46,.66,.92,1.19,1.36,.26-.06,.45-.15,.54-.3,.18-.28,0-.82-.54-1.58Z"></path><path class="cls-3" d="M288.22,603.28c-.45-.73-.9-.99-1.2-.99-.02,0-.04,0-.05,0-.19,.02-.34,.16-.42,.39-.21,.62,.09,1.73,1.18,2.96,.1-.08,.19-.17,.27-.26,.56-.64,.64-1.42,.22-2.1Z"></path><path class="cls-3" d="M259.74,572.06c.98,.13,1.29,.07,1.39,.03-.15-.22-1.07-.76-2.55-1.27-.62-.21-1.21-.38-1.75-.5,.86,1.02,1.84,1.61,2.91,1.74Z"></path><path class="cls-3" d="M277.25,600.48c-1.53,.37-2.38,1.02-2.35,1.77,.03,.78,1.12,1.75,3.15,2.07,.94,.15,2.1,.3,2.93,.26-.44-.4-.78-.82-1.02-1.24-.39-.7-.19-1.39,.22-1.65,.37-.23,.99-.16,1.61,.72,.65,.93,.82,1.56,.55,2-.1,.16-.26,.29-.49,.38,.57,.42,1.25,.81,2,1.14,1.45,.64,2.74,.46,3.59-.07-1.24-1.41-1.45-2.63-1.23-3.3,.13-.37,.39-.61,.73-.65,.53-.06,1.12,.36,1.61,1.16,.5,.82,.4,1.79-.26,2.55-.09,.1-.19,.2-.29,.29,.08,.08,.16,.16,.24,.24,2.69,2.57,5.95,1.66,7.29,.82,.04-.03,.08-.05,.12-.08-.54-.37-1.05-.84-1.47-1.44-.5-.71-.38-1.15-.26-1.35,.18-.3,.55-.45,.99-.4,.65,.07,1.55,.61,1.96,1.87,.12,.38-.08,.85-.55,1.28,1.7,.94,3.87,1.09,5.64,.84,1.38-.2,2.07-.57,2.16-.71-.43-.49-1.29-1.15-2.12-1.8-1.64-1.27-2.57-2.01-2.4-2.52,.1-.29,.48-.33,.76-.33,1.54,0,2.68,.39,3.88,.81,1.22,.43,2.48,.87,4.33,.98,2.59,.15,4.64-.25,5.63-.51,1.65-.43,2.25-.89,2.3-1.03-.12-.16-.43-.12-1.27,0-.91,.14-2.43,.36-4.88,.4-.03,0-.07,0-.1,0-2.56,0-4.98-1.32-7.77-2.85-2.92-1.59-6.23-3.4-10.52-4.16-1.63-.29-3.16-.85-4.59-1.53-4.15,3.32-7.7,5.44-10.13,6.03Z"></path><path class="cls-3" d="M263.27,595.14s-.02,.13,.14,.25c.15,.11,.21,.1,.21,.1,0,0,.09-.07,.08-.58,0-.09,0-.19-.01-.29-.31,.26-.39,.43-.41,.52Z"></path><path class="cls-3" d="M265.94,590.45c-.05-.21-.31-.39-.66-.45-.08-.01-.17-.02-.26-.02-.36,0-.78,.12-1.03,.49-.21,.31-.24,.93-.19,1.63,.51-.06,1.07-.33,1.67-.82,.37-.3,.54-.6,.48-.83Z"></path><path class="cls-3" d="M286.17,586.59c.17-.12,.34-.25,.51-.38,.09-.07,.18-.14,.27-.2-.4-.22-.76-.48-1.02-.77-.99-1.05-3.32-1.07-5.5,.71-.65,.53-1.57,.57-2.61,.12-1.29-.56-2.64-1.8-3.7-3.43-.84-1.29-1.89-3.41-2.1-6.2-.26-3.37-4.18-7.08-7.97-10.67-3.49-3.3-7.09-6.71-8.12-10.03-.62-2.01-1.01-2.46-1.12-2.56-.1,.26-.07,1.44,.61,3.43,.47,1.37,1.59,4.07,3.85,6.87,2.08,2.58,1.97,2.84,1.9,3-.04,.09-.12,.15-.22,.16-.15,.02-.43-.06-1.31-.73-.54-.42-1.23-1-2-1.69-1.3-1.17-2.84-2.67-3.27-3.29-.17-.25-.26-.26-.26-.26-.04,.02-.16,.22-.18,.85-.02,.57,.04,1.32,.17,2.13,.31,1.92,.97,3.85,1.79,5.29,.19,.33,.38,.63,.58,.91,.65,.12,1.25,.29,1.62,.4,1.48,.46,2.86,1.1,3.27,1.53,.2,.21,.18,.37,.13,.47-.1,.2-.39,.36-1.8,.18-1.28-.16-2.44-.93-3.43-2.23-.63-.1-1.16-.13-1.55-.06-.62,.11-.67,.42-.65,.65,.16,2.07,1.76,6.28,4.29,8.16h0c1.26-.69,3.43-.2,4.04,.31,.25,.21,.23,.4,.2,.49-.09,.28-.53,.44-1.37,.5-.99,.07-1.96-.22-2.89-.85-.42,.32-.6,.81-.52,1.47,.25,2.14,1.44,3.77,2.65,4.74,.17-.13,.39-.24,.64-.32,.64-.2,1.52-.19,2.37,0,.32,.08,1.37,.36,1.55,.9,.06,.18,.07,.52-.58,.77-1,.38-2.27,.18-3.49-.55-.16-.1-.32-.2-.47-.31-.25,.32-.29,.76-.14,1.33,.74,2.7,1.66,4.24,2.74,4.58,.1,.03,.2,.05,.31,.07-.05-.77,0-1.45,.26-1.84,.42-.6,1.16-.71,1.67-.62,.5,.09,.86,.37,.96,.73,.07,.27,.02,.7-.61,1.22-.66,.54-1.29,.84-1.87,.9,.03,.35,.07,.7,.11,1.03,.02,.15,.03,.29,.05,.43,.17-.11,.36-.23,.58-.35,.85-.47,2.03-1.01,3.52-1.6,2.67-1.06,5.82-2.09,7.71-2.65,2.28-.67,4.76,.81,7.63,2.52,.21,.13,.43,.25,.64,.38,.27-.75,.47-1.55,.67-2.3,.4-1.54,.75-2.87,1.44-3.34Z"></path><path class="cls-3" d="M261.29,579.18c-.66-.18-1.38-.23-1.97-.14-.23,.04-.43,.09-.61,.16,.76,.48,1.6,.74,2.5,.68,.85-.06,1.01-.21,1.04-.24-.03-.07-.28-.29-.96-.47Z"></path><path class="cls-3" d="M264.33,586.63c.1-.04,.4-.17,.36-.3-.15-.44-2.13-1.08-3.46-.67-.17,.05-.31,.12-.44,.2,.13,.09,.25,.17,.38,.25,1.12,.68,2.27,.87,3.16,.52Z"></path><path d="M327.49,570.99c-4.93,.23-10.03,.46-14.7,1.77-2.52,.71-4.7,1.66-6.67,2.91-2.22,1.41-4.11,3.16-5.79,5.35-2.75,3.58-7.01,7.94-11.41,11.67-.54,.46-1.07,.9-1.59,1.32-1.02-.49-2-1.05-2.93-1.59,.28-.78,.5-1.62,.7-2.4,.37-1.4,.72-2.73,1.29-3.12,.18-.12,.36-.26,.52-.39,.15-.12,.29-.22,.42-.31,.08,.04,.17,.07,.25,.1,.3,.11,1.04,.36,1.3,.11,.07-.07,.2-.25-.08-.56-.49-.53-1-.4-1.51-.08-.39-.19-.79-.45-1.1-.79-.59-.62-1.54-.92-2.62-.82-1.13,.1-2.33,.63-3.39,1.5-.68,.56-1.59,.35-2.23,.07-2.47-1.06-5.23-4.83-5.58-9.31-.12-1.61-.98-3.33-2.69-5.41-1.49-1.82-3.48-3.69-5.4-5.51-3.45-3.27-7.02-6.64-8.01-9.87-.28-.89-.54-1.59-.79-2.08-.26-.5-.47-.74-.68-.76-.13-.01-.25,.06-.32,.19-.27,.49-.01,2.1,.62,3.9,.58,1.66,1.73,4.2,3.86,6.84,1.3,1.61,1.69,2.25,1.8,2.51-.33-.16-1.2-.76-2.92-2.31-1.45-1.31-2.82-2.68-3.17-3.19-.24-.35-.48-.48-.7-.4-.56,.21-.46,1.79-.35,2.71,.23,1.97,.88,4.12,1.74,5.74,.19,.36,.39,.7,.6,1-.65-.08-1.28-.08-1.71,.11-.4,.18-.59,.5-.56,.93,.11,1.38,.84,3.82,2.2,5.92,.66,1.02,1.38,1.84,2.14,2.43-.37,.32-.68,.85-.58,1.74,.23,1.93,1.26,3.76,2.75,4.96-.32,.41-.39,.97-.2,1.66,.79,2.87,1.77,4.45,2.99,4.84,.15,.05,.3,.08,.45,.09,.03,.35,.07,.71,.12,1.07,.03,.22,.05,.43,.07,.63-.45,.34-.69,.63-.74,.91-.03,.17,0,.41,.29,.62,.24,.17,.45,.21,.61,.12,.28-.17,.3-.63,.23-1.46,.67-.46,1.91-1.12,4.19-2.03,2.66-1.06,5.79-2.08,7.67-2.64,2.12-.63,4.53,.81,7.33,2.48,.23,.14,.46,.28,.7,.42-.25,.65-.56,1.24-.94,1.71-.78,.95-3.09,2.31-6.17,3.64-2.95,1.27-5.94,2.24-7.8,2.51-2.42,.35-4.03,1.29-5.45,2.12-2.62,1.53-4.69,2.74-10.47-.23-1.58-.81-2.87-1.65-3.74-2.45-.1-.09-.19-.18-.27-.26,1.92-.76,3.78-1.43,5.33-1.98,3.8-1.36,4.6-1.69,4.52-2.14-.05-.24-.35-.35-1.12-.39-.63-.03-1.59-.02-2.93,.04-4.42,.21-6.81,1.02-7.12,2.42-.14,.62,.16,1.27,.67,1.89-4.68,1.89-9.66,4.36-11.75,7.33-4.28,6.09-8.54,10.61-12.39,13.8-1.14-.53-2.22-1.14-3.24-1.74,.28-.78,.5-1.62,.7-2.4,.37-1.4,.72-2.73,1.29-3.12,.18-.12,.36-.26,.53-.39,.15-.12,.29-.22,.42-.31,.08,.04,.17,.07,.25,.1,.3,.11,1.04,.36,1.3,.11,.07-.07,.2-.25-.08-.56-.49-.53-1-.4-1.51-.08-.39-.19-.79-.45-1.1-.79-.59-.62-1.54-.92-2.62-.82-1.13,.1-2.33,.63-3.39,1.5-.68,.56-1.59,.35-2.23,.07-2.47-1.06-5.23-4.83-5.58-9.31-.12-1.61-.98-3.33-2.69-5.41-1.49-1.82-3.48-3.69-5.4-5.51-3.45-3.27-7.02-6.64-8.01-9.87-.28-.89-.54-1.59-.79-2.08-.26-.5-.47-.74-.68-.76-.13-.01-.25,.06-.32,.19-.27,.49-.01,2.1,.62,3.9,.58,1.66,1.73,4.2,3.86,6.84,1.3,1.61,1.69,2.25,1.8,2.51-.33-.16-1.2-.76-2.92-2.31-1.45-1.31-2.82-2.68-3.17-3.19-.24-.35-.48-.48-.7-.4-.56,.21-.46,1.79-.35,2.71,.23,1.97,.88,4.12,1.74,5.74,.19,.36,.39,.69,.6,1-.65-.08-1.28-.08-1.71,.11-.4,.18-.59,.5-.56,.93,.11,1.38,.84,3.82,2.2,5.92,.66,1.02,1.38,1.84,2.14,2.43-.37,.32-.68,.85-.58,1.74,.23,1.93,1.26,3.76,2.75,4.96-.32,.41-.39,.97-.2,1.66,.79,2.87,1.77,4.45,2.99,4.84,.15,.05,.3,.08,.45,.09,.03,.35,.07,.71,.12,1.07,.03,.22,.05,.43,.07,.63-.45,.34-.69,.63-.74,.91-.03,.17,0,.41,.29,.62,.24,.17,.45,.21,.61,.12,.28-.17,.3-.63,.23-1.46,.67-.46,1.91-1.12,4.19-2.03,2.66-1.06,5.79-2.08,7.68-2.64,2.12-.63,4.53,.81,7.33,2.48,.23,.14,.46,.28,.7,.42-.25,.65-.56,1.24-.94,1.71-.78,.95-3.09,2.31-6.16,3.64-2.95,1.27-5.94,2.24-7.8,2.51-2.42,.35-4.03,1.29-5.45,2.12-2.62,1.53-4.69,2.74-10.47-.23-4.34-2.22-5.08-3.6-4.94-4.37,.15-.79,1.44-1.86,6.77-2.43,2.49-.27,3.81-.89,3.82-1.81,0-.85-1.18-1.79-3.35-2.65-1.6-.63-4.45-1.5-8.95-2.08-1.91-.24-3.73-.03-5.52,.51v.4c1.78-.55,3.59-.77,5.47-.53,3.49,.45,6.63,1.17,8.86,2.05,1.95,.77,3.12,1.63,3.11,2.29,0,.68-1.28,1.2-3.48,1.44-4.52,.48-6.84,1.38-7.1,2.74-.13,.71,.33,1.52,1.37,2.4,.86,.73,2.13,1.52,3.77,2.37,2.73,1.4,4.84,1.98,6.65,1.83,1.64-.13,2.88-.85,4.18-1.62,1.39-.81,2.97-1.73,5.32-2.08,3.96-.58,12.41-4.11,14.2-6.28,.4-.49,.72-1.09,.98-1.76,.97,.57,1.99,1.14,3.05,1.65-3.99,3.25-7.52,5.05-10.15,5.69-1.72,.42-2.68,1.2-2.64,2.15,.05,1.11,1.47,2.11,3.46,2.42,1.61,.25,2.69,.33,3.39,.23,.64,.51,1.43,.97,2.32,1.36,1.62,.71,3.06,.48,4-.13,.09,.09,.18,.19,.28,.28,1.18,1.13,2.64,1.75,4.22,1.79,1.26,.03,2.55-.3,3.53-.92,.09-.06,.18-.12,.26-.18,2.18,1.28,4.88,1.09,5.83,.97,1.15-.15,2.48-.52,2.66-.99,.05-.12,.02-.25-.06-.35-.45-.52-1.34-1.2-2.19-1.86-.6-.47-1.23-.95-1.67-1.35-.64-.59-.6-.75-.6-.75,0,0,.06-.08,.41-.08h.05c1.45,0,2.54,.38,3.7,.79,1.19,.42,2.53,.89,4.44,1,1.88,.11,3.86-.06,5.56-.47,1.44-.35,2.48-.83,2.72-1.24,.11-.19,.05-.33,0-.39-.25-.38-.69-.31-1.65-.17-.9,.13-2.41,.36-4.83,.39-2.5,.04-4.9-1.28-7.69-2.8-2.94-1.61-6.28-3.43-10.63-4.2-1.42-.25-2.75-.71-4.02-1.28,4.21-3.52,8.47-8.28,12.32-13.75,2.05-2.92,7.04-5.37,11.71-7.25,1.18,1.24,3.14,2.34,4.21,2.89,2.73,1.4,4.84,1.98,6.65,1.83,1.64-.13,2.88-.85,4.18-1.62,1.39-.81,2.97-1.73,5.32-2.08,3.96-.58,12.41-4.11,14.2-6.28,.4-.49,.72-1.09,.98-1.76,.87,.51,1.79,1.03,2.74,1.5-4.04,3.22-7.49,5.27-9.84,5.84-1.72,.42-2.68,1.2-2.64,2.15,.05,1.11,1.47,2.11,3.46,2.42,1.61,.25,2.69,.33,3.39,.23,.64,.51,1.43,.97,2.32,1.36,1.61,.71,3.06,.48,4-.13,.09,.09,.18,.19,.28,.28,1.18,1.13,2.64,1.75,4.22,1.79,1.26,.03,2.55-.3,3.53-.92,.09-.06,.18-.12,.26-.18,2.18,1.28,4.88,1.09,5.83,.97,1.15-.15,2.48-.52,2.66-.99,.05-.12,.02-.25-.06-.35-.45-.52-1.34-1.2-2.19-1.86-.6-.47-1.23-.95-1.67-1.35-.64-.59-.6-.75-.6-.75,0,0,.06-.08,.41-.08h.05c1.45,0,2.54,.38,3.7,.79,1.19,.42,2.53,.89,4.44,1,1.88,.11,3.86-.06,5.56-.47,1.44-.35,2.48-.83,2.72-1.24,.11-.19,.05-.33,0-.39-.25-.38-.69-.31-1.65-.17-.9,.13-2.41,.36-4.83,.39-2.5,.04-4.9-1.28-7.69-2.8-2.94-1.61-6.28-3.43-10.63-4.2-1.53-.27-2.97-.79-4.33-1.42,.48-.39,.97-.79,1.46-1.21,4.42-3.74,8.71-8.13,11.47-11.73,6.87-8.96,17.04-9.43,26.86-9.89v-.38h0Zm-38.96,15.11s.02,.03,.03,.04c-.15,.01-.46-.05-.83-.19,.3-.13,.55-.11,.79,.15Zm-63.32,26.45s.02,.03,.03,.04c-.16,.01-.46-.05-.83-.19,.3-.13,.55-.11,.79,.15Zm-24.91,9.38s-.06,0-.21-.1c-.16-.12-.15-.21-.14-.25,.02-.1,.1-.27,.41-.52,0,.1,.01,.2,.01,.29,.01,.51-.07,.58-.08,.58Zm.18-3.39c-.04-.7-.02-1.32,.19-1.63,.25-.36,.67-.49,1.03-.49,.09,0,.18,0,.26,.02,.35,.06,.6,.24,.66,.45,.06,.23-.11,.53-.48,.83-.6,.49-1.16,.76-1.67,.82Zm20.27,.13c-.22-.13-.43-.26-.64-.38-2.87-1.71-5.36-3.19-7.63-2.52-1.89,.56-5.04,1.59-7.71,2.65-1.48,.59-2.67,1.13-3.52,1.6-.21,.12-.41,.23-.58,.35-.01-.14-.03-.28-.05-.43-.04-.33-.08-.68-.11-1.03,.59-.06,1.21-.36,1.87-.9,.63-.51,.68-.94,.61-1.22-.09-.36-.46-.64-.96-.73-.51-.09-1.25,.02-1.67,.62-.27,.39-.31,1.07-.26,1.84-.11-.01-.21-.03-.31-.07-1.08-.34-2-1.89-2.74-4.58-.16-.57-.11-1.01,.14-1.33,.15,.11,.31,.21,.47,.31,1.22,.74,2.49,.94,3.49,.55,.65-.25,.64-.59,.58-.77-.19-.53-1.24-.82-1.55-.9-.85-.2-1.74-.21-2.37,0-.25,.08-.47,.19-.64,.32-1.21-.97-2.4-2.6-2.65-4.74-.08-.66,.1-1.16,.52-1.47,.93,.63,1.9,.92,2.89,.85,.84-.06,1.28-.21,1.37-.5,.03-.1,.05-.29-.2-.49-.61-.51-2.78-1-4.04-.31h0c-2.53-1.87-4.13-6.09-4.29-8.16-.02-.22,.03-.54,.65-.65,.38-.07,.92-.05,1.55,.06,.99,1.3,2.15,2.06,3.43,2.23,1.41,.18,1.69,.02,1.8-.18,.05-.1,.07-.26-.13-.47-.41-.43-1.78-1.07-3.27-1.53-.37-.11-.97-.28-1.62-.4-.2-.28-.4-.58-.58-.91-.83-1.44-1.48-3.37-1.79-5.29-.13-.81-.19-1.56-.17-2.13,.03-.64,.15-.84,.18-.85,0,0,.09,.01,.26,.26,.43,.62,1.97,2.12,3.27,3.29,.76,.69,1.45,1.27,2,1.69,.88,.67,1.15,.75,1.31,.73,.1-.01,.18-.07,.22-.16,.07-.16,.18-.43-1.9-3-2.26-2.8-3.38-5.51-3.85-6.87-.68-1.99-.72-3.17-.61-3.43,.11,.09,.5,.54,1.12,2.56,1.03,3.32,4.63,6.73,8.12,10.03,3.79,3.59,7.71,7.3,7.97,10.67,.21,2.79,1.26,4.91,2.1,6.2,1.06,1.62,2.41,2.87,3.7,3.43,1.04,.45,1.97,.4,2.61-.12,2.18-1.78,4.51-1.75,5.5-.71,.27,.29,.63,.55,1.03,.77-.09,.07-.18,.13-.27,.2-.16,.13-.33,.26-.51,.38-.69,.47-1.04,1.8-1.44,3.34-.2,.75-.41,1.55-.67,2.3Zm-23.27-6.37c.12-.08,.27-.15,.44-.2,1.33-.41,3.31,.22,3.46,.67,.05,.13-.26,.26-.36,.3-.89,.34-2.04,.15-3.16-.52-.12-.07-.25-.16-.38-.25Zm-2.08-6.65c.18-.07,.38-.13,.61-.16,.59-.09,1.31-.04,1.97,.14,.67,.18,.93,.4,.96,.47-.02,.03-.19,.18-1.04,.24-.9,.06-1.74-.2-2.5-.68Zm-1.89-8.89c.54,.12,1.13,.29,1.75,.5,1.47,.51,2.4,1.05,2.55,1.27-.09,.04-.41,.09-1.39-.03-1.08-.14-2.05-.72-2.91-1.74Zm23.46,32.83c-.27-.48-.17-.98,.09-1.14,.06-.04,.13-.06,.21-.06,.26,0,.59,.24,.89,.68,.54,.77,.72,1.3,.54,1.58-.09,.14-.28,.24-.54,.3-.53-.44-.94-.9-1.19-1.36Zm7.46,2.49c-1.08-1.23-1.39-2.34-1.18-2.96,.08-.23,.23-.37,.42-.39,.02,0,.03,0,.05,0,.29,0,.75,.26,1.2,.99,.42,.68,.34,1.47-.22,2.1-.08,.09-.17,.18-.27,.26Zm8.23,1.01c-.57-.37-1.08-.83-1.49-1.41-.28-.39-.36-.73-.24-.94,.08-.14,.27-.22,.5-.22,.04,0,.08,0,.12,0,.54,.06,1.29,.52,1.64,1.61,.08,.26-.13,.62-.53,.96Zm-4-10.68c4.29,.76,7.6,2.57,10.52,4.16,2.8,1.53,5.22,2.85,7.77,2.85,.03,0,.07,0,.1,0,2.45-.03,3.97-.26,4.88-.4,.84-.13,1.15-.16,1.27,0-.05,.14-.65,.6-2.31,1.03-.99,.26-3.04,.66-5.63,.51-1.85-.11-3.11-.55-4.33-.98-1.19-.42-2.32-.81-3.83-.81h-.06c-.28,0-.66,.04-.76,.33-.17,.51,.75,1.25,2.4,2.52,.83,.64,1.69,1.3,2.13,1.8-.1,.15-.79,.51-2.16,.71-1.78,.26-3.94,.11-5.64-.84,.47-.43,.68-.9,.55-1.28-.4-1.26-1.31-1.79-1.96-1.87-.44-.05-.81,.1-.99,.4-.12,.2-.24,.64,.26,1.35,.42,.6,.93,1.07,1.47,1.44-.04,.03-.08,.05-.12,.08-1.35,.84-4.61,1.75-7.29-.82-.08-.08-.16-.16-.24-.24,.11-.09,.21-.19,.29-.29,.66-.76,.76-1.73,.26-2.55-.49-.8-1.08-1.22-1.61-1.16-.34,.04-.61,.27-.73,.65-.23,.67,0,1.89,1.23,3.3-.85,.53-2.14,.71-3.59,.07-.75-.33-1.43-.72-2-1.14,.23-.09,.39-.22,.49-.38,.27-.44,.1-1.07-.55-2-.62-.89-1.24-.95-1.61-.72-.41,.26-.61,.94-.22,1.65,.23,.42,.58,.84,1.02,1.24-.83,.05-1.99-.11-2.93-.26-2.02-.32-3.11-1.28-3.15-2.07-.03-.76,.83-1.4,2.35-1.77,3.06-.74,6.67-2.78,10.44-5.88,1.34,.61,2.76,1.11,4.28,1.38Zm19.5-24.76c.18-.84,1.5-1.88,6.77-2.13,.92-.04,1.62-.06,2.14-.06,.95,0,1.33,.06,1.48,.11-.1,.09-.39,.26-1.2,.59-.76,.31-1.81,.68-3.03,1.12-1.59,.57-3.5,1.25-5.48,2.04-.54-.63-.77-1.2-.67-1.67Zm15.47-2.18s-.06,0-.21-.1c-.16-.12-.15-.21-.14-.25,.02-.1,.1-.27,.41-.52,0,.1,.01,.2,.01,.29,.01,.51-.07,.58-.08,.58Zm.18-3.39c-.04-.7-.02-1.32,.19-1.63,.25-.36,.67-.49,1.03-.49,.09,0,.18,0,.26,.02,.35,.06,.6,.24,.66,.45,.06,.23-.11,.53-.48,.83-.6,.49-1.16,.76-1.67,.82Zm20.27,.13c-.22-.13-.43-.26-.64-.38-2.87-1.71-5.36-3.19-7.63-2.52-1.89,.56-5.04,1.59-7.71,2.65-1.48,.59-2.67,1.13-3.52,1.6-.21,.12-.41,.23-.58,.35-.02-.14-.03-.28-.05-.43-.04-.33-.08-.68-.11-1.03,.59-.06,1.21-.36,1.87-.9,.63-.51,.68-.94,.61-1.22-.09-.36-.46-.64-.96-.73-.51-.09-1.25,.02-1.67,.62-.27,.39-.31,1.07-.26,1.84-.11-.01-.21-.03-.31-.07-1.08-.34-2-1.89-2.74-4.58-.16-.57-.11-1.01,.14-1.33,.15,.11,.31,.21,.47,.31,1.22,.74,2.49,.94,3.49,.55,.65-.25,.64-.59,.58-.77-.18-.53-1.24-.82-1.55-.9-.85-.2-1.74-.21-2.37,0-.25,.08-.47,.19-.64,.32-1.21-.97-2.4-2.6-2.65-4.74-.08-.66,.1-1.16,.52-1.47,.93,.63,1.9,.92,2.89,.85,.84-.06,1.28-.21,1.37-.5,.03-.1,.05-.29-.2-.49-.61-.51-2.78-1-4.04-.31h0c-2.53-1.87-4.13-6.09-4.29-8.16-.02-.22,.03-.54,.65-.65,.38-.07,.92-.05,1.55,.06,.99,1.3,2.15,2.06,3.43,2.23,1.41,.18,1.69,.02,1.8-.18,.05-.1,.07-.26-.13-.47-.41-.43-1.78-1.07-3.27-1.53-.37-.11-.97-.28-1.62-.4-.2-.28-.4-.58-.58-.91-.83-1.44-1.48-3.37-1.79-5.29-.13-.81-.19-1.56-.17-2.13,.03-.64,.15-.84,.18-.85,0,0,.09,.01,.26,.26,.43,.62,1.97,2.12,3.27,3.29,.76,.69,1.45,1.27,2,1.69,.88,.67,1.15,.75,1.31,.73,.1-.01,.18-.07,.22-.16,.07-.16,.18-.43-1.9-3-2.26-2.8-3.38-5.51-3.85-6.87-.68-1.99-.72-3.17-.61-3.43,.11,.09,.5,.54,1.12,2.56,1.03,3.32,4.63,6.73,8.12,10.03,3.79,3.59,7.71,7.3,7.97,10.67,.21,2.79,1.26,4.91,2.1,6.2,1.06,1.62,2.41,2.87,3.7,3.43,1.04,.45,1.97,.4,2.61-.12,2.18-1.78,4.51-1.75,5.5-.71,.27,.29,.63,.55,1.02,.77-.09,.07-.18,.14-.27,.2-.16,.13-.33,.26-.51,.38-.69,.47-1.04,1.8-1.44,3.34-.2,.75-.41,1.55-.67,2.3Zm-23.27-6.37c.12-.08,.27-.15,.44-.2,1.33-.41,3.31,.22,3.46,.67,.05,.13-.26,.26-.36,.3-.89,.34-2.04,.15-3.16-.52-.12-.07-.25-.16-.38-.25Zm-2.08-6.65c.18-.07,.38-.13,.61-.16,.59-.09,1.31-.04,1.97,.14,.67,.18,.93,.4,.96,.47-.02,.03-.19,.18-1.04,.24-.9,.06-1.74-.2-2.5-.68Zm-1.89-8.89c.54,.12,1.13,.29,1.75,.5,1.47,.51,2.4,1.05,2.55,1.27-.09,.04-.41,.1-1.39-.03-1.08-.14-2.05-.72-2.91-1.74Zm23.46,32.83c-.27-.48-.17-.98,.09-1.14,.06-.04,.13-.06,.21-.06,.26,0,.59,.24,.89,.68,.54,.77,.72,1.3,.54,1.58-.09,.14-.28,.24-.54,.3-.53-.44-.94-.9-1.19-1.36Zm7.46,2.49c-1.08-1.23-1.39-2.34-1.18-2.96,.08-.23,.23-.37,.42-.39,.02,0,.03,0,.05,0,.29,0,.75,.26,1.2,.99,.42,.68,.34,1.47-.22,2.1-.08,.09-.17,.18-.27,.26Zm8.23,1.01c-.57-.37-1.08-.83-1.49-1.41-.28-.39-.36-.73-.24-.94,.08-.14,.27-.22,.5-.22,.04,0,.08,0,.12,0,.54,.06,1.29,.52,1.64,1.61,.08,.26-.13,.62-.53,.96Zm-4-10.68c4.29,.76,7.6,2.57,10.52,4.16,2.8,1.53,5.22,2.85,7.77,2.85,.03,0,.07,0,.1,0,2.45-.03,3.97-.26,4.88-.4,.84-.13,1.15-.16,1.27,0-.05,.14-.65,.6-2.3,1.03-.99,.26-3.04,.66-5.63,.51-1.85-.11-3.11-.55-4.33-.98-1.21-.42-2.34-.82-3.88-.81-.28,0-.66,.04-.76,.33-.17,.51,.75,1.25,2.4,2.52,.83,.64,1.69,1.3,2.12,1.8-.1,.15-.79,.51-2.16,.71-1.78,.26-3.94,.11-5.64-.84,.47-.43,.68-.9,.55-1.28-.4-1.26-1.31-1.79-1.96-1.87-.44-.05-.81,.1-.99,.4-.12,.2-.24,.64,.26,1.35,.42,.6,.93,1.07,1.47,1.44-.04,.03-.08,.05-.12,.08-1.35,.84-4.61,1.75-7.29-.82-.08-.08-.16-.16-.24-.24,.11-.09,.21-.19,.29-.29,.66-.76,.76-1.73,.26-2.55-.49-.8-1.08-1.22-1.61-1.16-.34,.04-.61,.27-.73,.65-.23,.67,0,1.89,1.23,3.3-.85,.53-2.14,.71-3.59,.07-.75-.33-1.43-.72-2-1.14,.23-.09,.39-.22,.49-.38,.27-.44,.1-1.07-.55-2-.62-.89-1.24-.95-1.61-.72-.41,.26-.61,.94-.22,1.65,.23,.42,.58,.84,1.02,1.24-.83,.05-1.99-.11-2.93-.26-2.02-.32-3.11-1.28-3.15-2.07-.03-.76,.83-1.4,2.35-1.77,2.43-.59,5.98-2.71,10.13-6.03,1.43,.68,2.96,1.24,4.59,1.53Z"></path></g></g></g></svg>