<?xml version="1.0" encoding="UTF-8"?><svg id="Calque_2" xmlns="http://www.w3.org/2000/svg" viewBox="0 0 1920 564.57"><defs><style>.cls-1{fill:#181236;}</style></defs><g id="Calque_1-2"><g id="Calque_1-2"><g><g><path id="path491143" class="cls-1" d="M1432.74,1.29c-5.98-2.98-13.15-.61-16.43,5.07-4.19,8.66-8.96,17.64-14.33,27.2-41.24,78.31-103.7,196.04-130.3,296.76-1.79,6.28,2.09,13.15,8.66,14.64,.91,.3,2.09,.61,2.98,.61,5.38,0,10.17-3.58,11.66-8.96,25.99-98.02,87.57-214.59,128.5-291.68l14.33-27.2c3.28-5.98,.91-13.15-5.07-16.43h0Zm-136.88,385.21c-5.68-3.28-13.15-1.19-16.43,4.49-5.07,9.26-13.75,27.2-15.55,36.16-1.49,6.59,2.98,12.85,9.56,14.06,.61,.3,1.49,.3,2.4,.3,5.68,0,10.45-3.89,11.66-9.87,.91-3.58,6.86-17.34,13.15-28.69,3.28-5.98,1.19-13.15-4.77-16.43h0l-.03-.03Z"/><path class="cls-1" d="M1917.91,305.11h0c-3.58-5.68-11.05-7.17-16.73-3.58-.91,.91-100.72,66.35-207.12,66.35-12.85,0-23.02-2.7-28.69-8.08-4.49-4.19-6.86-10.45-6.86-18.52v-3.58l1.19,.3c30.79,8.08,55.6-5.68,68.14-21.22,11.96-14.33,15.55-31.67,9.56-44.24-4.77-10.45-15.55-16.43-29.3-16.43-25.44,0-48.98,20.09-62.36,44.47-3.84-1.59-8.4-1.21-11.94,1.56-38.84,29-109.38,74.73-133.3,74.73-4.49,0-6.59-2.4-7.47-25.69-.91-19.13-2.09-51.41-34.67-51.41s-71.72,31.37-94.74,50.2c-2.7,2.4-5.68,4.77-8.38,6.86,2.09-13.75,20.01-46.91,31.37-58.88,4.49-4.77,4.49-12.54-.61-17.03-4.77-4.77-12.54-4.49-17.03,.3-8.66,9.26-46.91,63.65-35.86,89.36,3.58,8.38,11.36,13.15,21.53,13.15,6.28,0,10.75-3.89,24.5-14.94,19.13-15.85,54.69-44.82,79.19-44.82,6.59,0,9.26,2.4,10.45,28.39,.61,18.22,1.79,48.71,31.67,48.71,6.59,0,26.6,0,90.55-40.35,17.51-11.15,33.44-22.21,44.04-29.7-.53,3.48-.81,6.91-.81,10.27,0,14.94,5.07,27.48,14.64,36.16,10.45,9.87,25.69,14.64,45.12,14.64,113.87,0,216.38-67.53,220.57-70.23,5.68-3.89,7.17-11.36,3.28-16.73h.08Zm-209.79-24.81h0c1.79,0,6.28,.3,7.47,2.4,1.49,2.98,.3,10.75-6.28,18.83-3.89,4.49-18.52,19.43-43.63,13.15h-.3c9.56-18.83,27.21-34.37,42.73-34.37h.03Z"/><path class="cls-1" d="M68.65,224.38h0c2.09,1.19,4.19,1.79,6.28,1.79,4.19,0,8.08-2.09,10.45-5.68,7.77-13.15,27.2-27.79,38.84-36.77l3.28-2.4c5.38-4.19,6.28-11.66,2.09-17.03-3.89-5.38-11.66-6.28-17.03-2.09l-2.98,2.09c-12.85,10.17-34.67,26.6-45.12,43.63-3.28,5.68-1.49,13.15,4.19,16.43v.03Z"/><path class="cls-1" d="M1248.21,330.45h0c-.61-6.99-6.69-11.86-13.38-10.95l-1.06,.15h0c-17.01,1.62-35.51,4.26-55.19,8.4-.63,.13-1.26,.23-1.89,.35-14.01,2.83-27.31,6.38-39.97,10.4-.71,.23-1.44,.43-2.15,.63h.1c-15.85,5.12-30.71,11-44.47,17.34,1.79-20.92,0-37.96-6.59-47.22-2.4-2.98-5.98-4.77-9.56-4.77-3.89,0-7.47,1.49-9.87,4.49-3.58,4.77-8.08,9.56-12.85,14.06-2.09-5.68-5.07-11.05-9.56-15.55-12.26-12.54-33.19-19.13-60.06-19.13-18.42,0-40.03,7.17-59.18,18.42-4.57-3.48-11.1-3.28-15.32,.68-18.83,16.73-76.21,60.37-116.26,60.37-11.36,0-19.73-2.98-25.41-9.26-11.05-12.54-8.66-34.07-8.66-34.37,.61-5.07-2.4-10.17-7.17-12.54-1.49-.61-2.98-.91-4.77-.91,2.09-4.49,1.19-9.56-2.09-13.15-14.33-14.94-35.86-20.01-60.67-14.33-15.32,3.76-31.55,11.46-46.21,21.7-3.61-1.14-7.62-.61-10.88,1.92-31.67,23.62-90.85,60.97-115.66,60.97-5.07,0-8.38-.91-9.87-2.4-3.58-4.77-.3-20.92,1.79-31.37,3.58-17.64,6.86-34.37-2.7-45.73-4.77-6.28-12.26-9.26-21.8-9.26-38.56,0-75,47.82-94.74,73.51l-1.79,2.09c0-3.89,0-8.66,.3-11.96,.61-16.13,1.49-34.37-9.56-46.03-5.98-5.98-14.06-9.26-24.2-9.26-22.11,0-40.05,21.53-55.9,40.35-4.49,5.38-10.75,12.85-16.13,18.22,7.17-20.62,25.99-56.78,32.88-63.37,4.77-4.77,5.07-12.26,.61-17.34-4.49-4.77-12.26-5.07-17.03-.3-6.91,6.11-17.82,25.89-25.19,40.5-3.48-1.69-7.72-1.62-11.26,.43-73.82,43.03-189.17,79.19-222.36,79.19-5.07,0-5.98-2.09-6.59-3.28-5.68-11.36,4.77-43.63,16.13-57.97,4.19-5.07,3.28-12.54-2.09-16.73-5.07-4.19-12.85-3.58-17.03,1.79-12.85,16.13-30.79,58.88-19.13,83.38,5.38,11.05,15.55,17.03,28.69,17.03,37.93,0,147.15-35.38,220.95-74.88-7.97,22.11-5.35,28.92-3.96,32.15,2.4,6.59,8.38,10.45,15.24,10.45,16.73,0,30.49-16.43,45.12-33.77,11.66-14.06,26.3-31.67,37.05-31.67,3.28,0,5.38,.61,6.59,1.79,3.89,4.19,3.28,17.94,2.98,28.09-.61,14.64-1.19,28.69,7.17,37.35,2.7,2.98,8.08,6.59,16.13,6.59,7.47,0,10.75-4.19,21.53-18.22,14.64-19.13,49.01-63.95,75.61-63.95,2.09,0,2.98,.3,3.28,.3,1.79,3.58-.91,17.94-2.7,25.69-3.58,17.64-7.47,37.96,3.58,51.41,5.98,7.47,15.55,11.36,28.39,11.36,22.61,0,57.16-18.04,85.07-35.31-2.22,9.84-.61,18.9,5.2,26.35,5.07,6.28,14.33,13.75,31.97,14.06,.3,.3,.91,.3,1.19,.3,29.3,0,70.84-20.01,102.21-47.52,2.09,8.38,5.68,17.03,12.26,24.5,10.45,11.66,25.11,17.64,43.63,17.64,27.13,0,57.51-14.28,82.32-29.63-.78,3.21-1.24,6.44-1.26,9.64-.61,9.26,2.7,18.22,9.26,25.11,5.68,6.28,16.73,13.75,36.16,13.75,25.11,0,104.61-29,149.43-69.63,0,7.77-.91,17.34-2.7,28.39-100.42,55.29-141.05,128.2-138.98,164.06,1.19,18.52,12.85,30.49,30.49,30.49,24.5,0,61.55-14.94,97.14-85.48,14.33-28.09,26.3-62.16,32.58-92.64,19.79-10.15,35.46-16.83,43.2-19.68,3.96-1.46,13.45-4.62,15.17-5.2,.68-.23,1.67-.5,3.53-1.11,.71-.23,1.36-.43,2.3-.71,0,0,1.01-.3,2.07-.58,3.63-.96,55.02-12.49,85.88-15.29,6.69-.61,11.56-6.69,10.62-13.38l.05-.05Zm-615.29,43.08h0c-.3,0-.61,0-.91-.3-6.28,0-10.75-1.49-13.15-4.77-3.89-5.07,3.28-20.32,21.53-35.86,16.13-14.06,40.93-27.2,61.55-27.2,8.96,0,17.03,2.7,23.32,8.96,2.09,2.4,4.77,3.58,7.77,3.89-26.6,29.58-72.93,55.29-100.11,55.29h0Zm284.57,13.45h0c-8.38,0-14.94-2.09-18.52-5.98-1.79-2.09-2.98-4.77-2.7-7.47v-.91c0-24.5,50.2-59.76,85.48-59.76,27.2,0,38.26,7.47,42.73,11.66,2.98,3.28,4.49,6.59,4.19,10.45,0,1.79,.3,3.58,.91,5.07-40.66,27.48-96.23,46.91-112.08,46.91v.03Zm113.87,81.29h0c-23.02,45.73-50.8,72.03-75.61,72.03-2.7,0-5.68,0-6.28-7.77-.91-18.22,17.64-61.85,73.82-106.4,9.56-7.47,20.62-15.24,33.46-23.32-5.98,20.62-14.06,43.33-25.41,65.44l.03,.03Z"/></g><g><path class="cls-1" d="M47.28,535.52c-3.91,0-7.7-.63-11.41-1.92-3.71-1.29-6.91-3.13-9.59-5.58l2.98-4.42c2.83,2.3,5.68,4.04,8.58,5.17,2.9,1.16,6.03,1.72,9.36,1.72,4.04,0,7.24-.81,9.64-2.45,2.4-1.64,3.58-3.94,3.58-6.97,0-1.41-.33-2.57-.96-3.51-.63-.93-1.59-1.74-2.83-2.45-1.24-.71-2.83-1.34-4.69-1.87-1.87-.53-4.09-1.11-6.56-1.69-2.88-.71-5.38-1.41-7.47-2.12-2.12-.71-3.86-1.49-5.22-2.4-1.36-.91-2.4-1.99-3.08-3.31-.68-1.31-1.01-2.95-1.01-4.95,0-2.5,.5-4.69,1.49-6.61,.98-1.92,2.32-3.51,4.04-4.74,1.69-1.24,3.68-2.2,5.96-2.83,2.27-.63,4.69-.96,7.24-.96,3.84,0,7.32,.63,10.45,1.87,3.13,1.24,5.65,2.9,7.57,4.95l-3.15,3.84c-1.84-1.92-4.11-3.36-6.76-4.32-2.65-.96-5.43-1.44-8.3-1.44-1.72,0-3.33,.18-4.79,.53s-2.78,.91-3.89,1.67c-1.11,.76-1.99,1.74-2.65,2.93-.66,1.19-.96,2.57-.96,4.16,0,1.34,.23,2.42,.68,3.26,.45,.83,1.19,1.54,2.2,2.15,1.01,.61,2.32,1.16,3.89,1.64,1.56,.48,3.46,.98,5.7,1.49,3.21,.76,6.01,1.54,8.43,2.3,2.42,.76,4.47,1.67,6.08,2.68,1.64,1.03,2.85,2.27,3.68,3.73,.83,1.46,1.24,3.26,1.24,5.38,0,4.59-1.77,8.25-5.27,10.93-3.51,2.68-8.25,4.04-14.18,4.04v.1Z"/><path class="cls-1" d="M118.62,532.17c-.38,.2-.93,.45-1.69,.76-.73,.33-1.59,.63-2.55,.96-.96,.33-2.04,.61-3.26,.86-1.21,.25-2.5,.38-3.84,.38-1.41,0-2.75-.2-4.04-.58-1.29-.38-2.4-.96-3.36-1.77-.96-.81-1.72-1.79-2.3-3.03-.58-1.21-.86-2.62-.86-4.21v-35.76h-6.91v-5.17h6.91v-16.88h6.51v16.88h11.51v5.17h-11.51v33.94c.13,1.84,.78,3.21,1.97,4.09,1.19,.86,2.55,1.29,4.09,1.29,1.84,0,3.48-.3,4.9-.91,1.41-.61,2.3-1.03,2.68-1.29l1.72,5.27h.03Z"/><path class="cls-1" d="M156.6,535.52c-2.37,0-4.54-.4-6.56-1.19-2.02-.81-3.79-1.89-5.27-3.31-1.49-1.41-2.68-3.05-3.51-4.95-.83-1.89-1.24-3.91-1.24-6.08s.5-4.19,1.54-6.03c1.03-1.84,2.45-3.46,4.32-4.79,1.84-1.34,4.06-2.37,6.61-3.1s5.38-1.11,8.43-1.11c2.55,0,5.15,.23,7.77,.68,2.62,.45,4.95,1.09,6.99,1.92v-4.52c0-4.42-1.24-7.9-3.74-10.5-2.5-2.6-5.96-3.89-10.35-3.89-2.55,0-5.17,.5-7.87,1.54-2.68,1.03-5.4,2.5-8.15,4.42l-2.3-4.32c6.46-4.34,12.72-6.51,18.8-6.51s11.18,1.77,14.76,5.27,5.38,8.38,5.38,14.59v22.54c0,1.79,.81,2.68,2.4,2.68v5.75c-1.09,.2-1.92,.3-2.5,.3-1.67,0-2.95-.43-3.89-1.24-.93-.83-1.41-1.99-1.49-3.46l-.2-3.94c-2.3,3-5.2,5.3-8.68,6.89-3.48,1.59-7.24,2.4-11.26,2.4v-.05Zm1.54-5c3.38,0,6.51-.63,9.36-1.92s5-2.98,6.46-5.07c.58-.58,1.01-1.19,1.29-1.87,.28-.68,.43-1.29,.43-1.87v-8.15c-2.17-.83-4.42-1.46-6.76-1.92-2.32-.45-4.72-.68-7.14-.68-4.59,0-8.35,.96-11.23,2.88-2.88,1.92-4.32,4.44-4.32,7.57,0,1.54,.3,2.98,.91,4.32,.61,1.34,1.44,2.5,2.5,3.51,1.06,.98,2.32,1.77,3.79,2.35,1.46,.58,3.03,.86,4.69,.86h.03Z"/><path class="cls-1" d="M238.49,490.35c-4.42,.13-8.25,1.34-11.51,3.63-3.26,2.3-5.55,5.48-6.91,9.49v31.07h-6.51v-49.97h6.13v11.99c1.84-3.84,4.34-6.84,7.47-9.01,3.13-2.17,6.49-3.26,10.07-3.26,.5,0,.93,.03,1.24,.1v5.96h.03Z"/><path class="cls-1" d="M288.46,532.17c-.38,.2-.93,.45-1.69,.76-.73,.33-1.59,.63-2.55,.96-.96,.33-2.04,.61-3.26,.86-1.21,.25-2.5,.38-3.84,.38s-2.75-.2-4.04-.58c-1.29-.38-2.4-.96-3.36-1.77-.96-.81-1.72-1.79-2.3-3.03-.58-1.21-.86-2.62-.86-4.21v-35.76h-6.91v-5.17h6.91v-16.88h6.51v16.88h11.51v5.17h-11.51v33.94c.13,1.84,.78,3.21,1.97,4.09,1.19,.86,2.55,1.29,4.09,1.29,1.84,0,3.48-.3,4.9-.91,1.41-.61,2.3-1.03,2.68-1.29l1.72,5.27h.03Z"/><path class="cls-1" d="M312.06,511.45v-6.03h28.01v6.03h-28.01Z"/><path class="cls-1" d="M386.38,535.52c-5.43,0-9.49-1.82-12.14-5.43-2.65-3.61-3.99-9.01-3.99-16.15v-29.35h6.51v28.19c0,11.31,3.86,16.96,11.61,16.96,1.92,0,3.81-.3,5.65-.96,1.84-.66,3.56-1.56,5.12-2.78,1.56-1.21,2.98-2.65,4.21-4.32,1.24-1.67,2.25-3.56,3.03-5.65v-31.44h6.51v41.51c0,1.79,.76,2.68,2.3,2.68v5.75c-.76,.13-1.39,.2-1.87,.2h-1.01c-1.54-.08-2.78-.61-3.73-1.64-.96-1.01-1.44-2.4-1.44-4.11v-5.75c-2.17,3.91-5.12,6.91-8.86,9.06-3.73,2.15-7.72,3.21-11.94,3.21l.03,.03Z"/><path class="cls-1" d="M470.47,535.52c-4.21,0-7.95-1.06-11.18-3.21-3.23-2.15-5.83-4.85-7.82-8.1v30.79h-6.51v-70.38h5.85v9.69c2.04-3.13,4.69-5.68,7.95-7.62,3.26-1.94,6.81-2.93,10.65-2.93,3.46,0,6.61,.71,9.49,2.15,2.88,1.44,5.38,3.36,7.47,5.75,2.12,2.4,3.76,5.15,4.95,8.3,1.19,3.13,1.77,6.36,1.77,9.69,0,3.51-.56,6.84-1.64,9.97-1.09,3.13-2.62,5.88-4.64,8.25-2.02,2.37-4.42,4.24-7.19,5.6-2.78,1.36-5.83,2.07-9.16,2.07l.03-.03Zm-1.82-5.75c2.68,0,5.12-.58,7.34-1.72,2.2-1.16,4.09-2.68,5.65-4.54,1.56-1.89,2.78-4.04,3.58-6.41,.83-2.4,1.24-4.87,1.24-7.44s-.48-5.25-1.44-7.67c-.96-2.42-2.27-4.57-3.94-6.41-1.67-1.84-3.63-3.33-5.91-4.42-2.27-1.09-4.72-1.64-7.34-1.64-1.67,0-3.41,.33-5.22,1.01-1.82,.68-3.51,1.56-5.07,2.68-1.56,1.11-2.9,2.42-4.04,3.94-1.11,1.51-1.82,3.08-2.07,4.74v15.34c.76,1.79,1.74,3.46,2.93,4.97,1.19,1.54,2.52,2.85,4.04,3.99,1.51,1.14,3.13,1.99,4.85,2.62,1.72,.63,3.51,.96,5.38,.96h.03Z"/><path class="cls-1" d="M552.84,535.52c-3.89,0-7.7-.63-11.41-1.92-3.71-1.29-6.91-3.13-9.59-5.58l2.98-4.42c2.8,2.3,5.68,4.04,8.58,5.17,2.9,1.16,6.03,1.72,9.36,1.72,4.04,0,7.24-.81,9.64-2.45,2.4-1.64,3.58-3.94,3.58-6.97,0-1.41-.33-2.57-.96-3.51-.63-.93-1.59-1.74-2.83-2.45-1.24-.71-2.8-1.34-4.69-1.87-1.89-.53-4.09-1.11-6.56-1.69-2.88-.71-5.38-1.41-7.47-2.12-2.12-.71-3.86-1.49-5.22-2.4-1.36-.91-2.4-1.99-3.08-3.31-.68-1.31-1.01-2.95-1.01-4.95,0-2.5,.5-4.69,1.49-6.61s2.32-3.51,4.04-4.74c1.69-1.24,3.68-2.2,5.96-2.83,2.27-.63,4.69-.96,7.24-.96,3.84,0,7.32,.63,10.45,1.87,3.13,1.24,5.65,2.9,7.57,4.95l-3.15,3.84c-1.87-1.92-4.11-3.36-6.76-4.32-2.65-.96-5.43-1.44-8.3-1.44-1.72,0-3.33,.18-4.79,.53-1.46,.35-2.78,.91-3.89,1.67-1.11,.76-1.99,1.74-2.62,2.93-.63,1.19-.96,2.57-.96,4.16,0,1.34,.23,2.42,.68,3.26,.45,.83,1.19,1.54,2.2,2.15,1.03,.61,2.32,1.16,3.89,1.64s3.46,.98,5.7,1.49c3.21,.76,6.01,1.54,8.43,2.3,2.42,.76,4.47,1.67,6.08,2.68,1.64,1.03,2.85,2.27,3.68,3.73s1.24,3.26,1.24,5.38c0,4.59-1.77,8.25-5.27,10.93-3.51,2.68-8.25,4.04-14.18,4.04l-.03,.1Z"/><path class="cls-1" d="M624.18,532.17c-.38,.2-.93,.45-1.69,.76-.73,.33-1.59,.63-2.55,.96-.96,.33-2.04,.61-3.26,.86-1.21,.25-2.5,.38-3.84,.38s-2.75-.2-4.04-.58c-1.29-.38-2.4-.96-3.36-1.77-.96-.81-1.72-1.79-2.3-3.03-.58-1.21-.86-2.62-.86-4.21v-35.76h-6.91v-5.17h6.91v-16.88h6.51v16.88h11.51v5.17h-11.51v33.94c.13,1.84,.78,3.21,1.97,4.09,1.19,.86,2.55,1.29,4.09,1.29,1.84,0,3.48-.3,4.9-.91,1.41-.61,2.3-1.03,2.68-1.29l1.72,5.27h.03Z"/><path class="cls-1" d="M665.24,535.52c-5.43,0-9.49-1.82-12.14-5.43-2.65-3.61-3.99-9.01-3.99-16.15v-29.35h6.51v28.19c0,11.31,3.86,16.96,11.61,16.96,1.92,0,3.81-.3,5.65-.96,1.84-.63,3.56-1.56,5.12-2.78,1.56-1.21,2.98-2.65,4.21-4.32,1.24-1.67,2.25-3.56,3.03-5.65v-31.44h6.51v41.51c0,1.79,.76,2.68,2.3,2.68v5.75c-.76,.13-1.39,.2-1.87,.2h-1.01c-1.54-.08-2.78-.61-3.74-1.64-.96-1.01-1.44-2.4-1.44-4.11v-5.75c-2.17,3.91-5.12,6.91-8.88,9.06-3.74,2.15-7.72,3.21-11.94,3.21l.05,.03Z"/><path class="cls-1" d="M744.36,535.52c-3.46,0-6.64-.73-9.59-2.17-2.95-1.44-5.48-3.33-7.57-5.7-2.12-2.37-3.76-5.1-4.95-8.2-1.19-3.1-1.77-6.33-1.77-9.74s.58-6.86,1.72-10.02c1.14-3.15,2.73-5.93,4.74-8.3s4.42-4.24,7.19-5.6c2.78-1.36,5.83-2.07,9.16-2.07,4.21,0,7.95,1.11,11.23,3.31,3.26,2.2,5.83,4.87,7.67,8v-30.49h6.51v61.58c0,1.79,.76,2.68,2.3,2.68v5.75c-.96,.2-1.72,.3-2.3,.3-1.54,0-2.88-.5-4.04-1.49-1.16-.98-1.72-2.2-1.72-3.61v-4.9c-1.99,3.26-4.67,5.85-8.05,7.77-3.38,1.92-6.91,2.88-10.55,2.88v.03Zm1.44-5.75c1.59,0,3.31-.3,5.12-.96,1.82-.63,3.53-1.51,5.12-2.62,1.59-1.11,2.95-2.42,4.09-3.94,1.11-1.49,1.79-3.1,2.07-4.85v-15.44c-.63-1.72-1.56-3.33-2.78-4.85-1.21-1.51-2.6-2.83-4.16-3.99-1.56-1.16-3.26-2.04-5.05-2.68-1.79-.63-3.56-.96-5.27-.96-2.68,0-5.12,.58-7.29,1.72-2.17,1.16-4.04,2.68-5.6,4.54-1.56,1.89-2.78,4.04-3.61,6.49-.83,2.45-1.24,4.92-1.24,7.47,0,2.68,.48,5.25,1.44,7.67,.96,2.42,2.27,4.54,3.94,6.38,1.67,1.82,3.63,3.28,5.91,4.37,2.27,1.09,4.72,1.62,7.34,1.62l-.03,.03Z"/><path class="cls-1" d="M800.74,474.15v-9.59h6.51v9.59h-6.51Zm0,60.42v-49.97h6.51v49.97h-6.51Z"/><path class="cls-1" d="M860.2,535.52c-3.63,0-6.97-.68-9.97-2.07-3-1.36-5.6-3.26-7.82-5.6-2.2-2.37-3.91-5.12-5.12-8.25-1.21-3.13-1.82-6.41-1.82-9.87s.63-6.84,1.87-9.97c1.24-3.13,2.98-5.88,5.17-8.25,2.2-2.37,4.82-4.26,7.82-5.65,3-1.41,6.31-2.12,9.87-2.12s6.89,.71,9.92,2.12c3.03,1.41,5.65,3.28,7.87,5.65s3.94,5.12,5.17,8.25c1.24,3.13,1.87,6.46,1.87,9.97s-.61,6.74-1.82,9.87c-1.21,3.13-2.93,5.88-5.12,8.25-2.2,2.37-4.82,4.24-7.87,5.6-3.03,1.36-6.38,2.07-10.02,2.07h0Zm-18.12-25.69c0,2.83,.48,5.43,1.44,7.82,.96,2.4,2.25,4.52,3.89,6.33,1.64,1.82,3.56,3.26,5.75,4.26,2.2,1.03,4.54,1.54,7.04,1.54s4.85-.53,7.04-1.59c2.2-1.06,4.14-2.5,5.8-4.32,1.67-1.82,2.98-3.94,3.94-6.38,.96-2.45,1.44-5.05,1.44-7.87s-.48-5.35-1.44-7.82c-.96-2.47-2.27-4.59-3.94-6.44-1.67-1.82-3.58-3.26-5.8-4.32-2.22-1.06-4.54-1.59-7.04-1.59s-4.82,.53-6.99,1.59c-2.17,1.06-4.09,2.5-5.75,4.37-1.67,1.87-2.98,4.01-3.94,6.46-.96,2.47-1.44,5.1-1.44,7.92v.03Z"/></g><path class="cls-1" d="M1437.53,204.17c-3.76,0-7.19-.93-10.32-2.83-3.13-1.87-5.55-4.29-7.32-7.27v9.19h-5.55v-66.32h6.18v28.9c2.12-3.21,4.67-5.8,7.62-7.77,2.98-1.97,6.41-2.95,10.35-2.95,3.33,0,6.31,.71,8.96,2.09,2.62,1.39,4.87,3.26,6.71,5.58,1.84,2.32,3.28,4.97,4.26,7.9,1.01,2.95,1.49,5.96,1.49,9.03,0,3.33-.58,6.49-1.72,9.44-1.16,2.98-2.73,5.55-4.72,7.77-1.99,2.22-4.37,3.96-7.14,5.27-2.78,1.31-5.7,1.94-8.86,1.94l.05,.03Zm-1.46-5.45c2.6,0,4.97-.53,7.14-1.59,2.15-1.06,3.99-2.47,5.55-4.26,1.54-1.79,2.75-3.81,3.63-6.08,.88-2.27,1.31-4.62,1.31-7.04s-.4-4.87-1.24-7.17c-.83-2.3-1.97-4.34-3.46-6.13-1.49-1.79-3.28-3.21-5.35-4.26-2.07-1.06-4.37-1.59-6.86-1.59-1.87,0-3.63,.33-5.27,.96-1.64,.63-3.15,1.49-4.54,2.6-1.39,1.09-2.62,2.35-3.73,3.76-1.09,1.41-1.99,2.93-2.73,4.49v14.71c.25,1.64,.88,3.15,1.94,4.59,1.06,1.41,2.32,2.65,3.81,3.68,1.49,1.03,3.08,1.84,4.82,2.45,1.72,.61,3.38,.91,4.95,.91l.02-.03Z"/><path class="cls-1" d="M1476.04,217.8c.48,.05,.96,.1,1.41,.13s.88,.05,1.31,.05c1.09,0,1.94-.15,2.6-.45,.63-.3,1.26-.96,1.87-1.99s1.29-2.52,2.04-4.44c.76-1.94,1.84-4.54,3.23-7.82l-20.62-47.34h6.36l17.54,41.61,16.25-41.61h5.91l-24.53,61.05c-.66,1.77-1.77,3.28-3.31,4.59-1.54,1.31-3.66,1.94-6.31,1.94-.61,0-1.19,0-1.72-.05-.53-.05-1.21-.1-1.99-.23v-5.45l-.05,.03Z"/><g><path class="cls-1" d="M1862.87,136.94c-3.18,0-6.11,.43-8.78,1.21-2.78,.78-5.1,1.89-6.99,3.43-1.99,1.54-3.53,3.43-4.57,5.7-1.11,2.25-1.64,4.82-1.64,7.75,0,2.42,.35,4.49,1.21,6.21,.78,1.72,1.99,3.18,3.53,4.39,1.54,1.21,3.53,2.25,5.96,3.1,2.32,.86,5.07,1.72,8.18,2.42,2.75,.68,5.25,1.36,7.5,2.07,2.25,.68,4.04,1.36,5.6,2.25,1.46,.86,2.6,1.89,3.36,3.1,.78,1.21,1.21,2.6,1.21,4.32,0,3.1-1.21,5.43-3.61,6.97-2.4,1.54-5.85,2.32-10.17,2.32-2.42,0-4.67-.18-6.81-.68-2.17-.53-4.14-1.11-6.03-1.89-1.89-.78-3.53-1.64-5-2.68-1.46-.93-2.68-1.89-3.53-2.93l-3.71,6.54c3.43,2.85,7.24,5,11.46,6.46,4.21,1.46,8.71,2.17,13.45,2.17,3.1,0,6.03-.25,8.78-.96,2.68-.68,5-1.72,6.97-3.1s3.53-3.18,4.74-5.35c1.11-2.15,1.72-4.74,1.72-7.67,0-2.75-.5-5.07-1.46-6.97-.96-1.89-2.32-3.43-4.14-4.82-1.82-1.29-3.96-2.42-6.54-3.28-2.6-.86-5.43-1.72-8.53-2.42-2.75-.61-5.17-1.21-7.14-1.82-2.07-.53-3.71-1.21-5.07-1.99-1.39-.78-2.32-1.72-2.93-2.85-.68-1.03-.96-2.42-.96-4.14,0-3.1,1.03-5.53,3.28-7.32,2.25-1.72,5.7-2.68,10.52-2.68,1.82,0,3.53,.25,5.25,.61,1.72,.35,3.28,.86,4.74,1.46,1.36,.61,2.68,1.29,3.89,1.99,1.11,.78,2.07,1.54,2.75,2.32l3.61-6.28c-2.57-2.07-5.6-3.79-8.88-5.07-3.36-1.21-7.07-1.89-11.21-1.89h0Z"/><polygon class="cls-1" points="1537.47 137.37 1537.47 198.56 1545.22 198.56 1545.22 151.25 1558.94 175.73 1563.06 168.66 1545.64 137.37 1537.47 137.37"/><polygon class="cls-1" points="1590.06 137.37 1567.8 177.11 1563.76 184.18 1565.66 187.54 1570.05 187.54 1590.39 151.25 1590.39 198.56 1598.14 198.56 1598.14 137.37 1590.06 137.37"/><polygon class="cls-1" points="1612.72 137.37 1612.72 156.32 1620.5 156.32 1620.5 144.26 1653.51 144.26 1653.51 137.37 1612.72 137.37"/><polygon class="cls-1" points="1664.91 137.37 1664.91 142.01 1672.69 151.85 1710.11 198.56 1716.65 198.56 1716.65 137.44 1708.9 137.44 1708.9 185.04 1670.97 137.37 1664.91 137.37"/><polygon class="cls-1" points="1749.88 137.37 1724.8 198.56 1732.72 198.56 1753.16 146.33 1756.42 137.37 1749.88 137.37"/><path class="cls-1" d="M1789.68,137.37v24.48h7.77v-17.59h17.34c1.46,0,2.83,.35,4.21,.96,1.29,.68,2.5,1.54,3.53,2.68,1.03,1.21,1.82,2.5,2.42,4.06,.61,1.54,.96,3.28,.96,5s-.25,3.36-.78,4.9c-.61,1.64-1.29,2.93-2.17,4.14-.96,1.21-2.07,2.07-3.36,2.75-1.29,.68-2.78,.96-4.32,.96h-25.62v28.87h7.77v-21.98h18.27c2.68,0,5.07-.5,7.32-1.64,2.25-1.03,4.14-2.5,5.7-4.42,1.54-1.82,2.75-3.89,3.71-6.28,.86-2.32,1.29-4.74,1.29-7.32,0-2.42-.53-4.74-1.36-7.07-.96-2.32-2.25-4.39-3.89-6.28-1.64-1.89-3.61-3.36-5.85-4.49-2.25-1.14-4.74-1.72-7.42-1.72h-25.54Z"/><polygon class="cls-1" points="1759.8 145.72 1756.42 154.86 1764.19 174.62 1748.85 174.62 1746.53 180.65 1765.91 180.65 1773.15 198.56 1781.43 198.56 1759.8 145.72"/><polygon class="cls-1" points="1664.91 154.1 1664.91 198.56 1672.69 198.56 1672.69 164.17 1664.91 154.1"/><polygon class="cls-1" points="1612.72 164.09 1612.72 183.93 1620.5 183.93 1620.5 170.55 1649.19 170.55 1649.19 164.09 1612.72 164.09"/><rect class="cls-1" x="1612.72" y="191.68" width="41.56" height="6.89"/></g></g></g></g></svg>